<svg width="200" height="200" viewBox="0 0 200 200" fill="none" xmlns="http://www.w3.org/2000/svg">
<mask id="path-1-inside-1_43_145" fill="white">
<path fill-rule="evenodd" clip-rule="evenodd" d="M60.9618 116.509C60.8519 124.973 60.4277 127.923 58.7944 128.95C57.921 129.5 56.7018 129.5 55 129.5C48.9249 129.5 39 118.307 39 104.5C39 90.6929 48.9249 80 55 80C56.7183 80 57.9446 80 58.8197 80.5543C60.5428 81.6459 60.9046 84.8866 60.9802 94.5086H139.02C139.095 84.8866 139.457 81.6459 141.18 80.5543C142.055 80 143.282 80 145 80C151.075 80 161 90.6929 161 104.5C161 118.307 151.075 129.5 145 129.5C143.298 129.5 142.079 129.5 141.206 128.95C139.572 127.923 139.148 124.973 139.038 116.509H60.9618Z"/>
</mask>
<path fill-rule="evenodd" clip-rule="evenodd" d="M60.9618 116.509C60.8519 124.973 60.4277 127.923 58.7944 128.95C57.921 129.5 56.7018 129.5 55 129.5C48.9249 129.5 39 118.307 39 104.5C39 90.6929 48.9249 80 55 80C56.7183 80 57.9446 80 58.8197 80.5543C60.5428 81.6459 60.9046 84.8866 60.9802 94.5086H139.02C139.095 84.8866 139.457 81.6459 141.18 80.5543C142.055 80 143.282 80 145 80C151.075 80 161 90.6929 161 104.5C161 118.307 151.075 129.5 145 129.5C143.298 129.5 142.079 129.5 141.206 128.95C139.572 127.923 139.148 124.973 139.038 116.509H60.9618Z" fill="white"/>
<path d="M58.7944 128.95L59.327 129.797L59.327 129.797L58.7944 128.95ZM60.9618 116.509V115.509H59.9747L59.9618 116.496L60.9618 116.509ZM58.8197 80.5543L58.2846 81.3991L58.2846 81.3991L58.8197 80.5543ZM60.9802 94.5086L59.9802 94.5165L59.988 95.5086H60.9802V94.5086ZM139.02 94.5086V95.5086H140.012L140.02 94.5165L139.02 94.5086ZM141.18 80.5543L140.645 79.7096L140.645 79.7096L141.18 80.5543ZM141.206 128.95L141.738 128.104L141.738 128.104L141.206 128.95ZM139.038 116.509L140.038 116.496L140.025 115.509H139.038V116.509ZM59.327 129.797C60.5239 129.044 61.101 127.671 61.4355 125.684C61.774 123.674 61.9068 120.747 61.9617 116.522L59.9618 116.496C59.9068 120.735 59.7726 123.515 59.4633 125.352C59.1499 127.213 58.6983 127.829 58.2619 128.104L59.327 129.797ZM55 130.5C55.8337 130.5 56.6243 130.501 57.3168 130.425C58.0182 130.348 58.7102 130.185 59.327 129.797L58.2619 128.104C58.0052 128.266 57.6509 128.377 57.0989 128.437C56.538 128.499 55.8681 128.5 55 128.5V130.5ZM38 104.5C38 111.639 40.563 118.089 43.9089 122.76C45.5824 125.096 47.4686 127.011 49.3588 128.351C51.2322 129.679 53.1935 130.5 55 130.5V128.5C53.7689 128.5 52.2114 127.922 50.5153 126.72C48.836 125.529 47.1018 123.783 45.5348 121.595C42.3994 117.218 40 111.168 40 104.5H38ZM55 79C53.2058 79 51.25 79.7796 49.3733 81.0606C47.4817 82.3517 45.5931 84.2036 43.9167 86.4792C40.5646 91.0296 38 97.3588 38 104.5H40C40 97.834 42.3978 91.9132 45.527 87.6654C47.0912 85.542 48.8229 83.8577 50.5008 82.7124C52.1937 81.557 53.7566 81 55 81V79ZM59.3548 79.7096C58.7362 79.3177 58.0408 79.1528 57.3352 79.0753C56.6385 78.9987 55.8418 79 55 79V81C55.8764 81 56.552 81.0013 57.1168 81.0633C57.6727 81.1244 58.028 81.2366 58.2846 81.3991L59.3548 79.7096ZM61.9801 94.5008C61.9424 89.7006 61.8341 86.4162 61.5072 84.1874C61.186 81.9977 60.6154 80.5081 59.3548 79.7096L58.2846 81.3991C58.7471 81.6921 59.219 82.3687 59.5283 84.4777C59.832 86.5477 59.9423 89.6946 59.9802 94.5165L61.9801 94.5008ZM60.9802 95.5086H139.02V93.5086H60.9802V95.5086ZM140.02 94.5165C140.058 89.6946 140.168 86.5477 140.472 84.4777C140.781 82.3687 141.253 81.6921 141.715 81.3991L140.645 79.7096C139.385 80.5081 138.814 81.9977 138.493 84.1874C138.166 86.4162 138.058 89.7006 138.02 94.5008L140.02 94.5165ZM141.715 81.3991C141.972 81.2366 142.327 81.1244 142.883 81.0633C143.448 81.0013 144.124 81 145 81V79C144.158 79 143.361 78.9987 142.665 79.0753C141.959 79.1528 141.264 79.3177 140.645 79.7096L141.715 81.3991ZM145 81C146.243 81 147.806 81.557 149.499 82.7124C151.177 83.8577 152.909 85.542 154.473 87.6654C157.602 91.9132 160 97.834 160 104.5H162C162 97.3588 159.435 91.0296 156.083 86.4792C154.407 84.2036 152.518 82.3517 150.627 81.0606C148.75 79.7796 146.794 79 145 79V81ZM160 104.5C160 111.168 157.601 117.218 154.465 121.595C152.898 123.783 151.164 125.529 149.485 126.72C147.789 127.922 146.231 128.5 145 128.5V130.5C146.806 130.5 148.768 129.679 150.641 128.351C152.531 127.011 154.418 125.096 156.091 122.76C159.437 118.089 162 111.639 162 104.5H160ZM145 128.5C144.132 128.5 143.462 128.499 142.901 128.437C142.349 128.377 141.995 128.266 141.738 128.104L140.673 129.797C141.29 130.185 141.982 130.348 142.683 130.425C143.376 130.501 144.166 130.5 145 130.5V128.5ZM141.738 128.104C141.302 127.829 140.85 127.213 140.537 125.352C140.227 123.515 140.093 120.735 140.038 116.496L138.038 116.522C138.093 120.747 138.226 123.674 138.565 125.684C138.899 127.671 139.476 129.044 140.673 129.797L141.738 128.104ZM139.038 115.509H60.9618V117.509H139.038V115.509Z" fill="black" mask="url(#path-1-inside-1_43_145)"/>
</svg>
