<svg width="200" height="200" viewBox="0 0 200 200" fill="none" xmlns="http://www.w3.org/2000/svg">
<mask id="path-1-inside-1_43_151" fill="white">
<path fill-rule="evenodd" clip-rule="evenodd" d="M100 145C122.091 145 140 127.091 140 105C140 82.9086 122.091 65 100 65C77.9086 65 60 82.9086 60 105C60 127.091 77.9086 145 100 145ZM100 135C116.569 135 130 121.569 130 105C130 88.4315 116.569 75 100 75C83.4315 75 70 88.4315 70 105C70 121.569 83.4315 135 100 135Z"/>
</mask>
<path fill-rule="evenodd" clip-rule="evenodd" d="M100 145C122.091 145 140 127.091 140 105C140 82.9086 122.091 65 100 65C77.9086 65 60 82.9086 60 105C60 127.091 77.9086 145 100 145ZM100 135C116.569 135 130 121.569 130 105C130 88.4315 116.569 75 100 75C83.4315 75 70 88.4315 70 105C70 121.569 83.4315 135 100 135Z" fill="#EFF793"/>
<path d="M139 105C139 126.539 121.539 144 100 144V146C122.644 146 141 127.644 141 105H139ZM100 66C121.539 66 139 83.4609 139 105H141C141 82.3563 122.644 64 100 64V66ZM61 105C61 83.4609 78.4609 66 100 66V64C77.3563 64 59 82.3563 59 105H61ZM100 144C78.4609 144 61 126.539 61 105H59C59 127.644 77.3563 146 100 146V144ZM129 105C129 121.016 116.016 134 100 134V136C117.121 136 131 122.121 131 105H129ZM100 76C116.016 76 129 88.9837 129 105H131C131 87.8792 117.121 74 100 74V76ZM71 105C71 88.9837 83.9837 76 100 76V74C82.8792 74 69 87.8792 69 105H71ZM100 134C83.9837 134 71 121.016 71 105H69C69 122.121 82.8792 136 100 136V134Z" fill="white" mask="url(#path-1-inside-1_43_151)"/>
</svg>
