<svg width="200" height="200" viewBox="0 0 200 200" fill="none" xmlns="http://www.w3.org/2000/svg">
<circle cx="100" cy="102" r="45.5" fill="#18E3F0" stroke="black"/>
<path d="M144.62 93.26C144.62 110.74 120.422 79.46 99.5895 79.46C78.7573 79.46 55.38 108.44 55.38 93.26C58.6 78.08 72.86 56.46 99.5895 56.46C127.6 56.46 142.32 79.92 144.62 93.26Z" fill="black"/>
<line x1="78.3188" y1="87.4332" x2="91.323" y2="57.2907" stroke="#7C7C7C" stroke-linecap="round"/>
<line x1="81.118" y1="86.8068" x2="94.0437" y2="56.8513" stroke="#7C7C7C" stroke-linecap="round"/>
<path d="M97.8158 80.9398C98.8216 82.8647 92.8856 87.9529 84.5573 92.3046C76.2291 96.6564 68.6624 98.6237 67.6566 96.6989C65.0399 95.1 68.72 92.0492 80.68 85.44C89.6449 80.4859 97.8158 78.54 97.8158 80.9398Z" fill="#18E3F0"/>
</svg>
