<svg width="125" height="86" viewBox="0 0 125 86" fill="none" xmlns="http://www.w3.org/2000/svg">
<path d="M5.60109 39.3173L5.60336 39.3062L5.60513 39.2951L8.67248 19.9086C8.87853 18.6064 8.92775 17.2841 8.81908 15.9701L7.60486 1.28784C12.7365 5.23564 16.1386 11.0416 17.0587 17.4792L17.6803 21.8278L17.9096 43.1001C17.9753 49.1979 20.5602 54.9969 25.0512 59.122C28.5079 62.2971 32.8864 64.288 37.5514 64.8057L51.3749 66.3397C51.7808 66.3847 52.1912 66.3655 52.591 66.2827C54.5159 65.8841 56.2669 67.4855 56.0413 69.4382L55.2742 76.0764C54.8567 79.6902 51.971 82.5211 48.3498 82.8692L43.8137 83.3053C42.208 83.4597 40.5876 83.3218 39.0311 82.8982L28.665 80.0775C18.0851 77.1986 9.53402 69.4093 5.68337 59.143C3.93187 54.4733 3.53389 49.4041 4.5352 44.5182L5.60109 39.3173Z" fill="#D9D9D9" stroke="black"/>
<path d="M118.606 39.0827L118.604 39.0716L118.602 39.0605L115.535 19.674C115.329 18.3718 115.28 17.0495 115.388 15.7355L116.602 1.05325C111.471 5.00104 108.069 10.807 107.149 17.2446L106.527 21.5932L106.298 42.8655C106.232 48.9633 103.647 54.7623 99.1561 58.8875C95.6994 62.0625 91.3208 64.0534 86.6559 64.5711L72.8323 66.1051C72.4265 66.1501 72.0161 66.1309 71.6162 66.0481C69.6914 65.6495 67.9404 67.2509 68.166 69.2036L68.933 75.8418C69.3506 79.4556 72.2363 82.2865 75.8575 82.6346L80.3936 83.0707C81.9993 83.2251 83.6197 83.0872 85.1761 82.6636L95.5422 79.8429C106.122 76.964 114.673 69.1747 118.524 58.9084C120.275 54.2387 120.673 49.1695 119.672 44.2836L118.606 39.0827Z" fill="#D9D9D9" stroke="black"/>
</svg>
