<svg width="200" height="200" viewBox="0 0 200 200" fill="none" xmlns="http://www.w3.org/2000/svg">
<rect x="0.5" y="-0.5" width="76.7778" height="98.4783" rx="38.3889" transform="matrix(1 0 0 -1 60.5555 119.478)" fill="#1A1A1A" stroke="black"/>
<path d="M100 58.9348C125.137 58.9348 145.5 79.6644 145.5 105.217C145.5 130.77 125.137 151.5 100 151.5C74.863 151.5 54.5 130.77 54.5 105.217C54.5 79.6644 74.863 58.9348 100 58.9348Z" fill="#1A1A1A" stroke="black"/>
<path d="M99.4445 151L100.559 59.4348" stroke="#3A3A3A"/>
<path d="M62.5526 79.8131L137.434 130.621" stroke="#3A3A3A"/>
<path d="M63.2644 131.675L136.722 78.7595" stroke="#3A3A3A"/>
<path d="M102.778 105.217C102.778 103.657 101.534 102.391 99.9999 102.391C98.4658 102.391 97.2222 103.657 97.2222 105.217C97.2222 106.778 98.4658 108.043 99.9999 108.043C101.534 108.043 102.778 106.778 102.778 105.217Z" fill="#3A3A3A"/>
<path d="M108.333 47C104.444 43.0435 103.333 42.5725 95.5555 41.913C93.6921 41.7551 92.5232 41.7295 91.8424 41.8735C88.0403 42.6777 97.9738 52.1612 96.5073 48.5623C95.854 46.9589 94.3793 44.1739 96.6668 44.1739C105.872 44.1739 112.222 50.9565 108.333 47Z" fill="#D9D9D9"/>
</svg>
