<svg width="92" height="131" viewBox="0 0 92 131" fill="none" xmlns="http://www.w3.org/2000/svg">
<rect x="0.5" y="-0.5" width="76.7778" height="98.4783" rx="38.3889" transform="matrix(1 0 0 -1 6.55554 98.4783)" fill="#1A1A1A" stroke="black"/>
<path d="M46 37.9348C71.137 37.9348 91.5 58.6644 91.5 84.2174C91.5 109.77 71.137 130.5 46 130.5C20.863 130.5 0.5 109.77 0.5 84.2174C0.5 58.6644 20.863 37.9348 46 37.9348Z" fill="#1A1A1A" stroke="black"/>
<path d="M45.4445 130L46.5594 38.4348" stroke="#3A3A3A"/>
<path d="M8.55261 58.8131L83.4342 109.621" stroke="#3A3A3A"/>
<path d="M9.26434 110.675L82.7223 57.7595" stroke="#3A3A3A"/>
<path d="M48.7778 84.2174C48.7778 82.6566 47.5341 81.3913 46 81.3913C44.4659 81.3913 43.2222 82.6566 43.2222 84.2174C43.2222 85.7782 44.4659 87.0435 46 87.0435C47.5341 87.0435 48.7778 85.7782 48.7778 84.2174Z" fill="#3A3A3A"/>
<path d="M54.3334 26C50.4445 22.0435 49.3333 21.5725 41.5556 20.913C39.6922 20.7551 38.5233 20.7295 37.8425 20.8735C34.0403 21.6777 43.9738 31.1612 42.5074 27.5623C41.854 25.9589 40.3793 23.1739 42.6669 23.1739C51.8716 23.1739 58.2223 29.9565 54.3334 26Z" fill="#D9D9D9"/>
</svg>
