<svg width="91" height="110" viewBox="0 0 91 110" fill="none" xmlns="http://www.w3.org/2000/svg">
<path d="M87.8654 46.5042C84.8012 36.5387 82.3424 28.6789 79.9405 22.485C77.5378 16.2892 75.2074 11.8026 72.4184 8.56291C66.8853 2.13581 59.4467 0.5 45.5 0.5C31.5306 0.5 23.7437 2.46602 18.0026 9.13904C15.1115 12.4995 12.7136 17.0829 10.3326 23.2926C7.95216 29.501 5.60181 37.2986 2.78915 47.0683C1.25909 52.3828 0.358921 57.8746 0.92144 63.3247C2.27554 76.4443 6.86946 87.9918 14.3886 96.2515C21.8994 104.502 32.3523 109.5 45.5 109.5C58.5404 109.5 68.9296 104.583 76.4264 96.4534C83.9315 88.3146 88.5615 76.9279 90.0096 63.9667C90.6643 58.1067 89.6153 52.1951 87.8654 46.5042Z" fill="#FF9900" stroke="black"/>
<rect x="-0.0122121" y="-0.349778" width="4.502" height="14.527" rx="1.75" transform="matrix(0.689301 -0.724475 -0.738149 -0.674638 73.5152 31.1126)" fill="#FFC163" stroke="black" stroke-width="0.5"/>
<rect x="0.356862" y="0.0124594" width="4.502" height="14.527" rx="1.75" transform="matrix(0.689301 0.724475 0.738149 -0.674638 14.2572 27.8502)" fill="#FFC163" stroke="black" stroke-width="0.5"/>
<rect x="0.356185" y="0.0249019" width="3.4988" height="14.5375" transform="matrix(0.663547 0.748134 0.761192 -0.648527 62.7842 98.8481)" fill="#FFC163" stroke="black" stroke-width="0.5"/>
<rect x="-0.0244112" y="-0.349165" width="3.4988" height="14.5375" transform="matrix(0.663547 -0.748134 -0.761192 -0.648527 26.339 101.478)" fill="#FFC163" stroke="black" stroke-width="0.5"/>
<path d="M84.4334 65.4054C84.4334 54.8912 83.1683 43.1116 77.8036 33.973C72.4668 24.8818 63.0338 18.3378 46.5112 18.3378C28.1983 18.3378 18.399 24.8975 13.1346 33.9708C7.83676 43.1017 7.07227 54.8703 7.07227 65.4054C7.07227 75.7786 12.0945 85.565 19.5596 92.7672C27.0265 99.9711 36.8919 104.545 46.5112 104.545C56.1267 104.545 65.6094 99.9744 72.6952 92.7762C79.7795 85.5796 84.4334 75.7913 84.4334 65.4054Z" fill="#ED8E00" stroke="black"/>
<rect x="0.5" y="-0.5" width="14.1667" height="84.2252" transform="matrix(1 0 0 -1 38.4222 103.054)" fill="#FF9900" stroke="black"/>
<rect x="0.25" y="-0.25" width="3.54444" height="14.3649" transform="matrix(1 0 0 -1 7.07782 68.8694)" fill="#D9D9D9" stroke="black" stroke-width="0.5"/>
<rect x="0.25" y="-0.25" width="3.54444" height="14.3649" transform="matrix(1 0 0 -1 80.8888 68.8694)" fill="#D9D9D9" stroke="black" stroke-width="0.5"/>
</svg>
