<svg width="200" height="200" viewBox="0 0 200 200" fill="none" xmlns="http://www.w3.org/2000/svg">
<path d="M55.0587 28.4792L55.6802 32.8278L55.9095 54.1001C55.9752 60.1979 58.5601 65.9969 63.0511 70.122C66.5078 73.2971 70.8864 75.288 75.5513 75.8056L89.3749 77.3397C89.7807 77.3847 90.1911 77.3655 90.591 77.2827C92.5159 76.8841 94.2668 78.4855 94.0412 80.4382L93.2742 87.0764C92.8566 90.6902 89.9709 93.5211 86.3497 93.8692L81.8136 94.3053C80.2079 94.4597 78.5876 94.3217 77.0311 93.8982L66.665 91.0775C56.085 88.1986 47.534 80.4092 43.6833 70.143C41.9318 65.4733 41.5338 60.4041 42.5351 55.5182L43.601 50.3173L43.6033 50.3062L43.6051 50.2951L46.6724 30.9086C46.8785 29.6064 46.9277 28.2841 46.819 26.9701L45.6048 12.2878C50.7364 16.2356 54.1386 22.0416 55.0587 28.4792Z" fill="#D9D9D9" stroke="black"/>
<path d="M145.149 28.2446L144.527 32.5932L144.298 53.8655C144.232 59.9633 141.647 65.7623 137.156 69.8875C133.699 73.0625 129.321 75.0534 124.656 75.5711L110.832 77.1051C110.427 77.1501 110.016 77.1309 109.616 77.0481C107.691 76.6495 105.94 78.2509 106.166 80.2036L106.933 86.8418C107.351 90.4556 110.236 93.2865 113.858 93.6346L118.394 94.0707C119.999 94.2251 121.62 94.0872 123.176 93.6636L133.542 90.8429C144.122 87.964 152.673 80.1747 156.524 69.9084C158.275 65.2387 158.673 60.1695 157.672 55.2836L156.606 50.0827L156.604 50.0716L156.602 50.0605L153.535 30.674C153.329 29.3718 153.28 28.0495 153.388 26.7355L154.602 12.0532C149.471 16.001 146.069 21.807 145.149 28.2446Z" fill="#D9D9D9" stroke="black"/>
</svg>
