<svg width="100" height="100" viewBox="0 0 100 100" fill="none" xmlns="http://www.w3.org/2000/svg">
<mask id="mask0_67_132" style="mask-type:alpha" maskUnits="userSpaceOnUse" x="0" y="0" width="100" height="100">
<circle cx="15" cy="15" r="12.5" fill="#FFB800" stroke="black" stroke-width="5"/>
<circle cx="85" cy="15" r="12.5" fill="#FFB800" stroke="black" stroke-width="5"/>
<circle cx="50" cy="52" r="45.5" fill="#FFB800" stroke="black" stroke-width="5"/>
</mask>
<g mask="url(#mask0_67_132)">
<rect x="-24" y="-21" width="148" height="148" rx="4" fill="#C16100" stroke="#733900" stroke-width="2"/>
<path d="M-1.04881 -17.41C-1.78196 28.683 -8.53947 30.9913 -5.92315 59.0971C-3.30683 87.2028 -5.34856 90.84 -6.69446 105.789C-7.77118 117.748 -6.90038 122.608 -6.33039 123.543" stroke="#733900" stroke-width="2" stroke-linecap="round"/>
<path d="M20.1389 -16.301C25.7639 17.299 17.9514 28.699 20.1389 35.749C22.3264 42.799 16.8577 51.199 20.1389 75.049C22.7639 94.129 21.2327 115.199 20.1389 123.349" stroke="#733900" stroke-width="2" stroke-linecap="round"/>
<path d="M63.1934 123.501C55.3978 89.8646 66.225 78.4524 63.1934 71.3948C60.1617 64.3373 67.7408 55.9282 63.1934 32.0526C59.5554 12.9521 61.6776 -8.14051 63.1934 -16.2993" stroke="#733900" stroke-width="2" stroke-linecap="round"/>
<path d="M40.1562 -16.1494C42.4062 5.69059 41.0937 20.1506 40.1562 24.6506L42.6562 53.0006L40.1562 80.9006L42.6562 120.351" stroke="#733900" stroke-width="2" stroke-linecap="round"/>
<path d="M82.8135 -15.0991C85.0635 6.74088 83.751 21.2009 82.8135 25.7009L85.3135 54.0509L82.8135 81.9509L85.3135 121.401" stroke="#733900" stroke-width="2" stroke-linecap="round"/>
</g>
<path fill-rule="evenodd" clip-rule="evenodd" d="M24.3423 11.4257C22.9038 7.66811 19.2635 5 15 5C9.47715 5 5 9.47715 5 15C5 19.0677 7.42864 22.5681 10.915 24.1303C9.94059 25.4943 9.03584 26.9115 8.2059 28.3767C3.33598 25.8983 0 20.8387 0 15C0 6.71573 6.71573 0 15 0C21.1342 0 26.4083 3.68209 28.7328 8.95662C27.2226 9.70422 25.7574 10.529 24.3423 11.4257Z" fill="black"/>
<path fill-rule="evenodd" clip-rule="evenodd" d="M88.8179 24.1303C92.3042 22.5681 94.7328 19.0677 94.7328 15C94.7328 9.47715 90.2557 5 84.7328 5C80.4694 5 76.829 7.66811 75.3905 11.4257C73.9754 10.529 72.5102 9.70422 71 8.95662C73.3245 3.68209 78.5987 0 84.7328 0C93.0171 0 99.7328 6.71573 99.7328 15C99.7328 20.8387 96.3969 25.8983 91.5269 28.3767C90.697 26.9115 89.7922 25.4943 88.8179 24.1303Z" fill="black"/>
<circle cx="50" cy="52" r="45.5" stroke="black" stroke-width="5"/>
</svg>
