<svg width="200" height="200" viewBox="0 0 200 200" fill="none" xmlns="http://www.w3.org/2000/svg">
<path d="M99.9134 57L107.389 65.5509L104.533 79.3866H95.2935L92.4383 65.5509L99.9134 57Z" fill="#CEB324"/>
<path d="M81.1967 61.4385L91.8181 66.0028L94.9189 80.2152L86.2139 84.4346L77.7332 72.8299L81.1967 61.4385Z" fill="#CEB324"/>
<path d="M65.9711 73.6973L77.453 73.168L86.0416 84.6866L79.8677 92.3347L67.4634 85.543L65.9711 73.6973Z" fill="#CEB324"/>
<path d="M57.1146 91.5313L67.3056 86.0076L79.7727 92.674L77.2868 102.318L63.2833 101.611L57.1146 91.5313Z" fill="#CEB324"/>
<path d="M142.885 91.5312L136.717 101.611L122.713 102.318L120.227 92.674L132.694 86.0076L142.885 91.5312Z" fill="#CEB324"/>
<path d="M133.77 73.6973L132.277 85.543L119.873 92.3347L113.699 84.6866L122.288 73.168L133.77 73.6973Z" fill="#CEB324"/>
<path d="M118.518 61.4385L121.981 72.83L113.501 84.4346L104.796 80.2152L107.896 66.0028L118.518 61.4385Z" fill="#CEB324"/>
<path d="M99.9134 147L107.389 138.449L104.533 124.613H95.2935L92.4383 138.449L99.9134 147Z" fill="#CEB324"/>
<path d="M81.1967 142.656L91.8181 138.092L94.9189 123.879L86.2139 119.66L77.7332 131.265L81.1967 142.656Z" fill="#CEB324"/>
<path d="M65.9711 130.397L77.453 130.927L86.0416 119.408L79.8677 111.76L67.4634 118.552L65.9711 130.397Z" fill="#CEB324"/>
<path d="M57.1146 112.563L67.3056 118.087L79.7727 111.421L77.2868 101.777L63.2833 102.483L57.1146 112.563Z" fill="#CEB324"/>
<path d="M142.885 112.563L136.717 102.483L122.713 101.777L120.227 111.421L132.694 118.087L142.885 112.563Z" fill="#CEB324"/>
<path d="M133.77 130.397L132.277 118.552L119.873 111.76L113.699 119.408L122.288 130.927L133.77 130.397Z" fill="#CEB324"/>
<path d="M118.518 142.656L121.981 131.265L113.501 119.66L104.796 123.879L107.896 138.092L118.518 142.656Z" fill="#CEB324"/>
<path d="M99.9134 57L107.389 65.5509L104.533 79.3866H95.2935L92.4383 65.5509L99.9134 57Z" fill="#CEB324"/>
<path d="M81.1967 61.4385L91.8181 66.0028L94.9189 80.2152L86.2139 84.4346L77.7332 72.8299L81.1967 61.4385Z" fill="#CEB324"/>
<path d="M65.9711 73.6973L77.453 73.168L86.0416 84.6866L79.8677 92.3347L67.4634 85.543L65.9711 73.6973Z" fill="#CEB324"/>
<path d="M57.1146 91.5313L67.3056 86.0076L79.7727 92.674L77.2868 102.318L63.2833 101.611L57.1146 91.5313Z" fill="#CEB324"/>
<path d="M142.885 91.5312L136.717 101.611L122.713 102.318L120.227 92.674L132.694 86.0076L142.885 91.5312Z" fill="#CEB324"/>
<path d="M133.77 73.6973L132.277 85.543L119.873 92.3347L113.699 84.6866L122.288 73.168L133.77 73.6973Z" fill="#CEB324"/>
<path d="M118.518 61.4385L121.981 72.83L113.501 84.4346L104.796 80.2152L107.896 66.0028L118.518 61.4385Z" fill="#CEB324"/>
<path d="M99.9134 147L107.389 138.449L104.533 124.613H95.2935L92.4383 138.449L99.9134 147Z" fill="#CEB324"/>
<path d="M81.1967 142.656L91.8181 138.092L94.9189 123.879L86.2139 119.66L77.7332 131.265L81.1967 142.656Z" fill="#CEB324"/>
<path d="M65.9711 130.397L77.453 130.927L86.0416 119.408L79.8677 111.76L67.4634 118.552L65.9711 130.397Z" fill="#CEB324"/>
<path d="M57.1146 112.563L67.3056 118.087L79.7727 111.421L77.2868 101.777L63.2833 102.483L57.1146 112.563Z" fill="#CEB324"/>
<path d="M142.885 112.563L136.717 102.483L122.713 101.777L120.227 111.421L132.694 118.087L142.885 112.563Z" fill="#CEB324"/>
<path d="M133.77 130.397L132.277 118.552L119.873 111.76L113.699 119.408L122.288 130.927L133.77 130.397Z" fill="#CEB324"/>
<path d="M118.518 142.656L121.981 131.265L113.501 119.66L104.796 123.879L107.896 138.092L118.518 142.656Z" fill="#CEB324"/>
</svg>
