<svg width="200" height="200" viewBox="0 0 200 200" fill="none" xmlns="http://www.w3.org/2000/svg">
<path d="M71.8867 118.978H128.622C135.195 118.978 141.25 115.407 144.43 109.655C146.641 105.655 147.254 100.965 146.145 96.531L133.727 46.9081C129.844 31.3871 115.896 20.5 99.897 20.5C83.5206 20.5 69.3503 31.8949 65.836 47.8898L54.8671 97.8133C54.0635 101.471 54.4595 105.29 55.9963 108.704C58.8104 114.957 65.0299 118.978 71.8867 118.978Z" fill="#D10000" stroke="black"/>
<g filter="url(#filter0_d_43_52)">
<ellipse cx="45.8654" cy="45.7826" rx="45.8654" ry="45.7826" transform="matrix(1 0 0 -1 54.6346 150)" fill="#DF0000"/>
<path d="M100.5 57.9348C126.106 57.9348 146.865 78.6554 146.865 104.217C146.865 129.779 126.106 150.5 100.5 150.5C74.894 150.5 54.1346 129.779 54.1346 104.217C54.1346 78.6554 74.894 57.9348 100.5 57.9348Z" stroke="black"/>
</g>
<ellipse cx="15.2885" cy="15" rx="15.2885" ry="15" transform="matrix(1 0 0 -1 21 119)" fill="#D9D9D9" stroke="black"/>
<ellipse cx="15.2885" cy="15" rx="15.2885" ry="15" transform="matrix(1 0 0 -1 149.423 119)" fill="#D9D9D9" stroke="black"/>
<line y1="-2" x2="10" y2="-2" transform="matrix(0 -1 -1 0 50.5577 109)" stroke="black" stroke-width="4"/>
<line y1="-2" x2="10" y2="-2" transform="matrix(0 -1 -1 0 146.365 109)" stroke="black" stroke-width="4"/>
<path d="M54.6346 109H76.077C77.1815 109 78.077 108.105 78.077 107V101C78.077 99.8954 77.1815 99 76.077 99H54.6346V109Z" fill="black"/>
<path d="M146.365 109H124.923C123.818 109 122.923 108.105 122.923 107V101C122.923 99.8954 123.818 99 124.923 99H146.365V109Z" fill="black"/>
<path d="M42.9654 109.933C40.8116 105.401 39.5709 105.969 38.0404 106.669C36.5099 107.369 35.2692 107.937 37.4229 112.468C38.6124 114.971 40.8174 116.432 42.3479 115.732C43.8784 115.032 44.1548 112.435 42.9654 109.933Z" fill="black"/>
<path d="M163.235 112.468C165.388 107.937 164.148 107.369 162.617 106.669C161.087 105.969 159.846 105.401 157.692 109.933C156.503 112.435 156.779 115.032 158.31 115.732C159.84 116.432 162.045 114.971 163.235 112.468Z" fill="black"/>
<path d="M36.7976 108.5L42.4045 109.337C52.1075 110.786 61.0258 103.964 61.9628 94.3757L62.1074 92.8963C63.0361 83.3943 71.8113 76.5906 81.4449 77.9034L100.5 80.5" stroke="white" stroke-width="2" stroke-linecap="round"/>
<path d="M163.692 108L159.471 108.79C149.578 110.64 140.242 103.771 139.28 93.9345L139.189 92.9995C138.265 83.5463 129.571 76.7536 119.977 77.9899L100.5 80.5" stroke="white" stroke-width="2" stroke-linecap="round"/>
<path d="M100.5 80V96L101.734 104.775C102.261 108.527 101.8 112.351 100.397 115.87V115.87C98.8027 119.867 98.4289 124.247 99.3227 128.456L99.8445 130.913C100.28 132.965 100.5 135.058 100.5 137.156V138" stroke="white" stroke-width="2"/>
<path d="M99.5875 90.7381C99.6975 91.9307 101.43 91.957 101.576 90.7683L102.715 81.5L105.423 80.9822C106.614 80.7544 106.448 79 105.235 79H96.334C95.1261 79 94.9535 80.7438 96.1379 80.9806L98.736 81.5L99.5875 90.7381Z" fill="black" fill-opacity="0.75"/>
<path d="M77.7013 26.2347C78.124 26.5901 78.1785 27.2209 77.823 27.6436C77.4676 28.0663 76.8367 28.1208 76.4141 27.7653L77.7013 26.2347ZM99.7643 140.011L100.573 140.599L99.7643 140.011ZM58.581 131.201L57.6646 131.602L58.581 131.201ZM62.9995 138.094L63.7458 137.428L62.9995 138.094ZM74.5646 24.9034L73.921 25.6687L74.5646 24.9034ZM64.6297 27.1128L63.8126 26.5363L64.6297 27.1128ZM63.1625 31.3057L62.1642 31.247L63.1625 31.3057ZM60.9159 58.7673L61.8912 58.9882L60.9159 58.7673ZM61.996 51.1439L60.9977 51.0852L61.996 51.1439ZM58.3387 70.146L59.314 70.3669L58.3387 70.146ZM56.5876 75.7097L57.5136 76.0873L56.5876 75.7097ZM63.4795 138.632L62.7331 139.298L63.4795 138.632ZM65.3482 26.0946L66.1652 26.6712L65.3482 26.0946ZM61.8912 58.9882L59.314 70.3669L57.3634 69.9251L59.9406 58.5464L61.8912 58.9882ZM55.0004 90.8143L56.352 118.331L54.3544 118.429L53.0028 90.9124L55.0004 90.8143ZM66.1652 26.6712L65.4468 27.6894L63.8126 26.5363L64.5311 25.5181L66.1652 26.6712ZM64.1608 31.3644L62.9942 51.2026L60.9977 51.0852L62.1642 31.247L64.1608 31.3644ZM76.4141 27.7653L73.921 25.6687L75.2082 24.138L77.7013 26.2347L76.4141 27.7653ZM95.0727 143.119L96.0505 142.508L97.1097 144.205L96.1319 144.815L95.0727 143.119ZM81.4657 145.355L88.4769 145.126L88.5422 147.125L81.5311 147.354L81.4657 145.355ZM59.0229 129.715L59.4974 130.801L57.6646 131.602L57.1901 130.515L59.0229 129.715ZM63.7458 137.428L64.2258 137.966L62.7331 139.298L62.2532 138.759L63.7458 137.428ZM98.0953 140.604L98.9558 139.422L100.573 140.599L99.7122 141.781L98.0953 140.604ZM99.5 137.75L99.5 136.5L101.5 136.5L101.5 137.75L99.5 137.75ZM98.9558 139.422C99.3095 138.936 99.5 138.351 99.5 137.75L101.5 137.75C101.5 138.774 101.175 139.771 100.573 140.599L98.9558 139.422ZM59.4974 130.801C60.5544 133.221 61.9883 135.458 63.7458 137.428L62.2532 138.759C60.355 136.631 58.8062 134.215 57.6646 131.602L59.4974 130.801ZM73.2192 144.049C75.8602 145.004 78.6589 145.447 81.4657 145.355L81.5311 147.354C78.4706 147.454 75.419 146.971 72.5393 145.93L73.2192 144.049ZM96.1319 144.815C93.8496 146.24 91.2314 147.037 88.5422 147.125L88.4769 145.126C90.8139 145.05 93.0892 144.357 95.0727 143.119L96.1319 144.815ZM96.0505 142.508C96.8479 142.01 97.5421 141.364 98.0953 140.604L99.7122 141.781C99.0081 142.748 98.1245 143.571 97.1097 144.205L96.0505 142.508ZM73.921 25.6687C73.3256 25.168 72.6275 24.8043 71.876 24.6032L72.393 22.6712C73.4275 22.948 74.3886 23.4488 75.2082 24.138L73.921 25.6687ZM65.4468 27.6894C64.6839 28.7705 64.2384 30.0435 64.1608 31.3644L62.1642 31.247C62.2638 29.5538 62.8347 27.9221 63.8126 26.5363L65.4468 27.6894ZM57.5136 76.0873C55.611 80.754 54.7532 85.7807 55.0004 90.8143L53.0028 90.9124C52.7413 85.5872 53.6487 80.2693 55.6616 75.3322L57.5136 76.0873ZM59.9406 58.5464C60.4965 56.0924 60.85 53.597 60.9977 51.0852L62.9942 51.2026C62.8401 53.8236 62.4712 56.4276 61.8912 58.9882L59.9406 58.5464ZM59.314 70.3669C58.8717 72.3198 58.2695 74.2331 57.5136 76.0873L55.6616 75.3322C56.3761 73.5795 56.9453 71.7711 57.3634 69.9251L59.314 70.3669ZM56.352 118.331C56.5448 122.256 57.4498 126.113 59.0229 129.715L57.1901 130.515C55.52 126.692 54.5591 122.596 54.3544 118.429L56.352 118.331ZM72.5393 145.93C68.7705 144.568 65.4004 142.288 62.7331 139.298L64.2258 137.966C66.672 140.709 69.7628 142.8 73.2192 144.049L72.5393 145.93ZM64.5311 25.5181C66.2967 23.016 69.4347 21.8796 72.393 22.6712L71.876 24.6032C69.7272 24.0282 67.4477 24.8536 66.1652 26.6712L64.5311 25.5181Z" fill="white"/>
<defs>
<filter id="filter0_d_43_52" x="49.6346" y="57.4348" width="101.731" height="101.565" filterUnits="userSpaceOnUse" color-interpolation-filters="sRGB">
<feFlood flood-opacity="0" result="BackgroundImageFix"/>
<feColorMatrix in="SourceAlpha" type="matrix" values="0 0 0 0 0 0 0 0 0 0 0 0 0 0 0 0 0 0 127 0" result="hardAlpha"/>
<feOffset dy="4"/>
<feGaussianBlur stdDeviation="2"/>
<feComposite in2="hardAlpha" operator="out"/>
<feColorMatrix type="matrix" values="0 0 0 0 0 0 0 0 0 0 0 0 0 0 0 0 0 0 0.25 0"/>
<feBlend mode="normal" in2="BackgroundImageFix" result="effect1_dropShadow_43_52"/>
<feBlend mode="normal" in="SourceGraphic" in2="effect1_dropShadow_43_52" result="shape"/>
</filter>
</defs>
</svg>
