<svg width="200" height="200" viewBox="0 0 200 200" fill="none" xmlns="http://www.w3.org/2000/svg">
<path d="M49.708 105.292L50.0049 105.37L50.0703 105.67L53.9403 123.393C58.798 145.64 78.4949 161.5 101.266 161.5C125.026 161.5 145.278 144.267 149.082 120.814L151.534 105.696L151.577 105.43L151.823 105.32L155.338 103.749L158.44 86.8644L151.804 83.5516L151.591 83.4452L151.539 83.2126L151.11 81.28C146.084 58.6232 125.993 42.5 102.785 42.5H102.778H102.771H102.764H102.756H102.749H102.742H102.735H102.728H102.72H102.713H102.706H102.699H102.692H102.685H102.677H102.67H102.663H102.656H102.649H102.642H102.634H102.627H102.62H102.613H102.606H102.598H102.591H102.584H102.577H102.57H102.563H102.555H102.548H102.541H102.534H102.527H102.52H102.512H102.505H102.498H102.491H102.484H102.476H102.469H102.462H102.455H102.448H102.441H102.433H102.426H102.419H102.412H102.405H102.398H102.39H102.383H102.376H102.369H102.362H102.354H102.347H102.34H102.333H102.326H102.319H102.311H102.304H102.297H102.29H102.283H102.276H102.268H102.261H102.254H102.247H102.24H102.232H102.225H102.218H102.211H102.204H102.197H102.189H102.182H102.175H102.168H102.161H102.154H102.146H102.139H102.132H102.125H102.118H102.11H102.103H102.096H102.089H102.082H102.075H102.067H102.06H102.053H102.046H102.039H102.032H102.024H102.017H102.01H102.003H101.996H101.988H101.981H101.974H101.967H101.96H101.953H101.945H101.938H101.931H101.924H101.917H101.91H101.902H101.895H101.888H101.881H101.874H101.866H101.859H101.852H101.845H101.838H101.831H101.823H101.816H101.809H101.802H101.795H101.787H101.78H101.773H101.766H101.759H101.752H101.744H101.737H101.73H101.723H101.716H101.709H101.701H101.694H101.687H101.68H101.673H101.665H101.658H101.651H101.644H101.637H101.63H101.622H101.615H101.608H101.601H101.594H101.587H101.579H101.572H101.565H101.558H101.551H101.543H101.536H101.529H101.522H101.515H101.508H101.5H101.493H101.486H101.479H101.472H101.465H101.457H101.45H101.443H101.436H101.429H101.421H101.414H101.407H101.4H101.393H101.386H101.378H101.371H101.364H101.357H101.35H101.342H101.335H101.328H101.321H101.314H101.307H101.299H101.292H101.285H101.278H101.271H101.264H101.256H101.249H101.242H101.235H101.228H101.22H101.213H101.206H101.199H101.192H101.185H101.177H101.17H101.163H101.156H101.149H101.142H101.134H101.127H101.12H101.113H101.106H101.098H101.091H101.084H101.077H101.07H101.063H101.055H101.048H101.041H101.034H101.027H101.019H101.012H101.005H100.998H100.991H100.984H100.976H100.969H100.962H100.955H100.948H100.94H100.933H100.926H100.919H100.912H100.905H100.897H100.89H100.883H100.876H100.869H100.862H100.854H100.847H100.84H100.833H100.826H100.818H100.811H100.804H100.797H100.79H100.783H100.775H100.768H100.761H100.754H100.747H100.739H100.732H100.725H100.718H100.711H100.704H100.696H100.689H100.682H100.675H100.668H100.66H100.653H100.646H100.639H100.632H100.625H100.617H100.61H100.603H100.596H100.589H100.581H100.574H100.567H100.56H100.553H100.546H100.538H100.531H100.524H100.517H100.51H100.502H100.495H100.488H100.481H100.474H100.467H100.459H100.452H100.445H100.438H100.431H100.423H100.416H100.409H100.402H100.395H100.388H100.38H100.373H100.366H100.359H100.352H100.344H100.337H100.33H100.323H100.316H100.309H100.301H100.294H100.287H100.28H100.273H100.265H100.258H100.251H100.244H100.237H100.23H100.222H100.215H100.208H100.201H100.194H100.186H100.179H100.172H100.165H100.158H100.151H100.143H100.136H100.129H100.122H100.115H100.107H100.1H100.093H100.086H100.079H100.072H100.064H100.057H100.05H100.043H100.036H100.028H100.021H100.014H100.007H99.9997H99.9925H99.9853H99.9781H99.9709H99.9637H99.9566H99.9494H99.9422H99.935H99.9278H99.9206H99.9134H99.9063H99.8991H99.8919H99.8847H99.8775H99.8703H99.8632H99.856H99.8488H99.8416H99.8344H99.8272H99.82H99.8128H99.8057H99.7985H99.7913H99.7841H99.7769H99.7697H99.7625H99.7554H99.7482H99.741H99.7338H99.7266H99.7194H99.7122H99.7051H99.6979H99.6907H99.6835H99.6763H99.6691H99.6619H99.6547H99.6476H99.6404H99.6332H99.626H99.6188H99.6116H99.6044H99.5972H99.5901H99.5829H99.5757H99.5685H99.5613H99.5541H99.5469H99.5397H99.5325H99.5254H99.5182H99.511H99.5038H99.4966H99.4894H99.4822H99.475L99.4678 42.5H99.4607H99.4535H99.4463H99.4391H99.4319H99.4247H99.4175H99.4103H99.4031H99.396H99.3888H99.3816H99.3744H99.3672H99.36H99.3528H99.3456H99.3384H99.3312H99.3241H99.3169H99.3097H99.3025H99.2953H99.2881H99.2809H99.2737H99.2665H99.2593H99.2522H99.245H99.2378H99.2306H99.2234H99.2162H99.209H99.2018H99.1946H99.1874H99.1802H99.1731H99.1659H99.1587H99.1515H99.1443H99.1371H99.1299H99.1227H99.1155H99.1083C77.2264 42.5 57.9399 56.8673 51.6777 77.834L50.0609 83.2474L49.9922 83.4774L49.7697 83.5676L41.5429 86.9044L43.6004 103.7L49.708 105.292Z" fill="#CEB324" stroke="black"/>
<path d="M100 149.752C109.102 149.752 117.334 147.419 123.279 144.236C126.252 142.645 128.636 140.849 130.271 139.042C131.913 137.228 132.755 135.451 132.755 133.888C132.755 132.358 132.528 131.235 132.13 130.422C131.739 129.622 131.173 129.099 130.439 128.773C129.69 128.44 128.742 128.302 127.586 128.325C126.432 128.349 125.102 128.534 123.609 128.82C122.077 129.114 120.379 129.515 118.543 129.949C113.268 131.195 106.859 132.71 100 132.71C93.1415 132.71 86.7325 131.195 81.4576 129.949C79.622 129.515 77.9237 129.114 76.3916 128.82C74.8983 128.534 73.569 128.349 72.4148 128.325C71.2584 128.302 70.3106 128.44 69.562 128.773C68.8274 129.099 68.2616 129.622 67.8706 130.422C67.4729 131.235 67.2457 132.358 67.2457 133.888C67.2457 135.451 68.088 137.228 69.7298 139.042C71.3643 140.849 73.7489 142.645 76.7218 144.236C82.6661 147.419 90.8985 149.752 100 149.752Z" fill="#CEB324" stroke="black"/>
<g filter="url(#filter0_ii_47_158)">
<path d="M100.716 44.5175C79.8146 44.5175 61.2849 57.9613 54.7998 77.8309L52.8 83.958L46.9 86.4755L48.5091 103.259L52.8 104.937L53.8819 107.97C60.9523 127.789 79.7216 141.021 100.764 141.021H102.48C123.835 141.021 142.568 126.775 148.273 106.196V106.196L151.491 103.259L153.1 86.8951L148.273 83.958L147.63 81.333C142.339 59.7195 122.967 44.5175 100.716 44.5175V44.5175Z" fill="black"/>
</g>
<path d="M52.9822 104.471L53.1944 104.554L53.271 104.769L54.3529 107.802C61.3522 127.422 79.933 140.521 100.764 140.521H102.48C123.61 140.521 142.146 126.425 147.791 106.062L147.829 105.923L147.936 105.826L151.012 103.019L152.572 87.1589L148.013 84.3852L147.836 84.2777L147.787 84.0769L147.145 81.4519C141.909 60.0621 122.737 45.0175 100.716 45.0175C80.0309 45.0175 61.6931 58.3222 55.2751 77.9861L53.2753 84.1131L53.2049 84.3288L52.9963 84.4179L47.4326 86.7918L48.9775 102.905L52.9822 104.471Z" stroke="black"/>
<defs>
<filter id="filter0_ii_47_158" x="46.9" y="38.5175" width="106.2" height="108.503" filterUnits="userSpaceOnUse" color-interpolation-filters="sRGB">
<feFlood flood-opacity="0" result="BackgroundImageFix"/>
<feBlend mode="normal" in="SourceGraphic" in2="BackgroundImageFix" result="shape"/>
<feColorMatrix in="SourceAlpha" type="matrix" values="0 0 0 0 0 0 0 0 0 0 0 0 0 0 0 0 0 0 127 0" result="hardAlpha"/>
<feOffset dy="6"/>
<feGaussianBlur stdDeviation="5"/>
<feComposite in2="hardAlpha" operator="arithmetic" k2="-1" k3="1"/>
<feColorMatrix type="matrix" values="0 0 0 0 1 0 0 0 0 1 0 0 0 0 1 0 0 0 0.25 0"/>
<feBlend mode="normal" in2="shape" result="effect1_innerShadow_47_158"/>
<feColorMatrix in="SourceAlpha" type="matrix" values="0 0 0 0 0 0 0 0 0 0 0 0 0 0 0 0 0 0 127 0" result="hardAlpha"/>
<feOffset dy="-6"/>
<feGaussianBlur stdDeviation="5"/>
<feComposite in2="hardAlpha" operator="arithmetic" k2="-1" k3="1"/>
<feColorMatrix type="matrix" values="0 0 0 0 1 0 0 0 0 1 0 0 0 0 1 0 0 0 0.25 0"/>
<feBlend mode="normal" in2="effect1_innerShadow_47_158" result="effect2_innerShadow_47_158"/>
</filter>
</defs>
</svg>
