<svg width="122" height="50" viewBox="0 0 122 50" fill="none" xmlns="http://www.w3.org/2000/svg">
<mask id="path-1-inside-1_18_137" fill="white">
<path fill-rule="evenodd" clip-rule="evenodd" d="M21.9618 36.5086C21.8519 44.9734 21.4277 47.9228 19.7944 48.9505C18.921 49.5 17.7018 49.5 16 49.5C9.92487 49.5 0 38.3071 0 24.5C0 10.6929 9.92487 0 16 0C17.7183 0 18.9446 0 19.8197 0.554345C21.5428 1.64587 21.9046 4.88665 21.9802 14.5086H100.02C100.095 4.88665 100.457 1.64587 102.18 0.554345C103.055 0 104.282 0 106 0C112.075 0 122 10.6929 122 24.5C122 38.3071 112.075 49.5 106 49.5C104.298 49.5 103.079 49.5 102.206 48.9505C100.572 47.9228 100.148 44.9734 100.038 36.5086H21.9618Z"/>
</mask>
<path fill-rule="evenodd" clip-rule="evenodd" d="M21.9618 36.5086C21.8519 44.9734 21.4277 47.9228 19.7944 48.9505C18.921 49.5 17.7018 49.5 16 49.5C9.92487 49.5 0 38.3071 0 24.5C0 10.6929 9.92487 0 16 0C17.7183 0 18.9446 0 19.8197 0.554345C21.5428 1.64587 21.9046 4.88665 21.9802 14.5086H100.02C100.095 4.88665 100.457 1.64587 102.18 0.554345C103.055 0 104.282 0 106 0C112.075 0 122 10.6929 122 24.5C122 38.3071 112.075 49.5 106 49.5C104.298 49.5 103.079 49.5 102.206 48.9505C100.572 47.9228 100.148 44.9734 100.038 36.5086H21.9618Z" fill="white"/>
<path d="M19.7944 48.9505L20.327 49.7969L20.327 49.7968L19.7944 48.9505ZM21.9618 36.5086V35.5086H20.9747L20.9618 36.4956L21.9618 36.5086ZM19.8197 0.554345L19.2846 1.39912V1.39912L19.8197 0.554345ZM21.9802 14.5086L20.9802 14.5165L20.988 15.5086H21.9802V14.5086ZM100.02 14.5086V15.5086H101.012L101.02 14.5165L100.02 14.5086ZM102.18 0.554345L101.645 -0.290432V-0.290432L102.18 0.554345ZM102.206 48.9505L102.738 48.1041L102.738 48.104L102.206 48.9505ZM100.038 36.5086L101.038 36.4956L101.025 35.5086H100.038V36.5086ZM20.327 49.7968C21.5239 49.0438 22.101 47.6713 22.4355 45.6845C22.774 43.674 22.9068 40.7469 22.9617 36.5216L20.9618 36.4956C20.9068 40.7351 20.7726 43.5151 20.4633 45.3524C20.1499 47.2134 19.6983 47.8295 19.2619 48.1041L20.327 49.7968ZM16 50.5C16.8337 50.5 17.6243 50.5013 18.3168 50.4254C19.0182 50.3485 19.7102 50.1849 20.327 49.7969L19.2619 48.104C19.0052 48.2655 18.6509 48.3768 18.0989 48.4373C17.538 48.4987 16.8681 48.5 16 48.5V50.5ZM-1 24.5C-1 31.6389 1.56299 38.0889 4.90887 42.76C6.58245 45.0964 8.46861 47.0114 10.3588 48.3512C12.2322 49.6791 14.1935 50.5 16 50.5V48.5C14.7689 48.5 13.2114 47.9217 11.5153 46.7195C9.83596 45.5292 8.10181 43.783 6.53478 41.5953C3.39944 37.2182 1 31.1682 1 24.5H-1ZM16 -1C14.2058 -1 12.25 -0.220354 10.3733 1.06055C8.4817 2.35167 6.59306 4.20358 4.9167 6.47923C1.56463 11.0296 -1 17.3588 -1 24.5H1C1 17.834 3.39781 11.9132 6.52695 7.66543C8.0912 5.54197 9.82287 3.85772 11.5008 2.71245C13.1937 1.55696 14.7566 1 16 1V-1ZM20.3548 -0.290431C19.7362 -0.682272 19.0408 -0.847214 18.3352 -0.924726C17.6385 -1.00126 16.8418 -1 16 -1V1C16.8764 1 17.552 1.00126 18.1168 1.06331C18.6727 1.12439 19.028 1.23662 19.2846 1.39912L20.3548 -0.290431ZM22.9801 14.5008C22.9424 9.70062 22.8341 6.41621 22.5072 4.18743C22.186 1.99771 21.6154 0.508102 20.3548 -0.290431L19.2846 1.39912C19.7471 1.69211 20.219 2.36866 20.5283 4.47769C20.832 6.54768 20.9423 9.69465 20.9802 14.5165L22.9801 14.5008ZM21.9802 15.5086H100.02V13.5086H21.9802V15.5086ZM101.02 14.5165C101.058 9.69465 101.168 6.54768 101.472 4.47769C101.781 2.36866 102.253 1.69211 102.715 1.39912L101.645 -0.290432C100.385 0.508103 99.814 1.99771 99.4928 4.18744C99.1659 6.41621 99.0576 9.70062 99.0199 14.5008L101.02 14.5165ZM102.715 1.39912C102.972 1.23662 103.327 1.12439 103.883 1.06331C104.448 1.00126 105.124 1 106 1V-1C105.158 -1 104.361 -1.00126 103.665 -0.924726C102.959 -0.847214 102.264 -0.682272 101.645 -0.290432L102.715 1.39912ZM106 1C107.243 1 108.806 1.55696 110.499 2.71245C112.177 3.85772 113.909 5.54197 115.473 7.66543C118.602 11.9132 121 17.834 121 24.5H123C123 17.3588 120.435 11.0296 117.083 6.47923C115.407 4.20358 113.518 2.35167 111.627 1.06055C109.75 -0.220354 107.794 -1 106 -1V1ZM121 24.5C121 31.1682 118.601 37.2182 115.465 41.5953C113.898 43.783 112.164 45.5292 110.485 46.7195C108.789 47.9217 107.231 48.5 106 48.5V50.5C107.806 50.5 109.768 49.6791 111.641 48.3512C113.531 47.0114 115.418 45.0964 117.091 42.76C120.437 38.0889 123 31.6389 123 24.5H121ZM106 48.5C105.132 48.5 104.462 48.4987 103.901 48.4373C103.349 48.3768 102.995 48.2655 102.738 48.1041L101.673 49.7968C102.29 50.1849 102.982 50.3485 103.683 50.4254C104.376 50.5013 105.166 50.5 106 50.5V48.5ZM102.738 48.104C102.302 47.8295 101.85 47.2134 101.537 45.3524C101.227 43.5151 101.093 40.7351 101.038 36.4956L99.0383 36.5216C99.0932 40.7469 99.226 43.674 99.5645 45.6845C99.899 47.6713 100.476 49.0438 101.673 49.7969L102.738 48.104ZM100.038 35.5086H21.9618V37.5086H100.038V35.5086Z" fill="black" mask="url(#path-1-inside-1_18_137)"/>
</svg>
