<svg width="200" height="200" viewBox="0 0 200 200" fill="none" xmlns="http://www.w3.org/2000/svg">
<path d="M142.865 89.5042C139.801 79.5387 137.342 71.6789 134.94 65.485C132.538 59.2892 130.207 54.8026 127.418 51.5629C121.885 45.1358 114.447 43.5 100.5 43.5C86.5306 43.5 78.7437 45.466 73.0026 52.139C70.1115 55.4995 67.7136 60.0829 65.3326 66.2926C62.9522 72.501 60.6018 80.2986 57.7891 90.0682C56.2591 95.3828 55.3589 100.875 55.9214 106.325C57.2755 119.444 61.8695 130.992 69.3886 139.252C76.8994 147.502 87.3523 152.5 100.5 152.5C113.54 152.5 123.93 147.583 131.426 139.453C138.931 131.315 143.562 119.928 145.01 106.967C145.664 101.107 144.615 95.1951 142.865 89.5042Z" fill="#FFE600" stroke="black"/>
<rect x="-0.0122121" y="-0.349778" width="4.502" height="14.527" rx="1.75" transform="matrix(0.689301 -0.724475 -0.738149 -0.674638 128.515 74.1126)" fill="#FCFF63" stroke="black" stroke-width="0.5"/>
<rect x="0.356862" y="0.0124594" width="4.502" height="14.527" rx="1.75" transform="matrix(0.689301 0.724475 0.738149 -0.674638 69.2572 70.8502)" fill="#FCFF63" stroke="black" stroke-width="0.5"/>
<rect x="0.356185" y="0.0249019" width="3.4988" height="14.5375" transform="matrix(0.663547 0.748134 0.761192 -0.648527 117.784 141.848)" fill="#FCFF63" stroke="black" stroke-width="0.5"/>
<rect x="-0.0244111" y="-0.349165" width="3.4988" height="14.5375" transform="matrix(0.663547 -0.748134 -0.761192 -0.648527 81.339 144.478)" fill="#FCFF63" stroke="black" stroke-width="0.5"/>
<path d="M139.433 108.405C139.433 97.8912 138.168 86.1116 132.804 76.973C127.467 67.8818 118.034 61.3378 101.511 61.3378C83.1983 61.3378 73.399 67.8975 68.1346 76.9708C62.8368 86.1017 62.0723 97.8703 62.0723 108.405C62.0723 118.779 67.0945 128.565 74.5596 135.767C82.0265 142.971 91.8919 147.545 101.511 147.545C111.127 147.545 120.609 142.974 127.695 135.776C134.78 128.58 139.433 118.791 139.433 108.405Z" fill="#EDD500" stroke="black"/>
<path d="M89.9106 145.163L93.5982 146.531C97.1908 147.864 101.011 145.206 101.011 141.375V67.7218C101.011 64.1331 97.6298 61.5057 94.1523 62.3924L90.4647 63.3326C88.0285 63.9538 86.3236 66.1479 86.3236 68.6621L86.3236 140.007C86.3236 142.306 87.7545 144.363 89.9106 145.163Z" fill="#BAB200" stroke="black"/>
<path d="M113.112 145.163L109.424 146.531C105.831 147.864 102.011 145.206 102.011 141.375V67.7218C102.011 64.1331 105.392 61.5057 108.87 62.3924L112.558 63.3326C114.994 63.9538 116.699 66.1479 116.699 68.6621L116.699 140.007C116.699 142.306 115.268 144.363 113.112 145.163Z" fill="#BAB200" stroke="black"/>
<rect x="0.5" y="-0.5" width="14.1667" height="94" rx="5.5" transform="matrix(1 0 0 -1 93.4222 155)" fill="#FFF500" stroke="black"/>
<path d="M94.5241 61.75L92.7281 54.25H110.294L108.498 61.75H94.5241Z" fill="#474747" stroke="black" stroke-width="0.5"/>
<path d="M88.2427 54.3931L86.6332 43.25H116.389L114.78 54.3931C114.584 55.746 113.425 56.75 112.058 56.75H90.9645C89.5976 56.75 88.4382 55.746 88.2427 54.3931Z" fill="#141414" stroke="black" stroke-width="0.5"/>
<path d="M116.428 43C116.428 42.9977 116.422 42.9281 116.234 42.8071C116.06 42.6948 115.787 42.5772 115.412 42.4602C114.664 42.2272 113.57 42.0139 112.203 41.8336C109.472 41.4735 105.692 41.25 101.511 41.25C97.3304 41.25 93.5502 41.4735 90.8194 41.8336C89.4522 42.0139 88.358 42.2272 87.6108 42.4602C87.2353 42.5772 86.9622 42.6948 86.788 42.8071C86.6003 42.9281 86.5945 42.9977 86.5945 43C86.5945 43.0023 86.6003 43.0719 86.788 43.1929C86.9622 43.3052 87.2353 43.4228 87.6108 43.5398C88.358 43.7728 89.4522 43.9861 90.8194 44.1664C93.5502 44.5265 97.3304 44.75 101.511 44.75C105.692 44.75 109.472 44.5265 112.203 44.1664C113.57 43.9861 114.664 43.7728 115.412 43.5398C115.787 43.4228 116.06 43.3052 116.234 43.1929C116.422 43.0719 116.428 43.0023 116.428 43Z" fill="#FEF6CC" stroke="black" stroke-width="0.5"/>
</svg>
