<svg width="91" height="115" viewBox="0 0 91 115" fill="none" xmlns="http://www.w3.org/2000/svg">
<path d="M87.8654 48.5042C84.8012 38.5387 82.3424 30.6789 79.9405 24.485C77.5378 18.2892 75.2074 13.8026 72.4184 10.5629C66.8853 4.13581 59.4467 2.5 45.5 2.5C31.5306 2.5 23.7437 4.46602 18.0026 11.139C15.1115 14.4995 12.7136 19.0829 10.3326 25.2926C7.95216 31.501 5.60182 39.2986 2.78915 49.0682C1.25909 54.3828 0.358921 59.8746 0.92144 65.3247C2.27554 78.4443 6.86946 89.9918 14.3886 98.2515C21.8994 106.502 32.3523 111.5 45.5 111.5C58.5404 111.5 68.9296 106.583 76.4264 98.4534C83.9315 90.3146 88.5615 78.9279 90.0096 65.9667C90.6643 60.1067 89.6153 54.1951 87.8654 48.5042Z" fill="#FFE600" stroke="black"/>
<rect x="-0.0122121" y="-0.349778" width="4.502" height="14.527" rx="1.75" transform="matrix(0.689301 -0.724475 -0.738149 -0.674638 73.5152 33.1126)" fill="#FCFF63" stroke="black" stroke-width="0.5"/>
<rect x="0.356862" y="0.0124594" width="4.502" height="14.527" rx="1.75" transform="matrix(0.689301 0.724475 0.738149 -0.674638 14.2573 29.8502)" fill="#FCFF63" stroke="black" stroke-width="0.5"/>
<rect x="0.356185" y="0.0249019" width="3.4988" height="14.5375" transform="matrix(0.663547 0.748134 0.761192 -0.648527 62.7842 100.848)" fill="#FCFF63" stroke="black" stroke-width="0.5"/>
<rect x="-0.0244111" y="-0.349165" width="3.4988" height="14.5375" transform="matrix(0.663547 -0.748134 -0.761192 -0.648527 26.3391 103.478)" fill="#FCFF63" stroke="black" stroke-width="0.5"/>
<path d="M84.4333 67.4054C84.4333 56.8912 83.1682 45.1116 77.8035 35.973C72.4667 26.8818 63.0338 20.3378 46.5111 20.3378C28.1983 20.3378 18.3989 26.8975 13.1345 35.9708C7.83669 45.1017 7.0722 56.8703 7.0722 67.4054C7.0722 77.7786 12.0944 87.565 19.5595 94.7672C27.0264 101.971 36.8918 106.545 46.5111 106.545C56.1266 106.545 65.6093 101.974 72.6952 94.7762C79.7795 87.5796 84.4333 77.7913 84.4333 67.4054Z" fill="#EDD500" stroke="black"/>
<path d="M34.9106 104.163L38.5982 105.531C42.1908 106.864 46.0112 104.206 46.0112 100.375V26.7218C46.0112 23.1331 42.6298 20.5057 39.1523 21.3924L35.4647 22.3326C33.0285 22.9538 31.3236 25.1479 31.3236 27.6621L31.3236 99.0065C31.3236 101.306 32.7545 103.363 34.9106 104.163Z" fill="#BAB200" stroke="black"/>
<path d="M58.1116 104.163L54.424 105.531C50.8314 106.864 47.0111 104.206 47.0111 100.375V26.7218C47.0111 23.1331 50.3924 20.5057 53.87 21.3924L57.5575 22.3326C59.9938 22.9538 61.6986 25.1479 61.6986 27.6621L61.6986 99.0065C61.6986 101.306 60.2677 103.363 58.1116 104.163Z" fill="#BAB200" stroke="black"/>
<rect x="0.5" y="-0.5" width="14.1667" height="94" rx="5.5" transform="matrix(1 0 0 -1 38.4222 114)" fill="#FFF500" stroke="black"/>
<path d="M39.5241 20.75L37.7281 13.25H55.2942L53.4981 20.75H39.5241Z" fill="#474747" stroke="black" stroke-width="0.5"/>
<path d="M33.2427 13.3931L31.6331 2.25H61.389L59.7795 13.3931C59.5841 14.746 58.4246 15.75 57.0577 15.75H35.9644C34.5975 15.75 33.4381 14.746 33.2427 13.3931Z" fill="#141414" stroke="black" stroke-width="0.5"/>
<path d="M61.4278 2C61.4278 1.99772 61.4219 1.92806 61.2342 1.80708C61.06 1.69483 60.7869 1.57723 60.4115 1.46018C59.6642 1.2272 58.5701 1.01393 57.2029 0.833641C54.4721 0.473538 50.6919 0.25 46.5111 0.25C42.3303 0.25 38.5501 0.473538 35.8193 0.833641C34.4521 1.01393 33.358 1.2272 32.6107 1.46018C32.2353 1.57723 31.9622 1.69483 31.788 1.80708C31.6002 1.92806 31.5944 1.99772 31.5944 2C31.5944 2.00228 31.6002 2.07194 31.788 2.19292C31.9622 2.30517 32.2353 2.42277 32.6107 2.53982C33.358 2.7728 34.4521 2.98607 35.8193 3.16636C38.5501 3.52646 42.3303 3.75 46.5111 3.75C50.6919 3.75 54.4721 3.52646 57.2029 3.16636C58.5701 2.98607 59.6642 2.7728 60.4115 2.53982C60.7869 2.42277 61.06 2.30517 61.2342 2.19292C61.4219 2.07194 61.4278 2.00228 61.4278 2Z" fill="#FEF6CC" stroke="black" stroke-width="0.5"/>
</svg>
