<svg width="100" height="100" viewBox="0 0 100 100" fill="none" xmlns="http://www.w3.org/2000/svg">
<mask id="mask0_67_174" style="mask-type:alpha" maskUnits="userSpaceOnUse" x="0" y="0" width="100" height="100">
<mask id="mask1_67_174" style="mask-type:alpha" maskUnits="userSpaceOnUse" x="0" y="0" width="100" height="100">
<circle cx="15" cy="15" r="12.5" fill="#FFB800" stroke="black" stroke-width="5"/>
<circle cx="85" cy="15" r="12.5" fill="#FFB800" stroke="black" stroke-width="5"/>
<circle cx="50" cy="52" r="45.5" fill="#FFB800" stroke="black" stroke-width="5"/>
</mask>
<g mask="url(#mask1_67_174)">
<rect x="-24" y="-21" width="148" height="148" rx="4" fill="#C16100" stroke="#733900" stroke-width="2"/>
<path d="M-1.04881 -17.41C-1.78196 28.683 -8.53947 30.9913 -5.92315 59.0971C-3.30683 87.2028 -5.34856 90.84 -6.69446 105.789C-7.77118 117.748 -6.90038 122.608 -6.33039 123.543" stroke="#733900" stroke-width="2" stroke-linecap="round"/>
<path d="M20.1389 -16.301C25.7639 17.299 17.9514 28.699 20.1389 35.749C22.3264 42.799 16.8577 51.199 20.1389 75.049C22.7639 94.129 21.2327 115.199 20.1389 123.349" stroke="#733900" stroke-width="2" stroke-linecap="round"/>
<path d="M63.1934 123.501C55.3978 89.8646 66.225 78.4524 63.1934 71.3948C60.1617 64.3373 67.7408 55.9282 63.1934 32.0526C59.5554 12.9521 61.6776 -8.14051 63.1934 -16.2993" stroke="#733900" stroke-width="2" stroke-linecap="round"/>
<path d="M40.1562 -16.1494C42.4062 5.69059 41.0937 20.1506 40.1562 24.6506L42.6562 53.0006L40.1562 80.9006L42.6562 120.351" stroke="#733900" stroke-width="2" stroke-linecap="round"/>
<path d="M82.8135 -15.0991C85.0635 6.74088 83.751 21.2009 82.8135 25.7009L85.3135 54.0509L82.8135 81.9509L85.3135 121.401" stroke="#733900" stroke-width="2" stroke-linecap="round"/>
</g>
</mask>
<g mask="url(#mask0_67_174)">
<rect x="-9" y="-16" width="150" height="150" fill="#008E0E"/>
<path d="M6.6957 13.66L3.47837 10.4426C3.29688 10.2611 3.20613 10.0549 3.20613 9.82391C3.20613 9.59292 3.29688 9.38668 3.47837 9.20519L5.7305 6.95306C5.89549 6.78807 5.97799 6.59008 5.97799 6.35909C5.99449 6.1116 5.91199 5.89711 5.7305 5.71562L3.52786 3.51298C3.36287 3.34799 3.28038 3.15 3.28038 2.91901C3.28038 2.65503 3.36287 2.44054 3.52787 2.27555L6.7452 -0.941789C6.91019 -1.10678 7.11643 -1.18103 7.36392 -1.16453C7.61141 -1.18103 7.81765 -1.10678 7.98264 -0.94179L10.1853 1.26085C10.3668 1.44234 10.573 1.53308 10.804 1.53308C11.0515 1.51658 11.2577 1.42584 11.4227 1.26085L13.6748 -0.991287C13.8563 -1.17278 14.0626 -1.26352 14.2936 -1.26352C14.5246 -1.26352 14.7308 -1.17278 14.9123 -0.991287L18.1296 2.22605C18.3111 2.40754 18.4019 2.61378 18.4019 2.84477C18.4019 3.07576 18.3111 3.28199 18.1296 3.46349L15.8775 5.71562C15.7125 5.88061 15.6217 6.08685 15.6052 6.33434C15.6052 6.56533 15.696 6.77157 15.8775 6.95306L18.1296 9.20519C18.2946 9.37018 18.3771 9.58467 18.3771 9.84866C18.3771 10.0796 18.2946 10.2776 18.1296 10.4426L14.9123 13.66C14.7473 13.825 14.5411 13.9157 14.2936 13.9322C14.0461 13.9157 13.8398 13.825 13.6748 13.66L11.4227 11.4078C11.2412 11.2263 11.0267 11.1438 10.7792 11.1603C10.5483 11.1603 10.3503 11.2428 10.1853 11.4078L7.93314 13.66C7.75165 13.8415 7.54541 13.9322 7.31442 13.9322C7.08343 13.9322 6.87719 13.8415 6.6957 13.66Z" fill="#FAFF00"/>
<path d="M103.696 37.66L100.478 34.4426C100.297 34.2611 100.206 34.0549 100.206 33.8239C100.206 33.5929 100.297 33.3867 100.478 33.2052L102.731 30.9531C102.895 30.7881 102.978 30.5901 102.978 30.3591C102.994 30.1116 102.912 29.8971 102.731 29.7156L100.528 27.513C100.363 27.348 100.28 27.15 100.28 26.919C100.28 26.655 100.363 26.4405 100.528 26.2755L103.745 23.0582C103.91 22.8932 104.116 22.819 104.364 22.8355C104.611 22.819 104.818 22.8932 104.983 23.0582L107.185 25.2608C107.367 25.4423 107.573 25.5331 107.804 25.5331C108.051 25.5166 108.258 25.4258 108.423 25.2608L110.675 23.0087C110.856 22.8272 111.063 22.7365 111.294 22.7365C111.525 22.7365 111.731 22.8272 111.912 23.0087L115.13 26.226C115.311 26.4075 115.402 26.6138 115.402 26.8448C115.402 27.0758 115.311 27.282 115.13 27.4635L112.877 29.7156C112.712 29.8806 112.622 30.0869 112.605 30.3343C112.605 30.5653 112.696 30.7716 112.877 30.9531L115.13 33.2052C115.295 33.3702 115.377 33.5847 115.377 33.8487C115.377 34.0796 115.295 34.2776 115.13 34.4426L111.912 37.66C111.747 37.825 111.541 37.9157 111.294 37.9322C111.046 37.9157 110.84 37.825 110.675 37.66L108.423 35.4078C108.241 35.2263 108.027 35.1438 107.779 35.1603C107.548 35.1603 107.35 35.2428 107.185 35.4078L104.933 37.66C104.752 37.8415 104.545 37.9322 104.314 37.9322C104.083 37.9322 103.877 37.8415 103.696 37.66Z" fill="#FAFF00"/>
<path d="M65.6957 110.66L62.4784 107.443C62.2969 107.261 62.2061 107.055 62.2061 106.824C62.2061 106.593 62.2969 106.387 62.4784 106.205L64.7305 103.953C64.8955 103.788 64.978 103.59 64.978 103.359C64.9945 103.112 64.912 102.897 64.7305 102.716L62.5279 100.513C62.3629 100.348 62.2804 100.15 62.2804 99.919C62.2804 99.655 62.3629 99.4405 62.5279 99.2755L65.7452 96.0582C65.9102 95.8932 66.1164 95.819 66.3639 95.8355C66.6114 95.819 66.8176 95.8932 66.9826 96.0582L69.1853 98.2608C69.3668 98.4423 69.573 98.5331 69.804 98.5331C70.0515 98.5166 70.2577 98.4258 70.4227 98.2608L72.6748 96.0087C72.8563 95.8272 73.0626 95.7365 73.2936 95.7365C73.5246 95.7365 73.7308 95.8272 73.9123 96.0087L77.1296 99.226C77.3111 99.4075 77.4019 99.6138 77.4019 99.8448C77.4019 100.076 77.3111 100.282 77.1296 100.463L74.8775 102.716C74.7125 102.881 74.6217 103.087 74.6052 103.334C74.6052 103.565 74.696 103.772 74.8775 103.953L77.1296 106.205C77.2946 106.37 77.3771 106.585 77.3771 106.849C77.3771 107.08 77.2946 107.278 77.1296 107.443L73.9123 110.66C73.7473 110.825 73.5411 110.916 73.2936 110.932C73.0461 110.916 72.8398 110.825 72.6748 110.66L70.4227 108.408C70.2412 108.226 70.0267 108.144 69.7792 108.16C69.5483 108.16 69.3503 108.243 69.1853 108.408L66.9331 110.66C66.7516 110.841 66.5454 110.932 66.3144 110.932C66.0834 110.932 65.8772 110.841 65.6957 110.66Z" fill="#FAFF00"/>
<path d="M21.6957 89.66L18.4784 86.4426C18.2969 86.2611 18.2061 86.0549 18.2061 85.8239C18.2061 85.5929 18.2969 85.3867 18.4784 85.2052L20.7305 82.9531C20.8955 82.7881 20.978 82.5901 20.978 82.3591C20.9945 82.1116 20.912 81.8971 20.7305 81.7156L18.5279 79.513C18.3629 79.348 18.2804 79.15 18.2804 78.919C18.2804 78.655 18.3629 78.4405 18.5279 78.2755L21.7452 75.0582C21.9102 74.8932 22.1164 74.819 22.3639 74.8355C22.6114 74.819 22.8176 74.8932 22.9826 75.0582L25.1853 77.2608C25.3668 77.4423 25.573 77.5331 25.804 77.5331C26.0515 77.5166 26.2577 77.4258 26.4227 77.2608L28.6748 75.0087C28.8563 74.8272 29.0626 74.7365 29.2936 74.7365C29.5246 74.7365 29.7308 74.8272 29.9123 75.0087L33.1296 78.226C33.3111 78.4075 33.4019 78.6138 33.4019 78.8448C33.4019 79.0758 33.3111 79.282 33.1296 79.4635L30.8775 81.7156C30.7125 81.8806 30.6217 82.0869 30.6052 82.3343C30.6052 82.5653 30.696 82.7716 30.8775 82.9531L33.1296 85.2052C33.2946 85.3702 33.3771 85.5847 33.3771 85.8487C33.3771 86.0796 33.2946 86.2776 33.1296 86.4426L29.9123 89.66C29.7473 89.825 29.5411 89.9157 29.2936 89.9322C29.0461 89.9157 28.8398 89.825 28.6748 89.66L26.4227 87.4078C26.2412 87.2263 26.0267 87.1438 25.7792 87.1603C25.5483 87.1603 25.3503 87.2428 25.1853 87.4078L22.9331 89.66C22.7516 89.8415 22.5454 89.9322 22.3144 89.9322C22.0834 89.9322 21.8772 89.8415 21.6957 89.66Z" fill="#FAFF00"/>
<path d="M103.696 99.66L100.478 96.4426C100.297 96.2611 100.206 96.0549 100.206 95.8239C100.206 95.5929 100.297 95.3867 100.478 95.2052L102.731 92.9531C102.895 92.7881 102.978 92.5901 102.978 92.3591C102.994 92.1116 102.912 91.8971 102.731 91.7156L100.528 89.513C100.363 89.348 100.28 89.15 100.28 88.919C100.28 88.655 100.363 88.4405 100.528 88.2755L103.745 85.0582C103.91 84.8932 104.116 84.819 104.364 84.8355C104.611 84.819 104.818 84.8932 104.983 85.0582L107.185 87.2608C107.367 87.4423 107.573 87.5331 107.804 87.5331C108.051 87.5166 108.258 87.4258 108.423 87.2608L110.675 85.0087C110.856 84.8272 111.063 84.7365 111.294 84.7365C111.525 84.7365 111.731 84.8272 111.912 85.0087L115.13 88.226C115.311 88.4075 115.402 88.6138 115.402 88.8448C115.402 89.0758 115.311 89.282 115.13 89.4635L112.877 91.7156C112.712 91.8806 112.622 92.0869 112.605 92.3343C112.605 92.5653 112.696 92.7716 112.877 92.9531L115.13 95.2052C115.295 95.3702 115.377 95.5847 115.377 95.8487C115.377 96.0796 115.295 96.2776 115.13 96.4426L111.912 99.66C111.747 99.825 111.541 99.9157 111.294 99.9322C111.046 99.9157 110.84 99.825 110.675 99.66L108.423 97.4078C108.241 97.2263 108.027 97.1438 107.779 97.1603C107.548 97.1603 107.35 97.2428 107.185 97.4078L104.933 99.66C104.752 99.8415 104.545 99.9322 104.314 99.9322C104.083 99.9322 103.877 99.8415 103.696 99.66Z" fill="#FAFF00"/>
<path d="M81.6957 51.66L78.4784 48.4426C78.2969 48.2611 78.2061 48.0549 78.2061 47.8239C78.2061 47.5929 78.2969 47.3867 78.4784 47.2052L80.7305 44.9531C80.8955 44.7881 80.978 44.5901 80.978 44.3591C80.9945 44.1116 80.912 43.8971 80.7305 43.7156L78.5279 41.513C78.3629 41.348 78.2804 41.15 78.2804 40.919C78.2804 40.655 78.3629 40.4405 78.5279 40.2755L81.7452 37.0582C81.9102 36.8932 82.1164 36.819 82.3639 36.8355C82.6114 36.819 82.8176 36.8932 82.9826 37.0582L85.1853 39.2608C85.3668 39.4423 85.573 39.5331 85.804 39.5331C86.0515 39.5166 86.2577 39.4258 86.4227 39.2608L88.6748 37.0087C88.8563 36.8272 89.0626 36.7365 89.2936 36.7365C89.5246 36.7365 89.7308 36.8272 89.9123 37.0087L93.1296 40.226C93.3111 40.4075 93.4019 40.6138 93.4019 40.8448C93.4019 41.0758 93.3111 41.282 93.1296 41.4635L90.8775 43.7156C90.7125 43.8806 90.6217 44.0869 90.6052 44.3343C90.6052 44.5653 90.696 44.7716 90.8775 44.9531L93.1296 47.2052C93.2946 47.3702 93.3771 47.5847 93.3771 47.8487C93.3771 48.0796 93.2946 48.2776 93.1296 48.4426L89.9123 51.66C89.7473 51.825 89.5411 51.9157 89.2936 51.9322C89.0461 51.9157 88.8398 51.825 88.6748 51.66L86.4227 49.4078C86.2412 49.2263 86.0267 49.1438 85.7792 49.1603C85.5483 49.1603 85.3503 49.2428 85.1853 49.4078L82.9331 51.66C82.7516 51.8415 82.5454 51.9322 82.3144 51.9322C82.0834 51.9322 81.8772 51.8415 81.6957 51.66Z" fill="#FAFF00"/>
<path d="M25.015 35.56V30.835C25.015 30.6017 25.085 30.415 25.225 30.275C25.3883 30.1117 25.5867 30.03 25.82 30.03H34.64C34.8733 30.03 35.06 30.1117 35.2 30.275C35.3633 30.415 35.445 30.6017 35.445 30.835V35.56C35.445 35.7933 35.3633 35.9917 35.2 36.155C35.06 36.295 34.8733 36.365 34.64 36.365H25.82C25.5867 36.365 25.3883 36.295 25.225 36.155C25.085 35.9917 25.015 35.7933 25.015 35.56Z" fill="#FAFF00"/>
<path d="M50.015 52.56V47.835C50.015 47.6017 50.085 47.415 50.225 47.275C50.3883 47.1117 50.5867 47.03 50.82 47.03H59.64C59.8733 47.03 60.06 47.1117 60.2 47.275C60.3633 47.415 60.445 47.6017 60.445 47.835V52.56C60.445 52.7933 60.3633 52.9917 60.2 53.155C60.06 53.295 59.8733 53.365 59.64 53.365H50.82C50.5867 53.365 50.3883 53.295 50.225 53.155C50.085 52.9917 50.015 52.7933 50.015 52.56Z" fill="#FAFF00"/>
<path d="M49.015 88.56V83.835C49.015 83.6017 49.085 83.415 49.225 83.275C49.3883 83.1117 49.5867 83.03 49.82 83.03H58.64C58.8733 83.03 59.06 83.1117 59.2 83.275C59.3633 83.415 59.445 83.6017 59.445 83.835V88.56C59.445 88.7933 59.3633 88.9917 59.2 89.155C59.06 89.295 58.8733 89.365 58.64 89.365H49.82C49.5867 89.365 49.3883 89.295 49.225 89.155C49.085 88.9917 49.015 88.7933 49.015 88.56Z" fill="#FAFF00"/>
<path d="M75.015 75.56V70.835C75.015 70.6017 75.085 70.415 75.225 70.275C75.3883 70.1117 75.5867 70.03 75.82 70.03H84.64C84.8733 70.03 85.06 70.1117 85.2 70.275C85.3633 70.415 85.445 70.6017 85.445 70.835V75.56C85.445 75.7933 85.3633 75.9917 85.2 76.155C85.06 76.295 84.8733 76.365 84.64 76.365H75.82C75.5867 76.365 75.3883 76.295 75.225 76.155C75.085 75.9917 75.015 75.7933 75.015 75.56Z" fill="#FAFF00"/>
<path d="M79.015 21.56V16.835C79.015 16.6017 79.085 16.415 79.225 16.275C79.3883 16.1117 79.5867 16.03 79.82 16.03H88.64C88.8733 16.03 89.06 16.1117 89.2 16.275C89.3633 16.415 89.445 16.6017 89.445 16.835V21.56C89.445 21.7933 89.3633 21.9917 89.2 22.155C89.06 22.295 88.8733 22.365 88.64 22.365H79.82C79.5867 22.365 79.3883 22.295 79.225 22.155C79.085 21.9917 79.015 21.7933 79.015 21.56Z" fill="#FAFF00"/>
<path d="M46.6957 73.66L43.4784 70.4426C43.2969 70.2611 43.2061 70.0549 43.2061 69.8239C43.2061 69.5929 43.2969 69.3867 43.4784 69.2052L45.7305 66.9531C45.8955 66.7881 45.978 66.5901 45.978 66.3591C45.9945 66.1116 45.912 65.8971 45.7305 65.7156L43.5279 63.513C43.3629 63.348 43.2804 63.15 43.2804 62.919C43.2804 62.655 43.3629 62.4405 43.5279 62.2755L46.7452 59.0582C46.9102 58.8932 47.1164 58.819 47.3639 58.8355C47.6114 58.819 47.8176 58.8932 47.9826 59.0582L50.1853 61.2608C50.3668 61.4423 50.573 61.5331 50.804 61.5331C51.0515 61.5166 51.2577 61.4258 51.4227 61.2608L53.6748 59.0087C53.8563 58.8272 54.0626 58.7365 54.2936 58.7365C54.5246 58.7365 54.7308 58.8272 54.9123 59.0087L58.1296 62.226C58.3111 62.4075 58.4019 62.6138 58.4019 62.8448C58.4019 63.0758 58.3111 63.282 58.1296 63.4635L55.8775 65.7156C55.7125 65.8806 55.6217 66.0869 55.6052 66.3343C55.6052 66.5653 55.696 66.7716 55.8775 66.9531L58.1296 69.2052C58.2946 69.3702 58.3771 69.5847 58.3771 69.8487C58.3771 70.0796 58.2946 70.2776 58.1296 70.4426L54.9123 73.66C54.7473 73.825 54.5411 73.9157 54.2936 73.9322C54.0461 73.9157 53.8398 73.825 53.6748 73.66L51.4227 71.4078C51.2412 71.2263 51.0267 71.1438 50.7792 71.1603C50.5483 71.1603 50.3503 71.2428 50.1853 71.4078L47.9331 73.66C47.7516 73.8415 47.5454 73.9322 47.3144 73.9322C47.0834 73.9322 46.8772 73.8415 46.6957 73.66Z" fill="#FAFF00"/>
<path d="M6.6957 58.66L3.47837 55.4426C3.29688 55.2611 3.20613 55.0549 3.20613 54.8239C3.20613 54.5929 3.29688 54.3867 3.47837 54.2052L5.7305 51.9531C5.89549 51.7881 5.97799 51.5901 5.97799 51.3591C5.99449 51.1116 5.91199 50.8971 5.7305 50.7156L3.52786 48.513C3.36287 48.348 3.28038 48.15 3.28038 47.919C3.28038 47.655 3.36287 47.4405 3.52787 47.2755L6.7452 44.0582C6.91019 43.8932 7.11643 43.819 7.36392 43.8355C7.61141 43.819 7.81765 43.8932 7.98264 44.0582L10.1853 46.2608C10.3668 46.4423 10.573 46.5331 10.804 46.5331C11.0515 46.5166 11.2577 46.4258 11.4227 46.2608L13.6748 44.0087C13.8563 43.8272 14.0626 43.7365 14.2936 43.7365C14.5246 43.7365 14.7308 43.8272 14.9123 44.0087L18.1296 47.226C18.3111 47.4075 18.4019 47.6138 18.4019 47.8448C18.4019 48.0758 18.3111 48.282 18.1296 48.4635L15.8775 50.7156C15.7125 50.8806 15.6217 51.0869 15.6052 51.3343C15.6052 51.5653 15.696 51.7716 15.8775 51.9531L18.1296 54.2052C18.2946 54.3702 18.3771 54.5847 18.3771 54.8487C18.3771 55.0796 18.2946 55.2776 18.1296 55.4426L14.9123 58.66C14.7473 58.825 14.5411 58.9157 14.2936 58.9322C14.0461 58.9157 13.8398 58.825 13.6748 58.66L11.4227 56.4078C11.2412 56.2263 11.0267 56.1438 10.7792 56.1603C10.5483 56.1603 10.3503 56.2428 10.1853 56.4078L7.93314 58.66C7.75165 58.8415 7.54541 58.9322 7.31442 58.9322C7.08343 58.9322 6.87719 58.8415 6.6957 58.66Z" fill="#FAFF00"/>
<path d="M77.6957 6.65997L74.4784 3.44263C74.2969 3.26114 74.2061 3.0549 74.2061 2.82391C74.2061 2.59292 74.2969 2.38668 74.4784 2.20519L76.7305 -0.0469423C76.8955 -0.211934 76.978 -0.409924 76.978 -0.640912C76.9945 -0.888399 76.912 -1.10289 76.7305 -1.28438L74.5279 -3.48702C74.3629 -3.65201 74.2804 -3.85 74.2804 -4.08099C74.2804 -4.34497 74.3629 -4.55946 74.5279 -4.72445L77.7452 -7.94179C77.9102 -8.10678 78.1164 -8.18103 78.3639 -8.16453C78.6114 -8.18103 78.8176 -8.10678 78.9826 -7.94179L81.1853 -5.73915C81.3668 -5.55766 81.573 -5.46692 81.804 -5.46692C82.0515 -5.48342 82.2577 -5.57416 82.4227 -5.73915L84.6748 -7.99129C84.8563 -8.17278 85.0626 -8.26352 85.2936 -8.26352C85.5246 -8.26352 85.7308 -8.17278 85.9123 -7.99129L89.1296 -4.77395C89.3111 -4.59246 89.4019 -4.38622 89.4019 -4.15523C89.4019 -3.92424 89.3111 -3.71801 89.1296 -3.53651L86.8775 -1.28438C86.7125 -1.11939 86.6217 -0.913148 86.6052 -0.665661C86.6052 -0.434672 86.696 -0.228433 86.8775 -0.0469423L89.1296 2.20519C89.2946 2.37018 89.3771 2.58467 89.3771 2.84866C89.3771 3.07965 89.2946 3.27764 89.1296 3.44263L85.9123 6.65997C85.7473 6.82496 85.5411 6.9157 85.2936 6.9322C85.0461 6.9157 84.8398 6.82496 84.6748 6.65997L82.4227 4.40783C82.2412 4.22634 82.0267 4.14384 81.7792 4.16034C81.5483 4.16034 81.3503 4.24284 81.1853 4.40783L78.9331 6.65997C78.7516 6.84146 78.5454 6.9322 78.3144 6.9322C78.0834 6.9322 77.8772 6.84146 77.6957 6.65997Z" fill="#FAFF00"/>
<path d="M51.6957 25.66L48.4784 22.4426C48.2969 22.2611 48.2061 22.0549 48.2061 21.8239C48.2061 21.5929 48.2969 21.3867 48.4784 21.2052L50.7305 18.9531C50.8955 18.7881 50.978 18.5901 50.978 18.3591C50.9945 18.1116 50.912 17.8971 50.7305 17.7156L48.5279 15.513C48.3629 15.348 48.2804 15.15 48.2804 14.919C48.2804 14.655 48.3629 14.4405 48.5279 14.2755L51.7452 11.0582C51.9102 10.8932 52.1164 10.819 52.3639 10.8355C52.6114 10.819 52.8176 10.8932 52.9826 11.0582L55.1853 13.2608C55.3668 13.4423 55.573 13.5331 55.804 13.5331C56.0515 13.5166 56.2577 13.4258 56.4227 13.2608L58.6748 11.0087C58.8563 10.8272 59.0626 10.7365 59.2936 10.7365C59.5246 10.7365 59.7308 10.8272 59.9123 11.0087L63.1296 14.226C63.3111 14.4075 63.4019 14.6138 63.4019 14.8448C63.4019 15.0758 63.3111 15.282 63.1296 15.4635L60.8775 17.7156C60.7125 17.8806 60.6217 18.0869 60.6052 18.3343C60.6052 18.5653 60.696 18.7716 60.8775 18.9531L63.1296 21.2052C63.2946 21.3702 63.3771 21.5847 63.3771 21.8487C63.3771 22.0796 63.2946 22.2776 63.1296 22.4426L59.9123 25.66C59.7473 25.825 59.5411 25.9157 59.2936 25.9322C59.0461 25.9157 58.8398 25.825 58.6748 25.66L56.4227 23.4078C56.2412 23.2263 56.0267 23.1438 55.7792 23.1603C55.5483 23.1603 55.3503 23.2428 55.1853 23.4078L52.9331 25.66C52.7516 25.8415 52.5454 25.9322 52.3144 25.9322C52.0834 25.9322 51.8772 25.8415 51.6957 25.66Z" fill="#FAFF00"/>
</g>
<path fill-rule="evenodd" clip-rule="evenodd" d="M24.3423 11.4257C22.9038 7.66811 19.2635 5 15 5C9.47715 5 5 9.47715 5 15C5 19.0677 7.42864 22.5681 10.915 24.1303C9.94059 25.4943 9.03584 26.9115 8.2059 28.3767C3.33598 25.8983 0 20.8387 0 15C0 6.71573 6.71573 0 15 0C21.1342 0 26.4083 3.68209 28.7328 8.95662C27.2226 9.70422 25.7574 10.529 24.3423 11.4257Z" fill="black"/>
<path fill-rule="evenodd" clip-rule="evenodd" d="M88.8179 24.1303C92.3042 22.5681 94.7328 19.0677 94.7328 15C94.7328 9.47715 90.2557 5 84.7328 5C80.4694 5 76.829 7.66811 75.3905 11.4257C73.9754 10.529 72.5102 9.70422 71 8.95662C73.3245 3.68209 78.5987 0 84.7328 0C93.0171 0 99.7328 6.71573 99.7328 15C99.7328 20.8387 96.3969 25.8983 91.5269 28.3767C90.697 26.9115 89.7922 25.4943 88.8179 24.1303Z" fill="black"/>
<circle cx="50" cy="52" r="45.5" stroke="black" stroke-width="5"/>
</svg>
