<svg width="200" height="200" viewBox="0 0 200 200" fill="none" xmlns="http://www.w3.org/2000/svg">
<path d="M158.261 101.266C160.234 106.89 160.234 113.019 158.261 118.643M153.258 100.365C156.58 106.325 156.58 113.584 153.258 119.544M157.714 118.689L157.946 118.772C156.859 119.194 155.51 119.461 153.836 119.529C157.053 113.554 157.053 106.355 153.836 100.38C155.51 100.448 156.859 100.715 157.946 101.136L157.714 101.22C159.75 106.865 159.75 113.044 157.714 118.689ZM152.682 100.363C156.105 106.298 156.105 113.61 152.682 119.546C150.307 119.545 148.548 119.539 147.224 119.391C145.844 119.237 145.048 118.938 144.545 118.432C144.041 117.925 143.743 117.123 143.59 115.733C143.437 114.348 143.436 112.489 143.436 109.954C143.436 107.419 143.437 105.56 143.59 104.175C143.743 102.786 144.041 101.984 144.545 101.477C145.048 100.971 145.844 100.672 147.224 100.518C148.548 100.37 150.307 100.363 152.682 100.363ZM158.896 101.578C159.67 102.006 160.277 102.532 160.753 103.13C162.097 104.818 162.5 107.194 162.5 109.954C162.5 112.715 162.097 115.091 160.753 116.778C160.277 117.377 159.67 117.903 158.896 118.331C160.689 112.891 160.689 107.018 158.896 101.578Z" fill="#D9D9D9" stroke="black"/>
<path d="M41.7386 101.266C39.7661 106.89 39.7661 113.019 41.7386 118.643M46.7424 100.365C43.4203 106.325 43.4203 113.584 46.7424 119.544M42.2857 118.689L42.0538 118.772C43.1414 119.194 44.4902 119.461 46.1639 119.529C42.9465 113.554 42.9465 106.355 46.1639 100.38C44.4902 100.448 43.1414 100.715 42.0538 101.136L42.2857 101.22C40.2504 106.865 40.2504 113.044 42.2857 118.689ZM47.3182 100.363C43.8951 106.298 43.8951 113.61 47.3182 119.546C49.6928 119.545 51.4523 119.539 52.776 119.391C54.1557 119.237 54.952 118.938 55.4551 118.432C55.9589 117.925 56.2565 117.123 56.41 115.733C56.563 114.348 56.5637 112.489 56.5637 109.954C56.5637 107.419 56.563 105.56 56.41 104.175C56.2565 102.786 55.9589 101.984 55.4551 101.477C54.952 100.971 54.1557 100.672 52.776 100.518C51.4523 100.37 49.6928 100.363 47.3182 100.363ZM41.1044 101.578C40.3304 102.006 39.7235 102.532 39.247 103.13C37.9026 104.818 37.5 107.194 37.5 109.954C37.5 112.715 37.9026 115.091 39.247 116.778C39.7235 117.377 40.3304 117.903 41.1044 118.331C39.3108 112.891 39.3108 107.018 41.1044 101.578Z" fill="#D9D9D9" stroke="black"/>
<path d="M99.5988 143.29C83.5852 143.29 75.8055 143.267 68.744 137.54C65.1962 134.662 61.8078 130.323 57.6803 123.741C53.5677 117.182 48.7467 108.439 42.3156 96.7668C42.4009 71.2944 67.9126 50.5 99.5988 50.5C131.285 50.5 156.797 71.2944 156.882 96.7667C150.451 108.439 145.63 117.182 141.517 123.741C137.39 130.323 134.001 134.662 130.454 137.54C123.392 143.267 115.612 143.29 99.5988 143.29Z" fill="#D9D9D9" stroke="black"/>
<path d="M99.5987 161.692C72.3925 161.692 50.3408 139.722 50.3408 112.626C50.3408 87.663 70.6137 69.4899 93.8137 64.5185C97.6224 63.7023 101.569 63.7137 105.362 64.5854C127.425 69.6556 148.857 87.7867 148.857 112.626C148.857 139.722 126.805 161.692 99.5987 161.692Z" fill="#CECDCD" stroke="black"/>
<line x1="149.357" y1="111.642" x2="49.8408" y2="111.642" stroke="black"/>
<path d="M69.7174 65.9223C70.8568 63.2006 67.6222 60.7501 65.3104 62.5835L61.3864 65.6957C50.9737 73.954 44.6354 86.3074 44 99.5822V99.5822L48.414 107.299L49.8153 100.85C51.8694 91.3953 57.2599 82.9968 65 77.1918V77.1918L69.7174 65.9223Z" fill="black"/>
<path d="M129.806 65.9729C128.582 62.846 132.382 60.183 134.904 62.4002L139.751 66.6626C148.903 74.71 154.636 85.949 155.777 98.0822V98.0822L151.363 105.799L150.33 102.69C147.054 92.838 141.453 83.9201 134 76.6918V76.6918L129.806 65.9729Z" fill="black"/>
<path d="M134 76.6918C134 76.6918 119.5 62.1918 100.5 62.1918C78.5 62.1918 64.9998 77.1918 64.9998 77.1918C50.9998 61.1918 84 52.1918 100.5 52.1918C115.5 52.1918 149.5 60.6918 134 76.6918Z" fill="black"/>
</svg>
