<svg width="200" height="200" viewBox="0 0 200 200" fill="none" xmlns="http://www.w3.org/2000/svg">
<path d="M147.445 102C147.445 75.766 126.198 54.5 99.99 54.5C73.782 54.5 52.5354 75.766 52.5354 102C52.5354 128.234 73.782 149.5 99.99 149.5C126.198 149.5 147.445 128.234 147.445 102Z" fill="#A6A2A2" stroke="black"/>
<mask id="path-2-inside-1_43_90" fill="white">
<path fill-rule="evenodd" clip-rule="evenodd" d="M108.245 149.292C108.415 149.037 108.515 148.731 108.515 148.402V112.555C111.131 110.334 112.778 107.107 112.778 103.516C112.778 99.9243 111.131 96.6974 108.515 94.477V56.1313C108.515 55.5573 108.288 55.0363 107.919 54.6531C105.34 54.2235 102.691 54 99.99 54C97.2888 54 94.6398 54.2235 92.0604 54.6532C91.6914 55.0364 91.4645 55.5573 91.4645 56.1313V94.4774C88.8485 96.6978 87.2021 99.9245 87.2021 103.516C87.2021 107.107 88.8485 110.334 91.4645 112.554V147.869C91.4645 148.443 91.6914 148.964 92.0604 149.347C94.6398 149.776 97.2888 150 99.99 150C102.805 150 105.563 149.757 108.245 149.292Z"/>
</mask>
<path fill-rule="evenodd" clip-rule="evenodd" d="M108.245 149.292C108.415 149.037 108.515 148.731 108.515 148.402V112.555C111.131 110.334 112.778 107.107 112.778 103.516C112.778 99.9243 111.131 96.6974 108.515 94.477V56.1313C108.515 55.5573 108.288 55.0363 107.919 54.6531C105.34 54.2235 102.691 54 99.99 54C97.2888 54 94.6398 54.2235 92.0604 54.6532C91.6914 55.0364 91.4645 55.5573 91.4645 56.1313V94.4774C88.8485 96.6978 87.2021 99.9245 87.2021 103.516C87.2021 107.107 88.8485 110.334 91.4645 112.554V147.869C91.4645 148.443 91.6914 148.964 92.0604 149.347C94.6398 149.776 97.2888 150 99.99 150C102.805 150 105.563 149.757 108.245 149.292Z" fill="#C8B139"/>
<path d="M108.245 149.292L109.075 149.849L108.837 150.204L108.416 150.277L108.245 149.292ZM108.515 112.555H107.515V112.092L107.868 111.792L108.515 112.555ZM108.515 94.477L107.868 95.2394L107.515 94.9399V94.477H108.515ZM107.919 54.6531L108.083 53.6667L108.41 53.721L108.639 53.9594L107.919 54.6531ZM92.0604 54.6532L91.3401 53.9595L91.5696 53.7211L91.8961 53.6667L92.0604 54.6532ZM91.4645 94.4774H92.4645V94.9403L92.1116 95.2398L91.4645 94.4774ZM91.4645 112.554L92.1116 111.792L92.4645 112.091V112.554H91.4645ZM92.0604 149.347L91.8961 150.333L91.5696 150.279L91.3401 150.04L92.0604 149.347ZM109.515 148.402C109.515 148.936 109.353 149.435 109.075 149.849L107.414 148.734C107.478 148.639 107.515 148.526 107.515 148.402H109.515ZM109.515 112.555V148.402H107.515V112.555H109.515ZM113.778 103.516C113.778 107.423 111.985 110.922 109.162 113.317L107.868 111.792C110.278 109.747 111.778 106.791 111.778 103.516H113.778ZM109.162 93.7146C111.985 96.1101 113.778 99.6083 113.778 103.516H111.778C111.778 100.24 110.278 97.2848 107.868 95.2394L109.162 93.7146ZM109.515 56.1313V94.477H107.515V56.1313H109.515ZM108.639 53.9594C109.181 54.5214 109.515 55.2884 109.515 56.1313H107.515C107.515 55.8262 107.396 55.5511 107.199 55.3467L108.639 53.9594ZM107.755 55.6395C105.23 55.2189 102.636 55 99.99 55V53C102.746 53 105.45 53.2281 108.083 53.6667L107.755 55.6395ZM99.99 55C97.3441 55 94.75 55.219 92.2247 55.6396L91.8961 53.6667C94.5296 53.2281 97.2336 53 99.99 53V55ZM90.4645 56.1313C90.4645 55.2884 90.7989 54.5216 91.3401 53.9595L92.7807 55.3468C92.584 55.5511 92.4645 55.8262 92.4645 56.1313H90.4645ZM90.4645 94.4774V56.1313H92.4645V94.4774H90.4645ZM86.2021 103.516C86.2021 99.6086 87.9951 96.1105 90.8174 93.715L92.1116 95.2398C89.7019 97.2852 88.2021 100.24 88.2021 103.516H86.2021ZM90.8174 113.317C87.9951 110.921 86.2021 107.423 86.2021 103.516H88.2021C88.2021 106.791 89.7019 109.746 92.1116 111.792L90.8174 113.317ZM90.4645 147.869V112.554H92.4645V147.869H90.4645ZM91.3401 150.04C90.7989 149.478 90.4645 148.712 90.4645 147.869H92.4645C92.4645 148.174 92.584 148.449 92.7807 148.653L91.3401 150.04ZM92.2247 148.36C94.75 148.781 97.3441 149 99.99 149V151C97.2336 151 94.5296 150.772 91.8961 150.333L92.2247 148.36ZM99.99 149C102.747 149 105.448 148.762 108.073 148.306L108.416 150.277C105.678 150.752 102.862 151 99.99 151V149Z" fill="black" mask="url(#path-2-inside-1_43_90)"/>
<path d="M60.5202 111.538L60.8678 95.0225C60.8916 93.8921 59.7039 93.1427 58.694 93.6508L38.8308 103.644C37.5548 104.286 36.0013 103.73 35.422 102.425L23.9537 76.5755C23.7072 76.0198 22.8697 76.3024 23.0102 76.8938L31.7081 113.492C31.8771 114.203 32.5334 114.689 33.2625 114.643L59.1154 113.004C59.8933 112.954 60.5037 112.318 60.5202 111.538Z" fill="#D9D9D9"/>
<path d="M60.5202 111.538L60.8678 95.0225C60.8916 93.8921 59.7039 93.1427 58.694 93.6508L38.8308 103.644C37.5548 104.286 36.0013 103.73 35.422 102.425L23.9537 76.5755C23.7072 76.0198 22.8697 76.3024 23.0102 76.8938L31.7081 113.492C31.8771 114.203 32.5334 114.689 33.2625 114.643L59.1154 113.004C59.8933 112.954 60.5037 112.318 60.5202 111.538Z" fill="#C9C9C9" fill-opacity="0.2"/>
<path d="M60.5202 111.538L60.8678 95.0225C60.8916 93.8921 59.7039 93.1427 58.694 93.6508L38.8308 103.644C37.5548 104.286 36.0013 103.73 35.422 102.425L23.9537 76.5755C23.7072 76.0198 22.8697 76.3024 23.0102 76.8938L31.7081 113.492C31.8771 114.203 32.5334 114.689 33.2625 114.643L59.1154 113.004C59.8933 112.954 60.5037 112.318 60.5202 111.538Z" stroke="black"/>
<path d="M60.5202 111.538L60.8678 95.0225C60.8916 93.8921 59.7039 93.1427 58.694 93.6508L38.8308 103.644C37.5548 104.286 36.0013 103.73 35.422 102.425L23.9537 76.5755C23.7072 76.0198 22.8697 76.3024 23.0102 76.8938L31.7081 113.492C31.8771 114.203 32.5334 114.689 33.2625 114.643L59.1154 113.004C59.8933 112.954 60.5037 112.318 60.5202 111.538Z" stroke="black" stroke-opacity="0.2"/>
<path d="M139.784 111.538L139.436 95.0225C139.412 93.8921 140.6 93.1427 141.61 93.6508L161.473 103.644C162.749 104.286 164.303 103.73 164.882 102.425L176.35 76.5755C176.597 76.0198 177.434 76.3024 177.294 76.8938L168.596 113.492C168.427 114.203 167.771 114.689 167.042 114.643L141.189 113.004C140.411 112.954 139.8 112.318 139.784 111.538Z" fill="#D9D9D9"/>
<path d="M139.784 111.538L139.436 95.0225C139.412 93.8921 140.6 93.1427 141.61 93.6508L161.473 103.644C162.749 104.286 164.303 103.73 164.882 102.425L176.35 76.5755C176.597 76.0198 177.434 76.3024 177.294 76.8938L168.596 113.492C168.427 114.203 167.771 114.689 167.042 114.643L141.189 113.004C140.411 112.954 139.8 112.318 139.784 111.538Z" stroke="black"/>
<path d="M139.784 111.538L139.436 95.0225C139.412 93.8921 140.6 93.1427 141.61 93.6508L161.473 103.644C162.749 104.286 164.303 103.73 164.882 102.425L176.35 76.5755C176.597 76.0198 177.434 76.3024 177.294 76.8938L168.596 113.492C168.427 114.203 167.771 114.689 167.042 114.643L141.189 113.004C140.411 112.954 139.8 112.318 139.784 111.538Z" stroke="black" stroke-opacity="0.2"/>
<path d="M91.4647 94.5333L83.4571 89.1314C75.9999 84.1009 69.6573 77.5888 64.8233 70V70" stroke="black" stroke-width="3"/>
<path d="M91.4647 94.5333L82.4748 88.4687C75.6621 83.8729 69.8409 77.9554 65.3561 71.0667V71.0667" stroke="#CEB324" stroke-linecap="round"/>
<path d="M108.515 94.2114L116.747 88.6584C124.061 83.7242 130.319 77.3814 135.157 70V70" stroke="black" stroke-width="3"/>
<path d="M108.515 94.2114L117.505 88.1468C124.318 83.551 130.139 77.6335 134.624 70.7448V70.7448" stroke="#CEB324" stroke-linecap="round"/>
<path d="M108.515 112.61L118.897 119.614C124.819 123.608 130.118 128.456 134.624 134V134" stroke="black" stroke-width="3"/>
<path d="M109.048 113.2L119.472 120.104C125.009 123.771 129.941 128.28 134.091 133.467V133.467" stroke="#CEB324" stroke-linecap="round"/>
<path d="M91.4647 112.133L80.4658 119.776C74.5971 123.854 69.3313 128.738 64.8233 134.285V134.285" stroke="black" stroke-width="3"/>
<path d="M90.9319 112.667L79.082 120.801C74.1318 124.199 69.6897 128.284 65.8889 132.933V132.933" stroke="#CEB324" stroke-linecap="round"/>
<path d="M96.5484 143.456L99.9899 145.445L103.431 143.456V139.478L99.9899 137.489L96.5484 139.478V143.456Z" fill="#897717" stroke="black" stroke-width="0.5"/>
<path d="M94.7026 106.122L99.9899 109.178L105.277 106.122V100.011L99.9899 96.9554L94.7026 100.011V106.122Z" fill="#CECECE" stroke="black" stroke-width="0.5"/>
<path d="M96.5484 125.322L99.9899 127.311L103.431 125.322V121.344L99.9899 119.355L96.5484 121.344V125.322Z" fill="#897717" stroke="black" stroke-width="0.5"/>
<path d="M96.5484 65.589L99.9899 67.5779L103.431 65.589V61.6109L99.9899 59.622L96.5484 61.6109V65.589Z" fill="#897717" stroke="black" stroke-width="0.5"/>
<path d="M96.5484 84.789L99.9899 86.7779L103.431 84.789V80.8109L99.9899 78.8221L96.5484 80.8109V84.789Z" fill="#897717" stroke="black" stroke-width="0.5"/>
</svg>
