<svg width="200" height="200" viewBox="0 0 200 200" fill="none" xmlns="http://www.w3.org/2000/svg">
<path d="M142.865 91.5042C139.801 81.5387 137.342 73.6789 134.94 67.485C132.538 61.2892 130.207 56.8026 127.418 53.5629C121.885 47.1358 114.447 45.5 100.5 45.5C86.5306 45.5 78.7437 47.466 73.0026 54.139C70.1115 57.4995 67.7136 62.0829 65.3326 68.2926C62.9522 74.501 60.6018 82.2986 57.7891 92.0683C56.2591 97.3828 55.3589 102.875 55.9214 108.325C57.2755 121.444 61.8695 132.992 69.3886 141.252C76.8994 149.502 87.3523 154.5 100.5 154.5C113.54 154.5 123.93 149.583 131.426 141.453C138.931 133.315 143.562 121.928 145.01 108.967C145.664 103.107 144.615 97.1951 142.865 91.5042Z" fill="#FF9900" stroke="black"/>
<rect x="-0.0122121" y="-0.349778" width="4.502" height="14.527" rx="1.75" transform="matrix(0.689301 -0.724475 -0.738149 -0.674638 128.515 76.1126)" fill="#FFC163" stroke="black" stroke-width="0.5"/>
<rect x="0.356862" y="0.0124594" width="4.502" height="14.527" rx="1.75" transform="matrix(0.689301 0.724475 0.738149 -0.674638 69.2572 72.8502)" fill="#FFC163" stroke="black" stroke-width="0.5"/>
<rect x="0.356185" y="0.0249019" width="3.4988" height="14.5375" transform="matrix(0.663547 0.748134 0.761192 -0.648527 117.784 143.848)" fill="#FFC163" stroke="black" stroke-width="0.5"/>
<rect x="-0.0244112" y="-0.349165" width="3.4988" height="14.5375" transform="matrix(0.663547 -0.748134 -0.761192 -0.648527 81.339 146.478)" fill="#FFC163" stroke="black" stroke-width="0.5"/>
<path d="M139.433 110.405C139.433 99.8912 138.168 88.1116 132.804 78.973C127.467 69.8818 118.034 63.3378 101.511 63.3378C83.1983 63.3378 73.399 69.8975 68.1346 78.9708C62.8368 88.1017 62.0723 99.8703 62.0723 110.405C62.0723 120.779 67.0945 130.565 74.5596 137.767C82.0265 144.971 91.8919 149.545 101.511 149.545C111.127 149.545 120.609 144.974 127.695 137.776C134.78 130.58 139.433 120.791 139.433 110.405Z" fill="#ED8E00" stroke="black"/>
<rect x="0.5" y="-0.5" width="14.1667" height="84.2252" transform="matrix(1 0 0 -1 93.4222 148.054)" fill="#FF9900" stroke="black"/>
<rect x="0.25" y="-0.25" width="3.54444" height="14.3649" transform="matrix(1 0 0 -1 62.0778 113.869)" fill="#D9D9D9" stroke="black" stroke-width="0.5"/>
<rect x="0.25" y="-0.25" width="3.54444" height="14.3649" transform="matrix(1 0 0 -1 135.889 113.869)" fill="#D9D9D9" stroke="black" stroke-width="0.5"/>
</svg>
