<svg width="200" height="200" viewBox="0 0 200 200" fill="none" xmlns="http://www.w3.org/2000/svg">
<path d="M199 100C199 154.676 154.676 199 100 199C45.3238 199 1 154.676 1 100C1 45.3239 45.3238 1.00005 100 1.00005C154.676 1.00005 199 45.3239 199 100Z" fill="#FFE6CD" stroke="#FFE6CD" stroke-width="2"/>
<path d="M180 100C180 144.183 144.183 180 100 180C55.8172 180 20 144.183 20 100C20 55.8173 55.8172 20 100 20C144.183 20 180 55.8173 180 100Z" fill="#964B00"/>
<path d="M100 20L169.282 59.75V139.25L100 179L30.718 139.25V59.75L100 20Z" fill="#FFE6CD"/>
<rect x="62.6099" y="62.126" width="75.3524" height="75.3524" rx="4" fill="#FFE6CD" stroke="#733900" stroke-width="2"/>
<path d="M101.233 69.1425V75.8885L101.86 84.6583L99.3534 102.198L101.86 110.968L99.9799 122.436L101.233 129.857" stroke="#733900"/>
<path d="M117.524 69.1425L118.777 75.8885L117.524 83.3091L118.777 92.079L117.524 106.246V117.039L118.777 125.135L117.524 129.857" stroke="#733900"/>
<path d="M84.9423 69.1425V75.8885L83.0626 83.3091L86.1954 96.8012V103.547L84.9423 115.015L86.1954 123.785L84.9423 129.857" stroke="#733900"/>
<rect x="59" y="58" width="82.878" height="10.8044" rx="1" fill="#FFE6CD" stroke="#733900" stroke-width="2"/>
<rect x="59" y="140.878" width="82.8781" height="10.8044" rx="1" transform="rotate(-90 59 140.878)" fill="#FFE6CD" stroke="#733900" stroke-width="2"/>
<rect x="59" y="130.196" width="82.878" height="10.8044" rx="1" fill="#FFE6CD" stroke="#733900" stroke-width="2"/>
<rect x="142" y="58" width="82.8781" height="10.8044" rx="1" transform="rotate(90 142 58)" fill="#FFE6CD" stroke="#733900" stroke-width="2"/>
</svg>
