<svg width="250" height="250" viewBox="0 0 250 250" fill="none" xmlns="http://www.w3.org/2000/svg">
<mask id="path-1-inside-1_145_72" fill="white">
<path d="M0 125C0 55.9644 55.9644 0 125 0H250V250H0V125Z"/>
</mask>
<path d="M0 125C0 55.9644 55.9644 0 125 0H250V250H0V125Z" fill="#733900"/>
<path d="M-10 125C-10 50.4416 50.4416 -10 125 -10H250V10H125C61.4873 10 10 61.4873 10 125H-10ZM250 250H0H250ZM-10 250V125C-10 50.4416 50.4416 -10 125 -10V10C61.4873 10 10 61.4873 10 125V250H-10ZM250 0V250V0Z" fill="#FFE6CD" mask="url(#path-1-inside-1_145_72)"/>
<path fill-rule="evenodd" clip-rule="evenodd" d="M120 237.5H130V250H125H120V237.5ZM120 212.5H130V200C130 199.415 130.007 198.831 130.021 198.25C130.121 194.179 130.568 190.197 131.332 186.333L121.523 184.393C120.698 188.559 120.198 192.84 120.048 197.206C120.016 198.134 120 199.065 120 200V212.5ZM148.981 152.072C146.345 154.877 143.937 157.9 141.787 161.11L133.478 155.547C139.317 146.825 146.825 139.317 155.547 133.478L161.11 141.787C157.77 144.024 154.632 146.541 151.731 149.303C150.789 150.201 149.872 151.124 148.981 152.072ZM197.578 130.041C193.74 130.171 189.984 130.61 186.333 131.332L184.393 121.523C188.813 120.648 193.361 120.138 198.004 120.024C198.668 120.008 199.333 120 200 120H212.5V130H200C199.189 130 198.382 130.014 197.578 130.041ZM237.5 130H250V125V120H237.5V130Z" fill="#FFE6CD"/>
<path fill-rule="evenodd" clip-rule="evenodd" d="M250 250V240C244.478 240 240 244.478 240 250H250Z" fill="#FFE6CD"/>
</svg>
