<svg width="250" height="250" viewBox="0 0 250 250" fill="none" xmlns="http://www.w3.org/2000/svg">
<mask id="path-1-inside-1_149_1046" fill="white">
<path d="M0 250H250V0H0L0 250Z"/>
</mask>
<path d="M0 250H250V0H0L0 250Z" fill="#733900"/>
<path d="M0 250H250H0ZM250 0H0H250ZM0 0L0 250L0 0ZM260 250V0H240V250H260Z" fill="#FFE6CD" mask="url(#path-1-inside-1_149_1046)"/>
<path fill-rule="evenodd" clip-rule="evenodd" d="M130 237.5V250H125H120V237.5H130ZM130 187.5V212.5H120V187.5H130ZM130 137.5V162.5H120V137.5H130ZM130 87.5V112.5H120V87.5H130ZM130 37.5V62.5H120V37.5H130ZM120 0L120 12.5H130V0H125H120Z" fill="#FFE6CD"/>
<path fill-rule="evenodd" clip-rule="evenodd" d="M0 0L10 0C10 5.52285 5.52285 10 0 10L0 0Z" fill="#FFE6CD"/>
<path fill-rule="evenodd" clip-rule="evenodd" d="M0 250L0 240C5.52285 240 10 244.477 10 250H0Z" fill="#FFE6CD"/>
<rect x="57.3701" y="58.2803" width="134.504" height="134.504" rx="4" fill="#C16100" stroke="#733900" stroke-width="2"/>
<path d="M78.1666 61.4566C77.4994 103.403 71.3499 105.503 73.7308 131.08C76.1117 156.657 74.2537 159.967 73.0289 173.571C72.0491 184.454 72.8415 188.877 73.3602 189.728" stroke="#733900" stroke-width="2" stroke-linecap="round"/>
<path d="M97.4482 62.4668C102.567 93.0437 95.4576 103.418 97.4482 109.834C99.4389 116.249 94.4622 123.894 97.4482 145.598C99.8371 162.961 98.4436 182.135 97.4482 189.552" stroke="#733900" stroke-width="2" stroke-linecap="round"/>
<path d="M175.59 189.69C168.496 159.081 178.349 148.695 175.59 142.273C172.832 135.85 179.729 128.198 175.59 106.47C172.28 89.0881 174.211 69.8932 175.59 62.4685" stroke="#733900" stroke-width="2" stroke-linecap="round"/>
<path d="M136.628 189.69C129.534 159.081 139.387 148.695 136.628 142.273C133.87 135.85 140.767 128.198 136.628 106.47C133.318 89.0881 135.249 69.8932 136.628 62.4685" stroke="#733900" stroke-width="2" stroke-linecap="round"/>
<path d="M115.664 62.6045C117.712 82.4795 116.517 95.6385 115.664 99.7336L117.939 125.533L115.664 150.923L117.939 186.823" stroke="#733900" stroke-width="2" stroke-linecap="round"/>
<path d="M154.483 63.5596C156.531 83.4346 155.337 96.5936 154.483 100.689L156.758 126.488L154.483 151.878L156.758 187.778" stroke="#733900" stroke-width="2" stroke-linecap="round"/>
<rect x="51" y="51" width="147.785" height="20.596" rx="4" fill="#964B00" stroke="#733900" stroke-width="2"/>
<path d="M58.3877 56.7762C68.4532 58.5838 73.4161 57.5294 76.3619 56.7762L86.9966 59.3834L95.2347 53.9951" stroke="#733900" stroke-width="2" stroke-linecap="round"/>
<path d="M107.818 58.3092C117.884 57.6095 122.847 58.0176 125.793 58.3092L136.427 57.3L144.665 59.3857" stroke="#733900" stroke-width="2" stroke-linecap="round"/>
<path d="M167.456 68.2655C172.466 65.1622 175.179 64.3304 176.805 63.8824L182.011 60.3532L186.969 60.2782" stroke="#733900" stroke-width="2" stroke-linecap="round"/>
<path d="M166.317 62.6882C171.88 61.3636 174.685 61.4603 176.354 61.5667L182.209 59.8986L186.981 61.4608" stroke="#733900" stroke-width="2" stroke-linecap="round"/>
<path d="M115.305 61.2985C115.305 63.5064 111.952 65.2963 107.815 65.2963C103.679 65.2963 102.273 63.5064 102.273 61.2985C102.273 59.0906 103.679 57.3008 107.815 57.3008C110.512 59.3866 115.305 59.0906 115.305 61.2985Z" fill="#733900"/>
<ellipse cx="192.896" cy="55.7352" rx="1.19828" ry="1.56434" fill="#733900"/>
<ellipse cx="59.586" cy="67.5555" rx="1.19828" ry="1.56434" fill="#733900"/>
<ellipse cx="54.1953" cy="55.7352" rx="1.19828" ry="1.56434" fill="#733900"/>
<ellipse cx="190.498" cy="67.5555" rx="1.19828" ry="1.56434" fill="#733900"/>
<rect x="51" y="198.785" width="147.785" height="20.596" rx="4" transform="rotate(-90 51 198.785)" fill="#964B00" stroke="#733900" stroke-width="2"/>
<path d="M56.7762 191.397C58.5838 181.332 57.5294 176.369 56.7762 173.423L59.3834 162.789L53.9951 154.55" stroke="#733900" stroke-width="2" stroke-linecap="round"/>
<path d="M58.3092 141.967C57.6095 131.901 58.0176 126.938 58.3092 123.993L57.3 113.358L59.3857 105.12" stroke="#733900" stroke-width="2" stroke-linecap="round"/>
<path d="M68.2655 82.329C65.1622 77.3195 64.3304 74.6064 63.8824 72.9801L60.3532 67.7745L60.2782 62.8163" stroke="#733900" stroke-width="2" stroke-linecap="round"/>
<path d="M62.6882 83.4678C61.3636 77.9051 61.4603 75.1002 61.5667 73.4312L59.8986 67.5762L61.4608 62.8038" stroke="#733900" stroke-width="2" stroke-linecap="round"/>
<path d="M61.2985 134.48C63.5064 134.48 65.2963 137.833 65.2963 141.97C65.2963 146.106 63.5064 147.512 61.2985 147.512C59.0906 147.512 57.3008 146.106 57.3008 141.97C59.3866 139.274 59.0906 134.48 61.2985 134.48Z" fill="#733900"/>
<ellipse cx="55.7352" cy="56.8896" rx="1.19828" ry="1.56434" transform="rotate(-90 55.7352 56.8896)" fill="#733900"/>
<ellipse cx="67.5555" cy="190.199" rx="1.19828" ry="1.56434" transform="rotate(-90 67.5555 190.199)" fill="#733900"/>
<ellipse cx="55.7352" cy="195.59" rx="1.19828" ry="1.56434" transform="rotate(-90 55.7352 195.59)" fill="#733900"/>
<ellipse cx="67.5555" cy="59.2871" rx="1.19828" ry="1.56434" transform="rotate(-90 67.5555 59.2871)" fill="#733900"/>
<rect x="51" y="178.403" width="147.785" height="20.596" rx="4" fill="#964B00" stroke="#733900" stroke-width="2"/>
<path d="M58.3877 184.179C68.4532 185.987 73.4161 184.933 76.3619 184.179L86.9966 186.787L95.2347 181.398" stroke="#733900" stroke-width="2" stroke-linecap="round"/>
<path d="M107.818 185.713C117.884 185.013 122.847 185.421 125.793 185.713L136.427 184.703L144.665 186.789" stroke="#733900" stroke-width="2" stroke-linecap="round"/>
<path d="M167.456 195.669C172.466 192.565 175.179 191.734 176.805 191.286L182.011 187.757L186.969 187.681" stroke="#733900" stroke-width="2" stroke-linecap="round"/>
<path d="M166.317 190.092C171.88 188.767 174.685 188.864 176.354 188.97L182.209 187.302L186.981 188.864" stroke="#733900" stroke-width="2" stroke-linecap="round"/>
<path d="M115.305 188.702C115.305 190.91 111.952 192.7 107.815 192.7C103.679 192.7 102.273 190.91 102.273 188.702C102.273 186.494 103.679 184.704 107.815 184.704C110.512 186.79 115.305 186.494 115.305 188.702Z" fill="#733900"/>
<ellipse cx="192.896" cy="183.139" rx="1.19828" ry="1.56434" fill="#733900"/>
<ellipse cx="59.586" cy="194.959" rx="1.19828" ry="1.56434" fill="#733900"/>
<ellipse cx="54.1953" cy="183.139" rx="1.19828" ry="1.56434" fill="#733900"/>
<ellipse cx="190.498" cy="194.959" rx="1.19828" ry="1.56434" fill="#733900"/>
<rect x="199" y="51" width="147.785" height="20.596" rx="4" transform="rotate(90 199 51)" fill="#964B00" stroke="#733900" stroke-width="2"/>
<path d="M193.224 58.3877C191.416 68.4532 192.471 73.4161 193.224 76.3619L190.617 86.9966L196.005 95.2347" stroke="#733900" stroke-width="2" stroke-linecap="round"/>
<path d="M191.691 107.818C192.391 117.884 191.982 122.847 191.691 125.793L192.7 136.427L190.614 144.665" stroke="#733900" stroke-width="2" stroke-linecap="round"/>
<path d="M181.734 167.456C184.838 172.466 185.67 175.179 186.118 176.805L189.647 182.011L189.722 186.969" stroke="#733900" stroke-width="2" stroke-linecap="round"/>
<path d="M187.312 166.317C188.636 171.88 188.54 174.685 188.433 176.354L190.101 182.209L188.539 186.981" stroke="#733900" stroke-width="2" stroke-linecap="round"/>
<path d="M188.701 115.305C186.494 115.305 184.704 111.952 184.704 107.815C184.704 103.679 186.494 102.273 188.701 102.273C190.909 102.273 192.699 103.679 192.699 107.815C190.613 110.512 190.909 115.305 188.701 115.305Z" fill="#733900"/>
<ellipse cx="194.265" cy="192.896" rx="1.19828" ry="1.56434" transform="rotate(90 194.265 192.896)" fill="#733900"/>
<ellipse cx="182.444" cy="59.586" rx="1.19828" ry="1.56434" transform="rotate(90 182.444 59.586)" fill="#733900"/>
<ellipse cx="194.265" cy="54.1953" rx="1.19828" ry="1.56434" transform="rotate(90 194.265 54.1953)" fill="#733900"/>
<ellipse cx="182.444" cy="190.498" rx="1.19828" ry="1.56434" transform="rotate(90 182.444 190.498)" fill="#733900"/>
</svg>
