<svg width="150" height="150" viewBox="0 0 150 150" fill="none" xmlns="http://www.w3.org/2000/svg">
<rect x="7.37012" y="8.28027" width="134.504" height="134.504" rx="4" fill="#C16100" stroke="#733900" stroke-width="2"/>
<path d="M28.1666 11.4566C27.4994 53.4026 21.3499 55.5032 23.7308 81.0802C26.1117 106.657 24.2537 109.967 23.0289 123.571C22.0491 134.454 22.8415 138.877 23.3602 139.728" stroke="#733900" stroke-width="2" stroke-linecap="round"/>
<path d="M47.4482 12.4668C52.5672 43.0437 45.4576 53.4181 47.4482 59.8338C49.4389 66.2495 44.4622 73.8937 47.4482 95.5979C49.8371 112.961 48.4436 132.135 47.4482 139.552" stroke="#733900" stroke-width="2" stroke-linecap="round"/>
<path d="M125.59 139.69C118.496 109.081 128.349 98.6952 125.59 92.2726C122.832 85.85 129.729 78.1975 125.59 56.4701C122.28 39.0881 124.211 19.8932 125.59 12.4685" stroke="#733900" stroke-width="2" stroke-linecap="round"/>
<path d="M86.6285 139.69C79.5343 109.081 89.3873 98.6952 86.6285 92.2726C83.8696 85.85 90.7668 78.1975 86.6285 56.4701C83.3179 39.0881 85.2491 19.8932 86.6285 12.4685" stroke="#733900" stroke-width="2" stroke-linecap="round"/>
<path d="M65.6641 12.6045C67.7116 32.4795 66.5172 45.6385 65.6641 49.7336L67.9391 75.5329L65.6641 100.923L67.9391 136.823" stroke="#733900" stroke-width="2" stroke-linecap="round"/>
<path d="M104.483 13.5596C106.531 33.4346 105.337 46.5936 104.483 50.6887L106.758 76.488L104.483 101.878L106.758 137.778" stroke="#733900" stroke-width="2" stroke-linecap="round"/>
<rect x="1" y="1" width="147.785" height="20.596" rx="4" fill="#964B00" stroke="#733900" stroke-width="2"/>
<path d="M8.3877 6.77616C18.4532 8.58384 23.4161 7.52936 26.3619 6.77616L36.9966 9.38339L45.2347 3.99512" stroke="#733900" stroke-width="2" stroke-linecap="round"/>
<path d="M57.8184 8.30921C67.8839 7.60946 72.8468 8.01765 75.7925 8.30921L86.4272 7.29996L94.6654 9.38574" stroke="#733900" stroke-width="2" stroke-linecap="round"/>
<path d="M117.456 18.2655C122.466 15.1622 125.179 14.3304 126.805 13.8824L132.011 10.3532L136.969 10.2782" stroke="#733900" stroke-width="2" stroke-linecap="round"/>
<path d="M116.317 12.6882C121.88 11.3636 124.685 11.4603 126.354 11.5667L132.209 9.89858L136.981 11.4608" stroke="#733900" stroke-width="2" stroke-linecap="round"/>
<path d="M65.3047 11.2985C65.3047 13.5064 61.9517 15.2963 57.8155 15.2963C53.6793 15.2963 52.2734 13.5064 52.2734 11.2985C52.2734 9.09064 53.6793 7.30078 57.8155 7.30078C60.5116 9.38657 65.3047 9.09064 65.3047 11.2985Z" fill="#733900"/>
<ellipse cx="142.896" cy="5.73524" rx="1.19828" ry="1.56434" fill="#733900"/>
<ellipse cx="9.58597" cy="17.5555" rx="1.19828" ry="1.56434" fill="#733900"/>
<ellipse cx="4.19535" cy="5.73524" rx="1.19828" ry="1.56434" fill="#733900"/>
<ellipse cx="140.498" cy="17.5555" rx="1.19828" ry="1.56434" fill="#733900"/>
<rect x="1" y="148.785" width="147.785" height="20.596" rx="4" transform="rotate(-90 1 148.785)" fill="#964B00" stroke="#733900" stroke-width="2"/>
<path d="M6.77616 141.397C8.58384 131.332 7.52936 126.369 6.77616 123.423L9.38339 112.789L3.99512 104.55" stroke="#733900" stroke-width="2" stroke-linecap="round"/>
<path d="M8.30921 91.9668C7.60946 81.9013 8.01765 76.9384 8.30921 73.9926L7.29996 63.3579L9.38574 55.1198" stroke="#733900" stroke-width="2" stroke-linecap="round"/>
<path d="M18.2655 32.329C15.1622 27.3195 14.3304 24.6064 13.8824 22.9801L10.3532 17.7745L10.2782 12.8163" stroke="#733900" stroke-width="2" stroke-linecap="round"/>
<path d="M12.6882 33.4678C11.3636 27.9051 11.4603 25.1002 11.5667 23.4312L9.89858 17.5762L11.4608 12.8038" stroke="#733900" stroke-width="2" stroke-linecap="round"/>
<path d="M11.2985 84.4805C13.5064 84.4805 15.2963 87.8335 15.2963 91.9697C15.2963 96.1059 13.5064 97.5117 11.2985 97.5117C9.09064 97.5117 7.30078 96.1059 7.30078 91.9697C9.38657 89.2736 9.09064 84.4805 11.2985 84.4805Z" fill="#733900"/>
<ellipse cx="5.73524" cy="6.88961" rx="1.19828" ry="1.56434" transform="rotate(-90 5.73524 6.88961)" fill="#733900"/>
<ellipse cx="17.5555" cy="140.199" rx="1.19828" ry="1.56434" transform="rotate(-90 17.5555 140.199)" fill="#733900"/>
<ellipse cx="5.73524" cy="145.59" rx="1.19828" ry="1.56434" transform="rotate(-90 5.73524 145.59)" fill="#733900"/>
<ellipse cx="17.5555" cy="9.28707" rx="1.19828" ry="1.56434" transform="rotate(-90 17.5555 9.28707)" fill="#733900"/>
<rect x="1" y="128.403" width="147.785" height="20.596" rx="4" fill="#964B00" stroke="#733900" stroke-width="2"/>
<path d="M8.3877 134.179C18.4532 135.987 23.4161 134.933 26.3619 134.179L36.9966 136.787L45.2347 131.398" stroke="#733900" stroke-width="2" stroke-linecap="round"/>
<path d="M57.8184 135.713C67.8839 135.013 72.8468 135.421 75.7925 135.713L86.4272 134.703L94.6654 136.789" stroke="#733900" stroke-width="2" stroke-linecap="round"/>
<path d="M117.456 145.669C122.466 142.565 125.179 141.734 126.805 141.286L132.011 137.757L136.969 137.681" stroke="#733900" stroke-width="2" stroke-linecap="round"/>
<path d="M116.317 140.092C121.88 138.767 124.685 138.864 126.354 138.97L132.209 137.302L136.981 138.864" stroke="#733900" stroke-width="2" stroke-linecap="round"/>
<path d="M65.3047 138.702C65.3047 140.91 61.9517 142.7 57.8155 142.7C53.6793 142.7 52.2734 140.91 52.2734 138.702C52.2734 136.494 53.6793 134.704 57.8155 134.704C60.5116 136.79 65.3047 136.494 65.3047 138.702Z" fill="#733900"/>
<ellipse cx="142.896" cy="133.139" rx="1.19828" ry="1.56434" fill="#733900"/>
<ellipse cx="9.58597" cy="144.959" rx="1.19828" ry="1.56434" fill="#733900"/>
<ellipse cx="4.19535" cy="133.139" rx="1.19828" ry="1.56434" fill="#733900"/>
<ellipse cx="140.498" cy="144.959" rx="1.19828" ry="1.56434" fill="#733900"/>
<rect x="149" y="1" width="147.785" height="20.596" rx="4" transform="rotate(90 149 1)" fill="#964B00" stroke="#733900" stroke-width="2"/>
<path d="M143.224 8.3877C141.416 18.4532 142.471 23.4161 143.224 26.3619L140.617 36.9966L146.005 45.2347" stroke="#733900" stroke-width="2" stroke-linecap="round"/>
<path d="M141.691 57.8184C142.391 67.8839 141.982 72.8468 141.691 75.7925L142.7 86.4272L140.614 94.6654" stroke="#733900" stroke-width="2" stroke-linecap="round"/>
<path d="M131.734 117.456C134.838 122.466 135.67 125.179 136.118 126.805L139.647 132.011L139.722 136.969" stroke="#733900" stroke-width="2" stroke-linecap="round"/>
<path d="M137.312 116.317C138.636 121.88 138.54 124.685 138.433 126.354L140.101 132.209L138.539 136.981" stroke="#733900" stroke-width="2" stroke-linecap="round"/>
<path d="M138.701 65.3047C136.494 65.3047 134.704 61.9517 134.704 57.8155C134.704 53.6793 136.494 52.2734 138.701 52.2734C140.909 52.2734 142.699 53.6793 142.699 57.8155C140.613 60.5116 140.909 65.3047 138.701 65.3047Z" fill="#733900"/>
<ellipse cx="144.265" cy="142.896" rx="1.19828" ry="1.56434" transform="rotate(90 144.265 142.896)" fill="#733900"/>
<ellipse cx="132.444" cy="9.58597" rx="1.19828" ry="1.56434" transform="rotate(90 132.444 9.58597)" fill="#733900"/>
<ellipse cx="144.265" cy="4.19535" rx="1.19828" ry="1.56434" transform="rotate(90 144.265 4.19535)" fill="#733900"/>
<ellipse cx="132.444" cy="140.498" rx="1.19828" ry="1.56434" transform="rotate(90 132.444 140.498)" fill="#733900"/>
</svg>
