<svg width="709" height="505" viewBox="0 0 709 505" fill="none" xmlns="http://www.w3.org/2000/svg">
<g filter="url(#filter0_d_141_991)">
<rect x="53" y="53" width="604" height="400" fill="#FFE6CD"/>
</g>
<rect x="-2" y="-2" width="500.306" height="48" rx="3" transform="matrix(0 -1 -1 0 49.082 501)" fill="#964B00" stroke="#733900" stroke-width="4"/>
<path d="M37.4818 476.76C33.3218 442.87 35.7485 426.161 37.4818 416.243L31.4818 380.437L43.8818 352.7" stroke="#733900" stroke-width="4" stroke-linecap="round"/>
<path d="M33.9598 310.337C35.5702 276.448 34.6308 259.738 33.9598 249.82L36.2824 214.014L31.4824 186.278" stroke="#733900" stroke-width="4" stroke-linecap="round"/>
<path d="M11.05 109.536C18.1917 92.67 20.1059 83.5354 21.1369 78.0598L29.2585 60.5332L29.4312 43.8395" stroke="#733900" stroke-width="4" stroke-linecap="round"/>
<path d="M23.8801 113.377C26.9282 94.6485 26.7058 85.2046 26.4609 79.5854L30.2998 59.8724L26.7047 43.8043" stroke="#733900" stroke-width="4" stroke-linecap="round"/>
<path d="M27.0822 285.123C22.0012 285.123 17.8822 296.413 17.8822 310.339C17.8822 324.265 22.0012 328.998 27.0822 328.998C32.1632 328.998 36.2822 324.265 36.2822 310.339C31.4822 301.261 32.1632 285.123 27.0822 285.123Z" fill="#733900"/>
<ellipse cx="4.03445" cy="3.6" rx="4.03445" ry="3.6" transform="matrix(0 -1 -1 0 43.4824 27.9268)" fill="#733900"/>
<ellipse cx="4.03445" cy="3.6" rx="4.03445" ry="3.6" transform="matrix(0 -1 -1 0 16.2822 476.759)" fill="#733900"/>
<ellipse cx="4.03445" cy="3.6" rx="4.03445" ry="3.6" transform="matrix(0 -1 -1 0 43.4814 494.914)" fill="#733900"/>
<ellipse cx="4.03445" cy="3.6" rx="4.03445" ry="3.6" transform="matrix(0 -1 -1 0 16.2822 35.9961)" fill="#733900"/>
<rect x="2" y="2" width="500" height="48" rx="3" transform="matrix(0 1 1 0 657 0.992188)" fill="#964B00" stroke="#733900" stroke-width="4"/>
<path d="M672.6 29.2158C676.76 63.0846 674.334 79.7838 672.6 89.6958L678.6 125.48L666.2 153.2" stroke="#733900" stroke-width="4" stroke-linecap="round"/>
<path d="M676.122 195.536C674.512 229.405 675.451 246.104 676.122 256.016L673.8 291.8L678.6 319.52" stroke="#733900" stroke-width="4" stroke-linecap="round"/>
<path d="M699.032 396.215C691.89 413.071 689.976 422.201 688.945 427.673L680.824 445.189L680.651 461.872" stroke="#733900" stroke-width="4" stroke-linecap="round"/>
<path d="M686.202 392.378C683.154 411.095 683.376 420.533 683.621 426.149L679.782 445.85L683.377 461.909" stroke="#733900" stroke-width="4" stroke-linecap="round"/>
<path d="M683 220.736C688.081 220.736 692.2 209.453 692.2 195.536C692.2 181.618 688.081 176.888 683 176.888C677.919 176.888 673.8 181.618 673.8 195.536C678.6 204.608 677.919 220.736 683 220.736Z" fill="#733900"/>
<ellipse cx="4.032" cy="3.6" rx="4.032" ry="3.6" transform="matrix(0 1 1 0 666.6 477.776)" fill="#733900"/>
<ellipse cx="4.032" cy="3.6" rx="4.032" ry="3.6" transform="matrix(0 1 1 0 693.8 29.2158)" fill="#733900"/>
<ellipse cx="4.032" cy="3.6" rx="4.032" ry="3.6" transform="matrix(0 1 1 0 666.601 11.0723)" fill="#733900"/>
<ellipse cx="4.032" cy="3.6" rx="4.032" ry="3.6" transform="matrix(0 1 1 0 693.8 469.712)" fill="#733900"/>
<rect x="2" y="-2" width="705" height="48" rx="3" transform="matrix(1 0 0 -1 0 48.9912)" fill="#964B00" stroke="#733900" stroke-width="4"/>
<path d="M39.7051 37.391C87.3499 33.231 110.841 35.6577 124.785 37.391L175.124 31.391L214.119 43.791" stroke="#733900" stroke-width="4" stroke-linecap="round"/>
<path d="M273.676 33.869C321.321 35.4793 344.812 34.54 358.756 33.869L409.095 36.1916L448.09 31.3916" stroke="#733900" stroke-width="4" stroke-linecap="round"/>
<path d="M555.98 10.9591C579.692 18.1009 592.534 20.0151 600.232 21.0461L624.873 29.1677L648.343 29.3404" stroke="#733900" stroke-width="4" stroke-linecap="round"/>
<path d="M550.581 23.7893C576.912 26.8374 590.189 26.615 598.089 26.3701L625.803 30.2089L648.393 26.6139" stroke="#733900" stroke-width="4" stroke-linecap="round"/>
<path d="M309.124 26.9914C309.124 21.9104 293.253 17.7914 273.674 17.7914C254.096 17.7914 247.441 21.9104 247.441 26.9914C247.441 32.0724 254.096 36.1914 273.674 36.1914C286.436 31.3914 309.124 32.0724 309.124 26.9914Z" fill="#733900"/>
<ellipse cx="5.67215" cy="3.6" rx="5.67215" ry="3.6" transform="matrix(1 0 0 -1 670.712 43.3916)" fill="#733900"/>
<ellipse cx="5.67215" cy="3.6" rx="5.67215" ry="3.6" transform="matrix(1 0 0 -1 39.7061 16.1914)" fill="#733900"/>
<ellipse cx="5.67215" cy="3.6" rx="5.67215" ry="3.6" transform="matrix(1 0 0 -1 14.1807 43.3906)" fill="#733900"/>
<ellipse cx="5.67215" cy="3.6" rx="5.67215" ry="3.6" transform="matrix(1 0 0 -1 659.371 16.1914)" fill="#733900"/>
<rect x="2" y="-2" width="705" height="48" rx="3" transform="matrix(1 0 0 -1 0 500.992)" fill="#964B00" stroke="#733900" stroke-width="4"/>
<path d="M39.7051 489.392C87.3499 485.232 110.841 487.659 124.785 489.392L175.124 483.392L214.119 495.792" stroke="#733900" stroke-width="4" stroke-linecap="round"/>
<path d="M273.676 485.87C321.321 487.48 344.812 486.541 358.756 485.87L409.095 488.193L448.09 483.393" stroke="#733900" stroke-width="4" stroke-linecap="round"/>
<path d="M555.98 462.96C579.692 470.102 592.534 472.016 600.232 473.047L624.873 481.169L648.343 481.341" stroke="#733900" stroke-width="4" stroke-linecap="round"/>
<path d="M550.581 475.79C576.912 478.838 590.189 478.616 598.089 478.371L625.803 482.21L648.393 478.615" stroke="#733900" stroke-width="4" stroke-linecap="round"/>
<path d="M309.124 478.992C309.124 473.911 293.253 469.792 273.674 469.792C254.096 469.792 247.441 473.911 247.441 478.992C247.441 484.073 254.096 488.192 273.674 488.192C286.436 483.392 309.124 484.073 309.124 478.992Z" fill="#733900"/>
<ellipse cx="5.67215" cy="3.6" rx="5.67215" ry="3.6" transform="matrix(1 0 0 -1 670.712 495.393)" fill="#733900"/>
<ellipse cx="5.67215" cy="3.6" rx="5.67215" ry="3.6" transform="matrix(1 0 0 -1 39.7061 468.192)" fill="#733900"/>
<ellipse cx="5.67215" cy="3.6" rx="5.67215" ry="3.6" transform="matrix(1 0 0 -1 14.1807 495.392)" fill="#733900"/>
<ellipse cx="5.67215" cy="3.6" rx="5.67215" ry="3.6" transform="matrix(1 0 0 -1 659.371 468.192)" fill="#733900"/>
<defs>
<filter id="filter0_d_141_991" x="49" y="53" width="612" height="408" filterUnits="userSpaceOnUse" color-interpolation-filters="sRGB">
<feFlood flood-opacity="0" result="BackgroundImageFix"/>
<feColorMatrix in="SourceAlpha" type="matrix" values="0 0 0 0 0 0 0 0 0 0 0 0 0 0 0 0 0 0 127 0" result="hardAlpha"/>
<feOffset dy="4"/>
<feGaussianBlur stdDeviation="2"/>
<feComposite in2="hardAlpha" operator="out"/>
<feColorMatrix type="matrix" values="0 0 0 0 0 0 0 0 0 0 0 0 0 0 0 0 0 0 0.25 0"/>
<feBlend mode="normal" in2="BackgroundImageFix" result="effect1_dropShadow_141_991"/>
<feBlend mode="normal" in="SourceGraphic" in2="effect1_dropShadow_141_991" result="shape"/>
</filter>
</defs>
</svg>
