<svg width="152" height="100" viewBox="0 0 152 100" fill="none" xmlns="http://www.w3.org/2000/svg">
<path fill-rule="evenodd" clip-rule="evenodd" d="M24.3423 11.4257C22.9038 7.66811 19.2635 5 15 5C9.47715 5 5 9.47715 5 15C5 19.0677 7.42864 22.5681 10.915 24.1303C9.94059 25.4943 9.03584 26.9115 8.2059 28.3767C3.33598 25.8983 0 20.8387 0 15C0 6.71573 6.71573 0 15 0C21.1342 0 26.4083 3.68209 28.7328 8.95662C27.2226 9.70422 25.7574 10.529 24.3423 11.4257Z" fill="#FFE6CD"/>
<path fill-rule="evenodd" clip-rule="evenodd" d="M88.8179 24.1303C92.3042 22.5681 94.7328 19.0677 94.7328 15C94.7328 9.47715 90.2557 5 84.7328 5C80.4694 5 76.829 7.66811 75.3905 11.4257C73.9754 10.529 72.5102 9.70422 71 8.95662C73.3245 3.68209 78.5987 0 84.7328 0C93.0171 0 99.7328 6.71573 99.7328 15C99.7328 20.8387 96.3969 25.8983 91.5269 28.3767C90.697 26.9115 89.7922 25.4943 88.8179 24.1303Z" fill="#FFE6CD"/>
<circle cx="50" cy="52" r="45.5" stroke="#FFE6CD" stroke-width="5"/>
<rect x="64" y="38" width="54" height="28" rx="8" fill="#FFE6CD"/>
<rect x="36" y="38" width="6" height="28" rx="3" fill="#FFE6CD"/>
<rect x="46" y="38" width="14" height="28" rx="7" fill="#FFE6CD"/>
<path d="M148.225 49.4991C150.016 50.6855 150.016 53.3145 148.225 54.5009L110.907 79.2255C108.913 80.5468 106.25 79.1168 106.25 76.7246V27.2754C106.25 24.8832 108.913 23.4532 110.907 24.7745L148.225 49.4991Z" fill="#FFE6CD"/>
</svg>
