<svg width="215" height="248" viewBox="0 0 215 248" fill="none" xmlns="http://www.w3.org/2000/svg">
<path d="M106.5 248L56.7035 210.5H156.296L106.5 248Z" fill="#D9D9D9"/>
<mask id="mask0_175_180" style="mask-type:alpha" maskUnits="userSpaceOnUse" x="0" y="0" width="215" height="210">
<rect width="215" height="210" rx="15" fill="#D9D9D9"/>
</mask>
<g mask="url(#mask0_175_180)">
<rect x="-21.499" y="-21" width="258" height="252" fill="#FFF500"/>
<line y1="-11" x2="208.643" y2="-11" transform="matrix(0.715376 0.698739 -0.715376 0.698739 -96.3193 136.921)" stroke="black" stroke-width="22"/>
<line y1="-11" x2="208.643" y2="-11" transform="matrix(0.715376 0.698739 -0.715376 0.698739 -96.3193 136.921)" stroke="black" stroke-width="22"/>
<line y1="-11" x2="208.643" y2="-11" transform="matrix(0.715376 0.698739 -0.715376 0.698739 -74.8193 105)" stroke="black" stroke-width="22"/>
<line y1="-11" x2="297.474" y2="-11" transform="matrix(0.715376 0.698739 -0.715376 0.698739 -41.709 80.6406)" stroke="black" stroke-width="22"/>
<line y1="-11" x2="382.526" y2="-11" transform="matrix(0.715376 0.698739 -0.715376 0.698739 -29.2393 -15.54)" stroke="black" stroke-width="22"/>
<line y1="-11" x2="382.526" y2="-11" transform="matrix(0.715376 0.698739 -0.715376 0.698739 99.7607 -110.46)" stroke="black" stroke-width="22"/>
<line y1="-11" x2="382.526" y2="-11" transform="matrix(0.715376 0.698739 -0.715376 0.698739 64.501 -92.8203)" stroke="black" stroke-width="22"/>
<line y1="-11" x2="382.526" y2="-11" transform="matrix(0.715376 0.698739 -0.715376 0.698739 34.4004 -67.2002)" stroke="black" stroke-width="22"/>
<line y1="-11" x2="382.526" y2="-11" transform="matrix(0.715376 0.698739 -0.715376 0.698739 0.000976562 -44.5195)" stroke="black" stroke-width="22"/>
<line y1="-11" x2="382.526" y2="-11" transform="matrix(0.715376 0.698739 -0.715376 0.698739 -58.4785 10.0801)" stroke="black" stroke-width="22"/>
</g>
<rect x="19.3506" y="18.8994" width="176.3" height="172.2" rx="10" fill="#CFCFCF"/>
</svg>
