<svg width="500" height="171" viewBox="0 0 500 171" fill="none" xmlns="http://www.w3.org/2000/svg">
<path fill-rule="evenodd" clip-rule="evenodd" d="M0 16.9637V83.8582C6.4248 83.1502 12.8467 82.4774 19.2617 81.8367C22.0098 81.5623 24.46 83.5672 24.7344 86.3153C25.0088 89.0623 23.0029 91.5125 20.2559 91.7869C17.4658 92.0653 14.6748 92.3504 11.8838 92.6414C9.60742 92.8787 7.33008 93.1209 5.05273 93.367C3.36914 93.5487 1.68457 93.7332 0 93.9197V171H500V9.826C405.146 0.587714 197.455 -8.69842 0 16.9637ZM269.871 81.0887C256.284 80.9764 242.371 80.9676 228.184 81.0789C225.422 81.1004 223.166 78.8787 223.145 76.118C223.123 73.3563 225.344 71.1004 228.105 71.0789C242.348 70.9676 256.314 70.9764 269.953 71.0887C272.715 71.1112 274.935 73.368 274.912 76.1297C274.889 78.8904 272.632 81.1112 269.871 81.0887ZM191.42 76.6248C191.487 79.3856 189.304 81.6776 186.543 81.7449C172.845 82.077 158.95 82.5281 144.903 83.1102C142.144 83.2244 139.814 81.0809 139.7 78.3211C139.586 75.5623 141.729 73.2332 144.489 73.119C149.019 72.9315 153.532 72.7567 158.028 72.5955C167.534 72.2557 176.963 71.9744 186.301 71.7479C189.061 71.6805 191.354 73.8641 191.42 76.6248ZM306.654 76.6424C306.721 73.8817 309.013 71.6981 311.773 71.7645C326.219 72.1131 340.184 72.5692 353.597 73.1092C356.355 73.2205 358.502 75.5477 358.391 78.3065C358.28 81.0662 355.953 83.2127 353.193 83.1014C339.834 82.5633 325.923 82.1082 311.532 81.7615C308.771 81.6951 306.588 79.4031 306.654 76.6424ZM390.097 79.8514C390.256 77.0945 392.619 74.9881 395.376 75.1473C410.302 76.0047 424.27 76.952 437.144 77.9461C439.897 78.158 441.957 80.5623 441.744 83.3153C441.532 86.0692 439.128 88.1287 436.375 87.9158C432.905 87.6483 429.354 87.3836 425.726 87.1229C423.517 86.9647 421.278 86.8084 419.012 86.6531C415.123 86.3875 411.151 86.1268 407.1 85.8719C403.078 85.618 398.978 85.3709 394.802 85.1307C392.045 84.9725 389.938 82.6082 390.097 79.8514ZM107.986 79.9197C108.151 82.6766 106.05 85.0447 103.293 85.2088C89.5312 86.0291 75.667 86.9832 61.7363 88.0838C58.9834 88.3006 56.5752 86.2459 56.3584 83.493C56.1406 80.7401 58.1963 78.3319 60.9492 78.1141C74.9463 77.0086 88.875 76.0506 102.698 75.2264C105.455 75.0623 107.822 77.1639 107.986 79.9197ZM473.376 86.1365C473.661 83.3895 476.119 81.3944 478.865 81.6795C481.922 81.9969 484.861 82.3133 487.682 82.6278C491.94 83.1033 495.925 83.575 499.622 84.0389L498.378 93.9608C495.329 93.5789 492.076 93.1903 488.629 92.7977C485.219 92.41 481.618 92.0184 477.833 91.6258C475.087 91.3406 473.091 88.8836 473.376 86.1365Z" fill="#733900"/>
</svg>
