<svg width="300" height="300" viewBox="0 0 300 300" fill="none" xmlns="http://www.w3.org/2000/svg">
<path d="M81.2179 86H218.998C227.709 86 234.588 93.396 233.958 102.085L222.358 262.085C221.79 269.927 215.261 276 207.398 276H94.4179C86.6119 276 80.1106 270.013 79.4687 262.233L66.2687 102.233C65.5476 93.4923 72.4473 86 81.2179 86Z" fill="#D9D9D9" stroke="#929292" stroke-width="10"/>
<path d="M106 115L113 247" stroke="#929292" stroke-width="10" stroke-linecap="round"/>
<path d="M150 247.186V114.996" stroke="#929292" stroke-width="10" stroke-linecap="round"/>
<path d="M186 246L193 114" stroke="#929292" stroke-width="10" stroke-linecap="round"/>
<path d="M182 43C182 47.7116 179.135 52.5893 173.243 56.5174C167.386 60.4223 159.006 63 149.5 63C139.994 63 131.614 60.4223 125.757 56.5174C119.865 52.5893 117 47.7116 117 43C117 38.2884 119.865 33.4107 125.757 29.4826C131.614 25.5777 139.994 23 149.5 23C159.006 23 167.386 25.5777 173.243 29.4826C179.135 33.4107 182 38.2884 182 43Z" stroke="#929292" stroke-width="10"/>
<path d="M68.8484 48H231.929C234.154 48 236.112 49.4713 236.731 51.6092L240.496 64.6092C241.422 67.8071 239.023 71 235.693 71H64.1979C60.7391 71 58.3251 67.5725 59.4901 64.3159L64.1405 51.3159C64.852 49.3272 66.7363 48 68.8484 48Z" fill="#D9D9D9" stroke="#929292" stroke-width="10"/>
</svg>
