<svg width="140" height="138" viewBox="0 0 140 138" fill="none" xmlns="http://www.w3.org/2000/svg">
<path d="M88.5096 47.5237L75.6894 9.24353C73.861 3.78401 66.139 3.78414 64.3106 9.24353L51.4904 47.5237L11.1221 47.8872C5.36479 47.9391 2.97868 55.2832 7.60587 58.7091L40.0508 82.7311L27.9221 121.236C26.1922 126.727 32.4396 131.266 37.1277 127.924L70 104.49L102.872 127.924C107.561 131.266 113.808 126.727 112.078 121.236L99.9492 82.7311L132.394 58.7091C137.021 55.2831 134.635 47.9391 128.878 47.8872L88.5096 47.5237Z" stroke="#FFE6CD" stroke-width="10"/>
<path d="M56.326 86.3405L66.8282 75.1092C67.0631 74.8608 67.0631 74.6124 66.8282 74.364L56.467 64.4102C54.8223 62.8488 54 61.0567 54 59.034C54 58.2179 54.3994 57.5082 55.1982 56.9049C55.9971 56.3016 56.9369 56 58.0176 56H81.9824C83.0631 56 84.0029 56.3016 84.8018 56.9049C85.6006 57.5082 86 58.2179 86 59.034C86 59.8502 85.6006 60.5599 84.8018 61.1632C84.0029 61.731 83.0631 62.0149 81.9824 62.0149H65.4185C65.3245 62.0149 65.254 62.0681 65.207 62.1746C65.1601 62.2455 65.1601 62.3165 65.207 62.3875L75.4978 72.3413C76.2496 73.0155 76.6256 73.814 76.6256 74.7366C76.6725 75.6592 76.3671 76.4754 75.7093 77.1851L65.207 88.4697C64.9721 88.7181 65.0426 88.8423 65.4185 88.8423H81.9824C83.0631 88.8423 84.0029 89.1439 84.8018 89.7472C85.6006 90.3149 86 91.0069 86 91.8231C86 92.6393 85.6006 93.349 84.8018 93.9522C84.0029 94.5555 83.0631 94.8571 81.9824 94.8571H58.0176C56.9369 94.8571 55.9971 94.5555 55.1982 93.9522C54.3994 93.349 54 92.6393 54 91.8231C54 89.8359 54.7753 88.0083 56.326 86.3405Z" fill="#FFE6CD"/>
</svg>
