<svg width="80" height="80" viewBox="0 0 80 80" fill="none" xmlns="http://www.w3.org/2000/svg">
<mask id="path-1-inside-1_9_156" fill="white">
<path fill-rule="evenodd" clip-rule="evenodd" d="M40 80C62.0914 80 80 62.0914 80 40C80 17.9086 62.0914 0 40 0C17.9086 0 0 17.9086 0 40C0 62.0914 17.9086 80 40 80ZM40 70C56.5685 70 70 56.5685 70 40C70 23.4315 56.5685 10 40 10C23.4315 10 10 23.4315 10 40C10 56.5685 23.4315 70 40 70Z"/>
</mask>
<path fill-rule="evenodd" clip-rule="evenodd" d="M40 80C62.0914 80 80 62.0914 80 40C80 17.9086 62.0914 0 40 0C17.9086 0 0 17.9086 0 40C0 62.0914 17.9086 80 40 80ZM40 70C56.5685 70 70 56.5685 70 40C70 23.4315 56.5685 10 40 10C23.4315 10 10 23.4315 10 40C10 56.5685 23.4315 70 40 70Z" fill="#EFF793"/>
<path d="M79 40C79 61.5391 61.5391 79 40 79V81C62.6437 81 81 62.6437 81 40H79ZM40 1C61.5391 1 79 18.4609 79 40H81C81 17.3563 62.6437 -1 40 -1V1ZM1 40C1 18.4609 18.4609 1 40 1V-1C17.3563 -1 -1 17.3563 -1 40H1ZM40 79C18.4609 79 1 61.5391 1 40H-1C-1 62.6437 17.3563 81 40 81V79ZM69 40C69 56.0163 56.0163 69 40 69V71C57.1208 71 71 57.1208 71 40H69ZM40 11C56.0163 11 69 23.9837 69 40H71C71 22.8792 57.1208 9 40 9V11ZM11 40C11 23.9837 23.9837 11 40 11V9C22.8792 9 9 22.8792 9 40H11ZM40 69C23.9837 69 11 56.0163 11 40H9C9 57.1208 22.8792 71 40 71V69Z" fill="white" mask="url(#path-1-inside-1_9_156)"/>
</svg>
