<svg width="95" height="95" viewBox="0 0 95 95" fill="none" xmlns="http://www.w3.org/2000/svg">
<circle cx="47.5" cy="47.5" r="47" fill="#18E3F0" stroke="black"/>
<path d="M93.575 38.475C93.575 56.525 68.5876 24.225 47.0761 24.225C25.5646 24.225 1.42502 54.15 1.42502 38.475C4.75002 22.8 19.475 0.474998 47.0761 0.474998C76 0.474998 91.2 24.7 93.575 38.475Z" fill="black"/>
<line x1="25.1203" y1="32.4796" x2="38.5615" y2="1.32429" stroke="#7C7C7C" stroke-linecap="round"/>
<line x1="28.0109" y1="31.8328" x2="41.371" y2="0.870533" stroke="#7C7C7C" stroke-linecap="round"/>
<path d="M45.2446 25.7531C46.2832 27.7407 40.1536 32.9948 31.5538 37.4885C22.954 41.9821 15.1405 44.0137 14.1019 42.026C11.4 40.375 15.2 37.2247 27.55 30.4C36.8073 25.2844 45.2446 23.275 45.2446 25.7531Z" fill="#18E3F0"/>
</svg>
