<svg width="103" height="126" viewBox="0 0 103 126" fill="none" xmlns="http://www.w3.org/2000/svg">
<path d="M93.5261 61.0337V61.0574L93.5283 61.0809C94.3841 70.0984 96.7135 77.4048 98.7808 83.5284C98.9335 83.9806 99.0846 84.4259 99.2334 84.8646C100.095 87.4029 100.882 89.7224 101.469 91.8848C102.158 94.419 102.562 96.7017 102.492 98.8193C102.423 100.927 101.884 102.879 100.672 104.757C99.455 106.643 97.5442 108.479 94.6951 110.326C88.9858 114.027 79.5994 117.715 64.7722 121.927C56.1193 124.385 46.8694 124.141 38.3051 121.37C24.5982 116.935 15.9358 113.5 10.6689 110.213C8.04091 108.573 6.28723 106.987 5.17329 105.358C4.06559 103.738 3.57334 102.052 3.50766 100.174C3.44152 98.2835 3.8077 96.1935 4.43373 93.7743C4.86902 92.0921 5.42282 90.2756 6.03349 88.2725C6.30245 87.3903 6.58244 86.4719 6.8682 85.5129C8.73273 79.2552 10.8042 71.3881 11.4728 61.066L11.4739 61.0499L11.4739 61.0337C11.4739 52.4163 10.7601 45.066 10.1499 38.7822C10.0536 37.7906 9.95989 36.8256 9.87197 35.8863C9.22442 28.9686 8.8997 23.5064 10.1026 19.0542C11.2911 14.6554 13.9845 11.2058 19.5078 8.35716C25.0619 5.49261 33.4544 3.24947 45.9944 1.30049C49.6201 0.736969 53.3378 0.64994 56.9894 1.02589C71.9173 2.56282 81.6266 4.63718 87.815 7.47344C90.9021 8.88828 93.0917 10.4835 94.6159 12.2774C96.1366 14.0672 97.0147 16.078 97.4454 18.358C98.3143 22.9582 97.3611 28.6077 96.1554 35.6854L96.1495 35.7202C94.9508 42.7571 93.5261 51.1215 93.5261 61.0337Z" fill="#C17834" stroke="black"/>
<g filter="url(#filter0_d_17_103)">
<path d="M51.9831 98C39.346 98 23 78.6875 23 62.6335C23 46.5795 34.1864 21.9379 51.9831 20C68.2542 21.9379 83 46.5795 83 62.6335C83 78.6875 64.6201 98 51.9831 98Z" fill="#D18035"/>
<path d="M51.9831 97.5C45.8891 97.5 38.7709 92.8132 33.1376 86.0179C27.5185 79.2399 23.5 70.5074 23.5 62.6335C23.5 54.7048 26.2679 44.6186 31.2471 36.2796C36.2203 27.9505 43.3319 21.4699 51.9805 20.5033C59.8812 21.4708 67.503 27.959 73.1798 36.3045C78.8619 44.6576 82.5 54.7349 82.5 62.6335C82.5 70.4891 77.9896 79.2161 71.8594 86.0018C68.8008 89.3875 65.3571 92.2688 61.907 94.3007C58.4514 96.3359 55.0219 97.5 51.9831 97.5Z" stroke="black"/>
</g>
<path d="M37 40L41.364 37.5894C43.2331 36.557 44.7226 34.9534 45.6145 33.0134L48.3793 27L49.6769 25.2081C50.8627 23.5706 53.2661 23.4687 54.5862 25V25L56.1584 31.0791C56.8088 33.5938 58.4121 35.7568 60.629 37.1103L67 41" stroke="#914C0D"/>
<g filter="url(#filter1_d_17_103)">
<path d="M9.4 28L14.35 51.5649L15.524 61.1462C15.8402 63.7261 15.8402 66.335 15.524 68.9148L15.2747 70.9495C14.6717 75.8707 12.6279 80.5039 9.4 84.2672V84.2672L5 91" stroke="black" stroke-linecap="round"/>
</g>
<g filter="url(#filter2_d_17_103)">
<path d="M97 19L94.1579 33.1204L92.4577 38.6131C91.3829 42.0855 90.6258 45.6484 90.1958 49.2577L89.4822 55.2482C88.5046 63.4549 89.233 71.7751 91.6218 79.6871L92.2632 81.8115L95.4812 90.7429C96.4815 93.519 96.8589 96.4812 96.5866 99.4195V99.4195C96.2377 103.186 94.8343 106.777 92.5374 109.782L90.8421 112" stroke="black"/>
</g>
<defs>
<filter id="filter0_d_17_103" x="19" y="20" width="68" height="86" filterUnits="userSpaceOnUse" color-interpolation-filters="sRGB">
<feFlood flood-opacity="0" result="BackgroundImageFix"/>
<feColorMatrix in="SourceAlpha" type="matrix" values="0 0 0 0 0 0 0 0 0 0 0 0 0 0 0 0 0 0 127 0" result="hardAlpha"/>
<feOffset dy="4"/>
<feGaussianBlur stdDeviation="2"/>
<feComposite in2="hardAlpha" operator="out"/>
<feColorMatrix type="matrix" values="0 0 0 0 0 0 0 0 0 0 0 0 0 0 0 0 0 0 0.25 0"/>
<feBlend mode="normal" in2="BackgroundImageFix" result="effect1_dropShadow_17_103"/>
<feBlend mode="normal" in="SourceGraphic" in2="effect1_dropShadow_17_103" result="shape"/>
</filter>
<filter id="filter1_d_17_103" x="0.499939" y="27.4999" width="19.7612" height="72.0002" filterUnits="userSpaceOnUse" color-interpolation-filters="sRGB">
<feFlood flood-opacity="0" result="BackgroundImageFix"/>
<feColorMatrix in="SourceAlpha" type="matrix" values="0 0 0 0 0 0 0 0 0 0 0 0 0 0 0 0 0 0 127 0" result="hardAlpha"/>
<feOffset dy="4"/>
<feGaussianBlur stdDeviation="2"/>
<feComposite in2="hardAlpha" operator="out"/>
<feColorMatrix type="matrix" values="0 0 0 0 0 0 0 0 0 0 0 0 0 0 0 0 0 0 0.25 0"/>
<feBlend mode="normal" in2="BackgroundImageFix" result="effect1_dropShadow_17_103"/>
<feBlend mode="normal" in="SourceGraphic" in2="effect1_dropShadow_17_103" result="shape"/>
</filter>
<filter id="filter2_d_17_103" x="84.561" y="18.9013" width="16.9292" height="101.402" filterUnits="userSpaceOnUse" color-interpolation-filters="sRGB">
<feFlood flood-opacity="0" result="BackgroundImageFix"/>
<feColorMatrix in="SourceAlpha" type="matrix" values="0 0 0 0 0 0 0 0 0 0 0 0 0 0 0 0 0 0 127 0" result="hardAlpha"/>
<feOffset dy="4"/>
<feGaussianBlur stdDeviation="2"/>
<feComposite in2="hardAlpha" operator="out"/>
<feColorMatrix type="matrix" values="0 0 0 0 0 0 0 0 0 0 0 0 0 0 0 0 0 0 0.25 0"/>
<feBlend mode="normal" in2="BackgroundImageFix" result="effect1_dropShadow_17_103"/>
<feBlend mode="normal" in="SourceGraphic" in2="effect1_dropShadow_17_103" result="shape"/>
</filter>
</defs>
</svg>
