<svg width="90" height="90" viewBox="0 0 90 90" fill="none" xmlns="http://www.w3.org/2000/svg">
<path d="M44.9135 0L52.3886 8.55091L49.5334 22.3866H40.2936L37.4383 8.55091L44.9135 0Z" fill="#CEB324"/>
<path d="M26.1967 4.4385L36.8181 9.00282L39.9188 23.2152L31.2139 27.4345L22.7332 15.8299L26.1967 4.4385Z" fill="#CEB324"/>
<path d="M10.9711 16.6973L22.453 16.168L31.0416 27.6866L24.8677 35.3347L12.4635 28.543L10.9711 16.6973Z" fill="#CEB324"/>
<path d="M2.11465 34.5313L12.3056 29.0076L24.7727 35.674L22.2868 45.3177L8.28332 44.6115L2.11465 34.5313Z" fill="#CEB324"/>
<path d="M87.8853 34.5312L81.7167 44.6115L67.7132 45.3177L65.2273 35.674L77.6944 29.0076L87.8853 34.5312Z" fill="#CEB324"/>
<path d="M78.7699 16.6973L77.2775 28.543L64.8732 35.3347L58.6993 27.6866L67.288 16.168L78.7699 16.6973Z" fill="#CEB324"/>
<path d="M63.5178 4.43852L66.9813 15.83L58.5006 27.4346L49.7957 23.2152L52.8964 9.00283L63.5178 4.43852Z" fill="#CEB324"/>
<path d="M44.9135 90L52.3886 81.4491L49.5334 67.6134H40.2936L37.4383 81.4491L44.9135 90Z" fill="#CEB324"/>
<path d="M26.1967 85.6561L36.8181 81.0918L39.9188 66.8795L31.2139 62.6601L22.7332 74.2647L26.1967 85.6561Z" fill="#CEB324"/>
<path d="M10.9711 73.3974L22.453 73.9266L31.0416 62.408L24.8677 54.7599L12.4635 61.5517L10.9711 73.3974Z" fill="#CEB324"/>
<path d="M2.11465 55.5634L12.3056 61.0871L24.7727 54.4206L22.2868 44.7769L8.28332 45.4832L2.11465 55.5634Z" fill="#CEB324"/>
<path d="M87.8853 55.5634L81.7167 45.4832L67.7132 44.7769L65.2273 54.4206L77.6944 61.0871L87.8853 55.5634Z" fill="#CEB324"/>
<path d="M78.7699 73.3974L77.2775 61.5517L64.8732 54.7599L58.6993 62.408L67.288 73.9266L78.7699 73.3974Z" fill="#CEB324"/>
<path d="M63.5178 85.6561L66.9813 74.2647L58.5006 62.6601L49.7957 66.8795L52.8964 81.0918L63.5178 85.6561Z" fill="#CEB324"/>
<path d="M44.9135 0L52.3886 8.55091L49.5334 22.3866H40.2936L37.4383 8.55091L44.9135 0Z" fill="#CEB324"/>
<path d="M26.1967 4.4385L36.8181 9.00282L39.9188 23.2152L31.2139 27.4345L22.7332 15.8299L26.1967 4.4385Z" fill="#CEB324"/>
<path d="M10.9711 16.6973L22.453 16.168L31.0416 27.6866L24.8677 35.3347L12.4635 28.543L10.9711 16.6973Z" fill="#CEB324"/>
<path d="M2.11465 34.5313L12.3056 29.0076L24.7727 35.674L22.2868 45.3177L8.28332 44.6115L2.11465 34.5313Z" fill="#CEB324"/>
<path d="M87.8853 34.5312L81.7167 44.6115L67.7132 45.3177L65.2273 35.674L77.6944 29.0076L87.8853 34.5312Z" fill="#CEB324"/>
<path d="M78.7699 16.6973L77.2775 28.543L64.8732 35.3347L58.6993 27.6866L67.288 16.168L78.7699 16.6973Z" fill="#CEB324"/>
<path d="M63.5178 4.43852L66.9813 15.83L58.5006 27.4346L49.7957 23.2152L52.8964 9.00283L63.5178 4.43852Z" fill="#CEB324"/>
<path d="M44.9135 90L52.3886 81.4491L49.5334 67.6134H40.2936L37.4383 81.4491L44.9135 90Z" fill="#CEB324"/>
<path d="M26.1967 85.6561L36.8181 81.0918L39.9188 66.8795L31.2139 62.6601L22.7332 74.2647L26.1967 85.6561Z" fill="#CEB324"/>
<path d="M10.9711 73.3974L22.453 73.9266L31.0416 62.408L24.8677 54.7599L12.4635 61.5517L10.9711 73.3974Z" fill="#CEB324"/>
<path d="M2.11465 55.5634L12.3056 61.0871L24.7727 54.4206L22.2868 44.7769L8.28332 45.4832L2.11465 55.5634Z" fill="#CEB324"/>
<path d="M87.8853 55.5634L81.7167 45.4832L67.7132 44.7769L65.2273 54.4206L77.6944 61.0871L87.8853 55.5634Z" fill="#CEB324"/>
<path d="M78.7699 73.3974L77.2775 61.5517L64.8732 54.7599L58.6993 62.408L67.288 73.9266L78.7699 73.3974Z" fill="#CEB324"/>
<path d="M63.5178 85.6561L66.9813 74.2647L58.5006 62.6601L49.7957 66.8795L52.8964 81.0918L63.5178 85.6561Z" fill="#CEB324"/>
</svg>
