<svg width="161" height="139" viewBox="0 0 161 139" fill="none" xmlns="http://www.w3.org/2000/svg">
<path d="M51.8867 98.9783H108.622C115.195 98.9783 121.25 95.4074 124.43 89.6547C126.641 85.6546 127.254 80.9649 126.145 76.5309L113.727 26.9081C109.844 11.3871 95.8965 0.499996 79.897 0.499996C63.5206 0.499996 49.3503 11.8949 45.836 27.8897L34.8671 77.8133C34.0635 81.4707 34.4595 85.2897 35.9963 88.7044C38.8104 94.9571 45.0299 98.9783 51.8867 98.9783Z" fill="#D10000" stroke="black"/>
<g filter="url(#filter0_d_14_36)">
<ellipse cx="45.8654" cy="45.7826" rx="45.8654" ry="45.7826" transform="matrix(1 0 0 -1 34.6346 130)" fill="#DF0000"/>
<path d="M80.5 37.9348C106.106 37.9348 126.865 58.6554 126.865 84.2174C126.865 109.779 106.106 130.5 80.5 130.5C54.894 130.5 34.1346 109.779 34.1346 84.2174C34.1346 58.6554 54.894 37.9348 80.5 37.9348Z" stroke="black"/>
</g>
<ellipse cx="15.2885" cy="15" rx="15.2885" ry="15" transform="matrix(1 0 0 -1 1 99)" fill="#D9D9D9" stroke="black"/>
<ellipse cx="15.2885" cy="15" rx="15.2885" ry="15" transform="matrix(1 0 0 -1 129.423 99)" fill="#D9D9D9" stroke="black"/>
<line y1="-2" x2="10" y2="-2" transform="matrix(0 -1 -1 0 30.5577 89)" stroke="black" stroke-width="4"/>
<line y1="-2" x2="10" y2="-2" transform="matrix(0 -1 -1 0 126.365 89)" stroke="black" stroke-width="4"/>
<path d="M34.6346 89H56.077C57.1815 89 58.077 88.1046 58.077 87V81C58.077 79.8954 57.1815 79 56.077 79H34.6346V89Z" fill="black"/>
<path d="M126.365 89H104.923C103.818 89 102.923 88.1046 102.923 87V81C102.923 79.8954 103.818 79 104.923 79H126.365V89Z" fill="black"/>
<path d="M22.9654 89.9328C20.8116 85.4012 19.5709 85.9688 18.0404 86.6691C16.5099 87.3693 15.2692 87.9369 17.4229 92.4685C18.6124 94.9712 20.8174 96.4324 22.3479 95.7321C23.8784 95.0319 24.1548 92.4355 22.9654 89.9328Z" fill="black"/>
<path d="M143.235 92.4685C145.388 87.9369 144.148 87.3693 142.617 86.6691C141.087 85.9689 139.846 85.4012 137.692 89.9328C136.503 92.4355 136.779 95.0319 138.31 95.7321C139.84 96.4324 142.045 94.9712 143.235 92.4685Z" fill="black"/>
<path d="M16.7976 88.5L22.4045 89.3371C32.1075 90.7858 41.0258 83.9636 41.9628 74.3757L42.1074 72.8963C43.0361 63.3943 51.8113 56.5906 61.4449 57.9034L80.4999 60.5" stroke="white" stroke-width="2" stroke-linecap="round"/>
<path d="M143.692 88L139.471 88.7895C129.578 90.6399 120.242 83.7706 119.28 73.9345L119.189 72.9995C118.265 63.5463 109.571 56.7536 99.9774 57.9899L80.5 60.5" stroke="white" stroke-width="2" stroke-linecap="round"/>
<path d="M80.5 60V76L81.7336 84.7751C82.261 88.5267 81.8002 92.351 80.3968 95.8699V95.8699C78.8027 99.8668 78.4289 104.247 79.3227 108.456L79.8445 110.913C80.2803 112.965 80.5 115.058 80.5 117.156V118" stroke="white" stroke-width="2"/>
<path d="M79.5875 70.7381C79.6975 71.9307 81.4298 71.957 81.5759 70.7683L82.7149 61.5L85.4227 60.9822C86.6141 60.7544 86.4479 59 85.2349 59H76.334C75.1261 59 74.9535 60.7438 76.1379 60.9806L78.736 61.5L79.5875 70.7381Z" fill="black" fill-opacity="0.75"/>
<path d="M57.7013 6.23466C58.124 6.59013 58.1785 7.22094 57.823 7.64363C57.4676 8.06631 56.8367 8.1208 56.4141 7.76534L57.7013 6.23466ZM79.7643 120.011L80.5727 120.599L79.7643 120.011ZM38.581 111.201L37.6646 111.602L38.581 111.201ZM42.9995 118.094L43.7458 117.428L42.9995 118.094ZM54.5646 4.90338L53.921 5.66872L54.5646 4.90338ZM44.6297 7.11283L43.8126 6.53629L44.6297 7.11283ZM43.1625 11.3057L42.1642 11.247L43.1625 11.3057ZM40.9159 38.7673L41.8912 38.9882L40.9159 38.7673ZM41.996 31.1439L40.9977 31.0852L41.996 31.1439ZM38.3387 50.146L39.314 50.3669L38.3387 50.146ZM36.5876 55.7097L37.5136 56.0873L36.5876 55.7097ZM43.4795 118.632L42.7331 119.298L43.4795 118.632ZM45.3482 6.09462L46.1652 6.67116L45.3482 6.09462ZM41.8912 38.9882L39.314 50.3669L37.3634 49.9251L39.9406 38.5464L41.8912 38.9882ZM35.0004 70.8143L36.352 98.3311L34.3544 98.4293L33.0028 70.9124L35.0004 70.8143ZM46.1652 6.67116L45.4468 7.68937L43.8126 6.53629L44.5311 5.51808L46.1652 6.67116ZM44.1608 11.3644L42.9942 31.2026L40.9977 31.0852L42.1642 11.247L44.1608 11.3644ZM56.4141 7.76534L53.921 5.66872L55.2082 4.13804L57.7013 6.23466L56.4141 7.76534ZM75.0727 123.119L76.0505 122.508L77.1097 124.205L76.1319 124.815L75.0727 123.119ZM61.4657 125.355L68.4769 125.126L68.5422 127.125L61.5311 127.354L61.4657 125.355ZM39.0229 109.715L39.4974 110.801L37.6646 111.602L37.1901 110.515L39.0229 109.715ZM43.7458 117.428L44.2258 117.966L42.7331 119.298L42.2532 118.759L43.7458 117.428ZM78.0953 120.604L78.9558 119.422L80.5727 120.599L79.7122 121.781L78.0953 120.604ZM79.5 117.75L79.5 116.5L81.5 116.5L81.5 117.75L79.5 117.75ZM78.9558 119.422C79.3095 118.936 79.5 118.351 79.5 117.75L81.5 117.75C81.5 118.774 81.1754 119.771 80.5727 120.599L78.9558 119.422ZM39.4974 110.801C40.5544 113.221 41.9883 115.458 43.7458 117.428L42.2532 118.759C40.355 116.631 38.8062 114.215 37.6646 111.602L39.4974 110.801ZM53.2192 124.049C55.8602 125.004 58.6589 125.447 61.4657 125.355L61.5311 127.354C58.4706 127.454 55.419 126.971 52.5393 125.93L53.2192 124.049ZM76.1319 124.815C73.8496 126.24 71.2314 127.037 68.5422 127.125L68.4769 125.126C70.8139 125.05 73.0892 124.357 75.0727 123.119L76.1319 124.815ZM76.0505 122.508C76.8479 122.01 77.5421 121.364 78.0953 120.604L79.7122 121.781C79.0081 122.748 78.1245 123.571 77.1097 124.205L76.0505 122.508ZM53.921 5.66872C53.3256 5.16803 52.6275 4.80429 51.876 4.60321L52.393 2.67118C53.4275 2.948 54.3886 3.44876 55.2082 4.13804L53.921 5.66872ZM45.4468 7.68937C44.6839 8.77054 44.2384 10.0435 44.1608 11.3644L42.1642 11.247C42.2638 9.5538 42.8347 7.92214 43.8126 6.53629L45.4468 7.68937ZM37.5136 56.0873C35.611 60.754 34.7532 65.7807 35.0004 70.8143L33.0028 70.9124C32.7413 65.5872 33.6487 60.2693 35.6616 55.3322L37.5136 56.0873ZM39.9406 38.5464C40.4965 36.0924 40.85 33.597 40.9977 31.0852L42.9942 31.2026C42.8401 33.8236 42.4712 36.4276 41.8912 38.9882L39.9406 38.5464ZM39.314 50.3669C38.8717 52.3198 38.2695 54.2331 37.5136 56.0873L35.6616 55.3322C36.3761 53.5795 36.9453 51.7711 37.3634 49.9251L39.314 50.3669ZM36.352 98.3311C36.5448 102.256 37.4498 106.113 39.0229 109.715L37.1901 110.515C35.52 106.692 34.5591 102.596 34.3544 98.4293L36.352 98.3311ZM52.5393 125.93C48.7705 124.568 45.4004 122.288 42.7331 119.298L44.2258 117.966C46.672 120.709 49.7628 122.8 53.2192 124.049L52.5393 125.93ZM44.5311 5.51808C46.2967 3.01595 49.4347 1.87961 52.393 2.67118L51.876 4.60321C49.7272 4.02822 47.4477 4.85365 46.1652 6.67116L44.5311 5.51808Z" fill="white"/>
<defs>
<filter id="filter0_d_14_36" x="29.6346" y="37.4348" width="101.731" height="101.565" filterUnits="userSpaceOnUse" color-interpolation-filters="sRGB">
<feFlood flood-opacity="0" result="BackgroundImageFix"/>
<feColorMatrix in="SourceAlpha" type="matrix" values="0 0 0 0 0 0 0 0 0 0 0 0 0 0 0 0 0 0 127 0" result="hardAlpha"/>
<feOffset dy="4"/>
<feGaussianBlur stdDeviation="2"/>
<feComposite in2="hardAlpha" operator="out"/>
<feColorMatrix type="matrix" values="0 0 0 0 0 0 0 0 0 0 0 0 0 0 0 0 0 0 0.25 0"/>
<feBlend mode="normal" in2="BackgroundImageFix" result="effect1_dropShadow_14_36"/>
<feBlend mode="normal" in="SourceGraphic" in2="effect1_dropShadow_14_36" result="shape"/>
</filter>
</defs>
</svg>
