<svg width="118" height="120" viewBox="0 0 118 120" fill="none" xmlns="http://www.w3.org/2000/svg">
<path d="M9.06091 41.2474L8.9922 41.4774L8.76974 41.5676L0.542864 44.9044L2.60042 61.6998L8.70798 63.2924L9.00486 63.3698L9.07031 63.6696L12.9403 81.393C17.798 103.64 37.4949 119.5 60.266 119.5C84.0258 119.5 104.278 102.267 108.082 78.8139L110.534 63.6962L110.577 63.4299L110.823 63.3198L114.338 61.7488L117.44 44.8644L110.804 41.5516L110.591 41.4452L110.539 41.2126L110.11 39.28C105.084 16.6232 84.9925 0.5 61.785 0.5H61.7779H61.7707H61.7635H61.7563H61.7491H61.742H61.7348H61.7276H61.7204H61.7133H61.7061H61.6989H61.6917H61.6846H61.6774H61.6702H61.663H61.6559H61.6487H61.6415H61.6343H61.6272H61.62H61.6128H61.6056H61.5984H61.5913H61.5841H61.5769H61.5697H61.5626H61.5554H61.5482H61.541H61.5339H61.5267H61.5195H61.5123H61.5051H61.498H61.4908H61.4836H61.4764H61.4693H61.4621H61.4549H61.4477H61.4406H61.4334H61.4262H61.419H61.4119H61.4047H61.3975H61.3903H61.3832H61.376H61.3688H61.3616H61.3544H61.3473H61.3401H61.3329H61.3257H61.3186H61.3114H61.3042H61.297H61.2899H61.2827H61.2755H61.2683H61.2612H61.254H61.2468H61.2396H61.2324H61.2253H61.2181H61.2109H61.2037H61.1966L61.1894 0.5H61.1822H61.175H61.1679H61.1607H61.1535H61.1463H61.1392H61.132H61.1248H61.1176H61.1104H61.1033H61.0961H61.0889H61.0817H61.0746H61.0674H61.0602H61.053H61.0459H61.0387H61.0315H61.0243H61.0172H61.01H61.0028H60.9956H60.9884H60.9813H60.9741H60.9669H60.9597H60.9526H60.9454H60.9382H60.931H60.9239H60.9167H60.9095H60.9023H60.8951H60.888H60.8808H60.8736H60.8664H60.8593H60.8521H60.8449H60.8377H60.8306H60.8234H60.8162H60.809H60.8018H60.7947H60.7875H60.7803H60.7731H60.766H60.7588H60.7516H60.7444H60.7373H60.7301H60.7229H60.7157H60.7085H60.7014H60.6942H60.687H60.6798H60.6727H60.6655H60.6583H60.6511H60.644H60.6368H60.6296H60.6224H60.6152H60.6081H60.6009H60.5937H60.5865H60.5794H60.5722H60.565H60.5578H60.5507H60.5435H60.5363H60.5291H60.5219H60.5148H60.5076H60.5004H60.4932H60.4861H60.4789H60.4717H60.4645H60.4573H60.4502H60.443H60.4358H60.4286H60.4215H60.4143H60.4071H60.3999H60.3927H60.3856H60.3784H60.3712H60.364H60.3569H60.3497H60.3425H60.3353H60.3281H60.321H60.3138H60.3066H60.2994H60.2923L60.2851 0.5H60.2779H60.2707H60.2635H60.2564H60.2492H60.242H60.2348H60.2276H60.2205H60.2133H60.2061H60.1989H60.1918H60.1846H60.1774H60.1702H60.163H60.1559H60.1487H60.1415H60.1343H60.1271H60.12H60.1128H60.1056H60.0984H60.0913H60.0841H60.0769H60.0697H60.0625H60.0554H60.0482H60.041H60.0338H60.0266H60.0195H60.0123H60.0051H59.9979H59.9907H59.9836H59.9764H59.9692H59.962H59.9549H59.9477H59.9405H59.9333H59.9261H59.919H59.9118H59.9046H59.8974H59.8902H59.8831H59.8759H59.8687H59.8615H59.8543H59.8472H59.84H59.8328H59.8256H59.8184H59.8113H59.8041H59.7969H59.7897H59.7825H59.7754H59.7682H59.761H59.7538H59.7466H59.7395H59.7323H59.7251H59.7179H59.7107H59.7036H59.6964H59.6892H59.682H59.6748H59.6677H59.6605H59.6533H59.6461H59.6389H59.6317H59.6246H59.6174H59.6102H59.603H59.5958H59.5887H59.5815H59.5743H59.5671H59.5599H59.5528H59.5456H59.5384H59.5312H59.524H59.5168H59.5097H59.5025H59.4953H59.4881H59.4809H59.4738H59.4666H59.4594H59.4522H59.445H59.4379H59.4307H59.4235H59.4163H59.4091H59.4019H59.3948H59.3876H59.3804L59.3732 0.5H59.366H59.3588H59.3517H59.3445H59.3373H59.3301H59.3229H59.3158H59.3086H59.3014H59.2942H59.287H59.2798H59.2727H59.2655H59.2583H59.2511H59.2439H59.2367H59.2296H59.2224H59.2152H59.208H59.2008H59.1936H59.1865H59.1793H59.1721H59.1649H59.1577H59.1505H59.1434H59.1362H59.129H59.1218H59.1146H59.1074H59.1003H59.0931H59.0859H59.0787H59.0715H59.0643H59.0571H59.05H59.0428H59.0356H59.0284H59.0212H59.014H59.0069H58.9997H58.9925H58.9853H58.9781H58.9709H58.9637H58.9566H58.9494H58.9422H58.935H58.9278H58.9206H58.9134H58.9063H58.8991H58.8919H58.8847H58.8775H58.8703H58.8631H58.856H58.8488H58.8416H58.8344H58.8272H58.82H58.8128H58.8057H58.7985H58.7913H58.7841H58.7769H58.7697H58.7625H58.7554H58.7482H58.741H58.7338H58.7266H58.7194H58.7122H58.7051H58.6979H58.6907H58.6835H58.6763H58.6691H58.6619H58.6547H58.6476H58.6404H58.6332H58.626H58.6188H58.6116H58.6044H58.5972H58.5901H58.5829H58.5757H58.5685H58.5613H58.5541H58.5469H58.5397H58.5325H58.5254H58.5182H58.511H58.5038H58.4966H58.4894H58.4822H58.475L58.4678 0.5H58.4607H58.4535H58.4463H58.4391H58.4319H58.4247H58.4175H58.4103H58.4031H58.396H58.3888H58.3816H58.3744H58.3672H58.36H58.3528H58.3456H58.3384H58.3312H58.3241H58.3169H58.3097H58.3025H58.2953H58.2881H58.2809H58.2737H58.2665H58.2593H58.2522H58.245H58.2378H58.2306H58.2234H58.2162H58.209H58.2018H58.1946H58.1874H58.1802H58.1731H58.1659H58.1587H58.1515H58.1443H58.1371H58.1299H58.1227H58.1155H58.1083C36.2264 0.5 16.9399 14.8673 10.6777 35.834L9.06091 41.2474Z" fill="#CEB324" stroke="black"/>
<path d="M59.0002 107.752C68.102 107.752 76.3344 105.419 82.2787 102.236C85.2516 100.644 87.6362 98.8489 89.2707 97.0423C90.9125 95.2276 91.7548 93.451 91.7548 91.8881C91.7548 90.358 91.5276 89.2352 91.1299 88.4216C90.7389 87.6215 90.1731 87.0988 89.4385 86.7725C88.6898 86.44 87.742 86.3017 86.5857 86.3255C85.4315 86.3492 84.1022 86.5335 82.6089 86.8198C81.0768 87.1136 79.3785 87.515 77.5429 87.9488C72.268 89.1954 65.859 90.71 59.0002 90.71C52.1415 90.71 45.7325 89.1954 40.4575 87.9488C38.6219 87.515 36.9237 87.1136 35.3915 86.8198C33.8982 86.5335 32.5689 86.3492 31.4147 86.3255C30.2584 86.3017 29.3106 86.44 28.5619 86.7725C27.8273 87.0988 27.2615 87.6215 26.8705 88.4216C26.4728 89.2352 26.2457 90.358 26.2457 91.8881C26.2457 93.451 27.0879 95.2276 28.7297 97.0423C30.3643 98.8489 32.7488 100.644 35.7217 102.236C41.666 105.419 49.8984 107.752 59.0002 107.752Z" fill="#CEB324" stroke="black"/>
<g filter="url(#filter0_ii_25_203)">
<path d="M59.7157 2.51747C38.8146 2.51747 20.2849 15.9614 13.7998 35.8309L11.8 41.958L5.90002 44.4755L7.50912 61.2587L11.8 62.937L12.8819 65.9698C19.9523 85.7889 38.7216 99.021 59.7641 99.021H61.4795C82.8351 99.021 101.568 84.7751 107.273 64.1958L110.491 61.2587L112.1 44.8951L107.273 41.958L106.63 39.333C101.339 17.7195 81.9673 2.51747 59.7157 2.51747Z" fill="black"/>
</g>
<path d="M12.2753 42.1132L12.2049 42.3289L11.9963 42.4179L6.43265 44.7919L7.9775 60.905L11.9822 62.4714L12.1944 62.5544L12.271 62.769L13.3529 65.8018C20.3522 85.4218 38.933 98.521 59.7641 98.521H61.4795C82.6104 98.521 101.146 84.425 106.791 64.0622L106.829 63.9235L106.936 63.8265L110.012 61.0188L111.572 45.1589L107.013 42.3852L106.836 42.2777L106.787 42.0769L106.145 39.4519C100.909 18.0622 81.737 3.01747 59.7157 3.01747C39.0309 3.01747 20.6931 16.3222 14.2751 35.9861L12.2753 42.1132Z" stroke="black"/>
<defs>
<filter id="filter0_ii_25_203" x="5.90002" y="-3.48253" width="106.2" height="108.503" filterUnits="userSpaceOnUse" color-interpolation-filters="sRGB">
<feFlood flood-opacity="0" result="BackgroundImageFix"/>
<feBlend mode="normal" in="SourceGraphic" in2="BackgroundImageFix" result="shape"/>
<feColorMatrix in="SourceAlpha" type="matrix" values="0 0 0 0 0 0 0 0 0 0 0 0 0 0 0 0 0 0 127 0" result="hardAlpha"/>
<feOffset dy="6"/>
<feGaussianBlur stdDeviation="5"/>
<feComposite in2="hardAlpha" operator="arithmetic" k2="-1" k3="1"/>
<feColorMatrix type="matrix" values="0 0 0 0 1 0 0 0 0 1 0 0 0 0 1 0 0 0 0.25 0"/>
<feBlend mode="normal" in2="shape" result="effect1_innerShadow_25_203"/>
<feColorMatrix in="SourceAlpha" type="matrix" values="0 0 0 0 0 0 0 0 0 0 0 0 0 0 0 0 0 0 127 0" result="hardAlpha"/>
<feOffset dy="-6"/>
<feGaussianBlur stdDeviation="5"/>
<feComposite in2="hardAlpha" operator="arithmetic" k2="-1" k3="1"/>
<feColorMatrix type="matrix" values="0 0 0 0 1 0 0 0 0 1 0 0 0 0 1 0 0 0 0.25 0"/>
<feBlend mode="normal" in2="effect1_innerShadow_25_203" result="effect2_innerShadow_25_203"/>
</filter>
</defs>
</svg>
