<svg width="100" height="100" viewBox="0 0 100 100" fill="none" xmlns="http://www.w3.org/2000/svg">
<path d="M50 10L56.6574 17.6008L54.1145 29.8992H45.8855L43.3426 17.6008L50 10Z" fill="#CEB324"/>
<path d="M33.3308 13.9453L42.7902 18.0025L45.5518 30.6357L37.7992 34.3863L30.2462 24.0711L33.3308 13.9453Z" fill="#CEB324"/>
<path d="M19.7708 24.842L29.9967 24.3716L37.6457 34.6103L32.1472 41.4087L21.1 35.3715L19.7708 24.842Z" fill="#CEB324"/>
<path d="M11.8833 40.6944L20.9594 35.7845L32.0626 41.7102L29.8486 50.2824L17.3771 49.6547L11.8833 40.6944Z" fill="#CEB324"/>
<path d="M88.2708 40.6944L82.777 49.6547L70.3055 50.2824L68.0916 41.7102L79.1947 35.7845L88.2708 40.6944Z" fill="#CEB324"/>
<path d="M80.1526 24.842L78.8235 35.3715L67.7762 41.4087L62.2777 34.6103L69.9268 24.3716L80.1526 24.842Z" fill="#CEB324"/>
<path d="M66.569 13.9453L69.6537 24.0711L62.1007 34.3863L54.3481 30.6357L57.1096 18.0025L66.569 13.9453Z" fill="#CEB324"/>
<path d="M50 90L56.6574 82.3992L54.1145 70.1008H45.8855L43.3426 82.3992L50 90Z" fill="#CEB324"/>
<path d="M33.3308 86.1388L42.7902 82.0816L45.5518 69.4484L37.7992 65.6979L30.2462 76.0131L33.3308 86.1388Z" fill="#CEB324"/>
<path d="M19.7708 75.2421L29.9967 75.7126L37.6457 65.4738L32.1472 58.6755L21.1 64.7126L19.7708 75.2421Z" fill="#CEB324"/>
<path d="M11.8833 59.3897L20.9594 64.2996L32.0626 58.3739L29.8486 49.8017L17.3771 50.4295L11.8833 59.3897Z" fill="#CEB324"/>
<path d="M88.2708 59.3897L82.777 50.4295L70.3055 49.8017L68.0916 58.3739L79.1947 64.2996L88.2708 59.3897Z" fill="#CEB324"/>
<path d="M80.1526 75.2421L78.8235 64.7126L67.7762 58.6755L62.2777 65.4738L69.9268 75.7126L80.1526 75.2421Z" fill="#CEB324"/>
<path d="M66.569 86.1388L69.6537 76.0131L62.1007 65.6979L54.3481 69.4484L57.1096 82.0816L66.569 86.1388Z" fill="#CEB324"/>
<path d="M50 10L56.6574 17.6008L54.1145 29.8992H45.8855L43.3426 17.6008L50 10Z" fill="#CEB324"/>
<path d="M33.3308 13.9453L42.7902 18.0025L45.5518 30.6357L37.7992 34.3863L30.2462 24.0711L33.3308 13.9453Z" fill="#CEB324"/>
<path d="M19.7708 24.842L29.9967 24.3716L37.6457 34.6103L32.1472 41.4087L21.1 35.3715L19.7708 24.842Z" fill="#CEB324"/>
<path d="M11.8833 40.6944L20.9594 35.7845L32.0626 41.7102L29.8486 50.2824L17.3771 49.6547L11.8833 40.6944Z" fill="#CEB324"/>
<path d="M88.2708 40.6944L82.777 49.6547L70.3055 50.2824L68.0916 41.7102L79.1947 35.7845L88.2708 40.6944Z" fill="#CEB324"/>
<path d="M80.1526 24.842L78.8235 35.3715L67.7762 41.4087L62.2777 34.6103L69.9268 24.3716L80.1526 24.842Z" fill="#CEB324"/>
<path d="M66.569 13.9453L69.6537 24.0711L62.1007 34.3863L54.3481 30.6357L57.1096 18.0025L66.569 13.9453Z" fill="#CEB324"/>
<path d="M50 90L56.6574 82.3992L54.1145 70.1008H45.8855L43.3426 82.3992L50 90Z" fill="#CEB324"/>
<path d="M33.3308 86.1388L42.7902 82.0816L45.5518 69.4484L37.7992 65.6979L30.2462 76.0131L33.3308 86.1388Z" fill="#CEB324"/>
<path d="M19.7708 75.2421L29.9967 75.7126L37.6457 65.4738L32.1472 58.6755L21.1 64.7126L19.7708 75.2421Z" fill="#CEB324"/>
<path d="M11.8833 59.3897L20.9594 64.2996L32.0626 58.3739L29.8486 49.8017L17.3771 50.4295L11.8833 59.3897Z" fill="#CEB324"/>
<path d="M88.2708 59.3897L82.777 50.4295L70.3055 49.8017L68.0916 58.3739L79.1947 64.2996L88.2708 59.3897Z" fill="#CEB324"/>
<path d="M80.1526 75.2421L78.8235 64.7126L67.7762 58.6755L62.2777 65.4738L69.9268 75.7126L80.1526 75.2421Z" fill="#CEB324"/>
<path d="M66.569 86.1388L69.6537 76.0131L62.1007 65.6979L54.3481 69.4484L57.1096 82.0816L66.569 86.1388Z" fill="#CEB324"/>
</svg>
