<svg width="126" height="113" viewBox="0 0 126 113" fill="none" xmlns="http://www.w3.org/2000/svg">
<path d="M115.968 69.5457C113.448 69.5457 111.6 69.5449 110.224 69.3911C108.844 69.2369 108.048 68.9379 107.545 68.4317C107.041 67.925 106.743 67.1225 106.59 65.7335C106.437 64.3484 106.436 62.4893 106.436 59.9543C106.436 57.4194 106.437 55.5603 106.59 54.1752C106.743 52.7861 107.041 51.9837 107.545 51.4769C108.048 50.9708 108.844 50.6718 110.224 50.5176C111.6 50.3638 113.448 50.363 115.968 50.363C120.097 50.363 122.429 51.4674 123.753 53.1302C125.097 54.818 125.5 57.1941 125.5 59.9543C125.5 62.7145 125.097 65.0907 123.753 66.7785C122.429 68.4413 120.097 69.5457 115.968 69.5457Z" fill="#D9D9D9" stroke="black"/>
<path d="M10.0318 69.5457C12.5521 69.5457 14.3996 69.5449 15.776 69.3911C17.1557 69.2369 17.952 68.9379 18.4551 68.4317C18.9589 67.925 19.2565 67.1225 19.41 65.7335C19.563 64.3484 19.5637 62.4893 19.5637 59.9543C19.5637 57.4194 19.563 55.5603 19.41 54.1752C19.2565 52.7861 18.9589 51.9837 18.4551 51.4769C17.952 50.9708 17.1557 50.6718 15.776 50.5176C14.3996 50.3638 12.5521 50.363 10.0318 50.363C5.90334 50.363 3.57147 51.4674 2.24699 53.1302C0.902593 54.818 0.5 57.1941 0.5 59.9543C0.5 62.7145 0.902593 65.0907 2.24699 66.7785C3.57147 68.4413 5.90334 69.5457 10.0318 69.5457Z" fill="#D9D9D9" stroke="black"/>
<path d="M62.5988 93.29C46.5852 93.29 38.8055 93.2674 31.744 87.5398C28.1962 84.6621 24.8078 80.3229 20.6803 73.7405C16.5677 67.1819 11.7467 58.439 5.31555 46.7667C5.40092 21.2944 30.9126 0.5 62.5988 0.5C94.285 0.5 119.797 21.2944 119.882 46.7667C113.451 58.439 108.63 67.1819 104.517 73.7405C100.39 80.3229 97.0014 84.6621 93.4536 87.5398C86.392 93.2674 78.6123 93.29 62.5988 93.29Z" fill="#D9D9D9" stroke="black"/>
<path d="M62.5987 111.692C35.3925 111.692 13.3408 89.7223 13.3408 62.6256C13.3408 37.663 33.6137 19.4899 56.8137 14.5185C60.6224 13.7023 64.5694 13.7137 68.3624 14.5854C90.4247 19.6556 111.857 37.7867 111.857 62.6256C111.857 89.7223 89.805 111.692 62.5987 111.692Z" fill="#CECDCD" stroke="black"/>
<line x1="112.357" y1="61.6415" x2="12.8408" y2="61.6415" stroke="black"/>
<path d="M32.7174 15.9223C33.8568 13.2006 30.6222 10.7501 28.3104 12.5835L24.3864 15.6957C13.9737 23.954 7.63545 36.3074 7 49.5822L11.414 57.2991L12.8153 50.8498C14.8694 41.3953 20.2599 32.9968 28 27.1918L32.7174 15.9223Z" fill="black"/>
<path d="M92.8056 15.9729C91.5821 12.846 95.3822 10.183 97.9037 12.4002L102.751 16.6626C111.903 24.71 117.636 35.949 118.777 48.0822L114.363 55.7991L113.33 52.6903C110.054 42.838 104.453 33.9201 97 26.6918L92.8056 15.9729Z" fill="black"/>
<path d="M97 26.6918C97 26.6918 82.5 12.1918 63.4998 12.1918C41.5 12.1918 27.9998 27.1918 27.9998 27.1918C13.9998 11.1918 47 2.19177 63.4998 2.19177C78.5 2.19177 112.5 10.6918 97 26.6918Z" fill="black"/>
</svg>
