<svg width="163" height="96" viewBox="0 0 163 96" fill="none" xmlns="http://www.w3.org/2000/svg">
<path d="M128.445 48C128.445 21.766 107.198 0.5 80.99 0.5C54.782 0.5 33.5354 21.766 33.5354 48C33.5354 74.234 54.782 95.5 80.99 95.5C107.198 95.5 128.445 74.234 128.445 48Z" fill="#A6A2A2" stroke="black"/>
<mask id="path-2-inside-1_17_37" fill="white">
<path fill-rule="evenodd" clip-rule="evenodd" d="M89.2445 95.2916C89.4154 95.0372 89.5151 94.731 89.5151 94.4015V58.5546C92.1314 56.3342 93.7779 53.1073 93.7779 49.5158C93.7779 45.9243 92.1314 42.6974 89.5151 40.477V2.13132C89.5151 1.5573 89.2881 1.03627 88.9191 0.653069C86.3399 0.223511 83.691 0 80.99 0C78.2888 0 75.6398 0.223541 73.0604 0.65316C72.6914 1.03635 72.4645 1.55733 72.4645 2.13131V40.4774C69.8485 42.6978 68.2021 45.9245 68.2021 49.5158C68.2021 53.1071 69.8485 56.3338 72.4645 58.5542V93.8687C72.4645 94.4427 72.6914 94.9636 73.0604 95.3468C75.6398 95.7765 78.2888 96 80.99 96C83.8047 96 86.5628 95.7573 89.2445 95.2916Z"/>
</mask>
<path fill-rule="evenodd" clip-rule="evenodd" d="M89.2445 95.2916C89.4154 95.0372 89.5151 94.731 89.5151 94.4015V58.5546C92.1314 56.3342 93.7779 53.1073 93.7779 49.5158C93.7779 45.9243 92.1314 42.6974 89.5151 40.477V2.13132C89.5151 1.5573 89.2881 1.03627 88.9191 0.653069C86.3399 0.223511 83.691 0 80.99 0C78.2888 0 75.6398 0.223541 73.0604 0.65316C72.6914 1.03635 72.4645 1.55733 72.4645 2.13131V40.4774C69.8485 42.6978 68.2021 45.9245 68.2021 49.5158C68.2021 53.1071 69.8485 56.3338 72.4645 58.5542V93.8687C72.4645 94.4427 72.6914 94.9636 73.0604 95.3468C75.6398 95.7765 78.2888 96 80.99 96C83.8047 96 86.5628 95.7573 89.2445 95.2916Z" fill="#C8B139"/>
<path d="M89.2445 95.2916L90.0747 95.8491L89.8365 96.2037L89.4156 96.2768L89.2445 95.2916ZM89.5151 58.5546H88.5151V58.0917L88.868 57.7921L89.5151 58.5546ZM89.5151 40.477L88.868 41.2394L88.5151 40.9399V40.477H89.5151ZM88.9191 0.653069L89.0834 -0.333344L89.4098 -0.278976L89.6394 -0.040596L88.9191 0.653069ZM73.0604 0.65316L72.3401 -0.0404587L72.5696 -0.278877L72.8961 -0.333252L73.0604 0.65316ZM72.4645 40.4774H73.4645V40.9403L73.1116 41.2398L72.4645 40.4774ZM72.4645 58.5542L73.1116 57.7918L73.4645 58.0913V58.5542H72.4645ZM73.0604 95.3468L72.8961 96.3333L72.5696 96.2789L72.3401 96.0405L73.0604 95.3468ZM90.5151 94.4015C90.5151 94.9357 90.3528 95.435 90.0747 95.8491L88.4144 94.7341C88.478 94.6393 88.5151 94.5263 88.5151 94.4015H90.5151ZM90.5151 58.5546V94.4015H88.5151V58.5546H90.5151ZM94.7779 49.5158C94.7779 53.4233 92.9848 56.9215 90.1621 59.317L88.868 57.7921C91.278 55.7468 92.7779 52.7914 92.7779 49.5158H94.7779ZM90.1621 39.7146C92.9848 42.1101 94.7779 45.6083 94.7779 49.5158H92.7779C92.7779 46.2402 91.278 43.2848 88.868 41.2394L90.1621 39.7146ZM90.5151 2.13132V40.477H88.5151V2.13132H90.5151ZM89.6394 -0.040596C90.1807 0.521446 90.5151 1.28838 90.5151 2.13132H88.5151C88.5151 1.82622 88.3956 1.55109 88.1988 1.34673L89.6394 -0.040596ZM88.7548 1.63948C86.2297 1.21893 83.6358 1 80.99 1V-1C83.7463 -1 86.4501 -0.771912 89.0834 -0.333344L88.7548 1.63948ZM80.99 1C78.3441 1 75.75 1.21896 73.2247 1.63957L72.8961 -0.333252C75.5296 -0.771881 78.2336 -1 80.99 -1V1ZM71.4645 2.13131C71.4645 1.28843 71.7989 0.521568 72.3401 -0.0404587L73.7807 1.34678C73.584 1.55114 73.4645 1.82624 73.4645 2.13131H71.4645ZM71.4645 40.4774V2.13131H73.4645V40.4774H71.4645ZM67.2021 49.5158C67.2021 45.6086 68.9951 42.1105 71.8174 39.715L73.1116 41.2398C70.7019 43.2852 69.2021 46.2404 69.2021 49.5158H67.2021ZM71.8174 59.3166C68.9951 56.9211 67.2021 53.423 67.2021 49.5158H69.2021C69.2021 52.7912 70.7019 55.7464 73.1116 57.7918L71.8174 59.3166ZM71.4645 93.8687V58.5542H73.4645V93.8687H71.4645ZM72.3401 96.0405C71.7989 95.4784 71.4645 94.7116 71.4645 93.8687H73.4645C73.4645 94.1738 73.584 94.4489 73.7807 94.6532L72.3401 96.0405ZM73.2247 94.3604C75.75 94.781 78.3441 95 80.99 95V97C78.2336 97 75.5296 96.7719 72.8961 96.3333L73.2247 94.3604ZM80.99 95C83.7471 95 86.448 94.7622 89.0734 94.3063L89.4156 96.2768C86.6777 96.7523 83.8623 97 80.99 97V95Z" fill="black" mask="url(#path-2-inside-1_17_37)"/>
<path d="M19.8308 49.6441C18.5548 50.286 17.0012 49.7302 16.4219 48.4246L4.95365 22.5755C4.7071 22.0198 3.8696 22.3024 4.01016 22.8938L12.7081 59.4924C12.877 60.2032 13.5333 60.6889 14.2624 60.6427L40.1154 59.0037C40.8932 58.9544 41.5037 58.3175 41.5201 57.5383L41.8678 41.0225C41.8916 39.8922 40.7039 39.1428 39.6939 39.6509L19.8308 49.6441Z" fill="#D9D9D9"/>
<path d="M19.8308 49.6441C18.5548 50.286 17.0012 49.7302 16.4219 48.4246L4.95365 22.5755C4.7071 22.0198 3.8696 22.3024 4.01016 22.8938L12.7081 59.4924C12.877 60.2032 13.5333 60.6889 14.2624 60.6427L40.1154 59.0037C40.8932 58.9544 41.5037 58.3175 41.5201 57.5383L41.8678 41.0225C41.8916 39.8922 40.7039 39.1428 39.6939 39.6509L19.8308 49.6441Z" fill="#C9C9C9" fill-opacity="0.2"/>
<path d="M19.8308 49.6441C18.5548 50.286 17.0012 49.7302 16.4219 48.4246L4.95365 22.5755C4.7071 22.0198 3.8696 22.3024 4.01016 22.8938L12.7081 59.4924C12.877 60.2032 13.5333 60.6889 14.2624 60.6427L40.1154 59.0037C40.8932 58.9544 41.5037 58.3175 41.5201 57.5383L41.8678 41.0225C41.8916 39.8922 40.7039 39.1428 39.6939 39.6509L19.8308 49.6441Z" stroke="black"/>
<path d="M19.8308 49.6441C18.5548 50.286 17.0012 49.7302 16.4219 48.4246L4.95365 22.5755C4.7071 22.0198 3.8696 22.3024 4.01016 22.8938L12.7081 59.4924C12.877 60.2032 13.5333 60.6889 14.2624 60.6427L40.1154 59.0037C40.8932 58.9544 41.5037 58.3175 41.5201 57.5383L41.8678 41.0225C41.8916 39.8922 40.7039 39.1428 39.6939 39.6509L19.8308 49.6441Z" stroke="black" stroke-opacity="0.2"/>
<path d="M142.473 49.6441C143.749 50.286 145.303 49.7302 145.882 48.4246L157.35 22.5755C157.597 22.0198 158.434 22.3024 158.294 22.8938L149.596 59.4924C149.427 60.2032 148.771 60.6889 148.042 60.6427L122.189 59.0037C121.411 58.9544 120.8 58.3175 120.784 57.5383L120.436 41.0225C120.412 39.8922 121.6 39.1428 122.61 39.6509L142.473 49.6441Z" fill="#D9D9D9"/>
<path d="M142.473 49.6441C143.749 50.286 145.303 49.7302 145.882 48.4246L157.35 22.5755C157.597 22.0198 158.434 22.3024 158.294 22.8938L149.596 59.4924C149.427 60.2032 148.771 60.6889 148.042 60.6427L122.189 59.0037C121.411 58.9544 120.8 58.3175 120.784 57.5383L120.436 41.0225C120.412 39.8922 121.6 39.1428 122.61 39.6509L142.473 49.6441Z" stroke="black"/>
<path d="M142.473 49.6441C143.749 50.286 145.303 49.7302 145.882 48.4246L157.35 22.5755C157.597 22.0198 158.434 22.3024 158.294 22.8938L149.596 59.4924C149.427 60.2032 148.771 60.6889 148.042 60.6427L122.189 59.0037C121.411 58.9544 120.8 58.3175 120.784 57.5383L120.436 41.0225C120.412 39.8922 121.6 39.1428 122.61 39.6509L142.473 49.6441Z" stroke="black" stroke-opacity="0.2"/>
<path d="M72.4647 40.5333L64.457 35.1314C56.9999 30.1009 50.6572 23.5888 45.8232 16V16" stroke="black" stroke-width="3"/>
<path d="M72.4647 40.5333L63.4747 34.4688C56.662 29.8729 50.8409 23.9554 46.356 17.0667V17.0667" stroke="#CEB324" stroke-linecap="round"/>
<path d="M89.5152 40.2114L97.7469 34.6584C105.061 29.7242 111.319 23.3814 116.157 16V16" stroke="black" stroke-width="3"/>
<path d="M89.5152 40.2114L98.5051 34.1468C105.318 29.551 111.139 23.6335 115.624 16.7448V16.7448" stroke="#CEB324" stroke-linecap="round"/>
<path d="M89.5152 58.6101L99.8974 65.6138C105.819 69.6084 111.118 74.456 115.624 80V80" stroke="black" stroke-width="3"/>
<path d="M90.0481 59.2L100.472 66.1037C106.009 69.7712 110.941 74.2795 115.091 79.4667V79.4667" stroke="#CEB324" stroke-linecap="round"/>
<path d="M72.4647 58.1333L61.4657 65.7762C55.597 69.8542 50.3313 74.7384 45.8232 80.2851V80.2851" stroke="black" stroke-width="3"/>
<path d="M71.9319 58.6667L60.082 66.8008C55.1318 70.1988 50.6897 74.2838 46.8889 78.9333V78.9333" stroke="#CEB324" stroke-linecap="round"/>
<path d="M77.5484 89.4557L80.99 91.4446L84.4315 89.4557V85.4776L80.99 83.4887L77.5484 85.4776V89.4557Z" fill="#897717" stroke="black" stroke-width="0.5"/>
<path d="M75.7026 52.1224L80.99 55.1779L86.2773 52.1224V46.0109L80.99 42.9554L75.7026 46.0109V52.1224Z" fill="#CECECE" stroke="black" stroke-width="0.5"/>
<path d="M77.5484 71.3224L80.99 73.3113L84.4315 71.3224V67.3443L80.99 65.3554L77.5484 67.3443V71.3224Z" fill="#897717" stroke="black" stroke-width="0.5"/>
<path d="M77.5484 11.5891L80.99 13.5779L84.4315 11.5891V7.61093L80.99 5.62207L77.5484 7.61093V11.5891Z" fill="#897717" stroke="black" stroke-width="0.5"/>
<path d="M77.5484 30.7891L80.99 32.7779L84.4315 30.7891V26.8109L80.99 24.8221L77.5484 26.8109V30.7891Z" fill="#897717" stroke="black" stroke-width="0.5"/>
</svg>
